<?xml version="1.0" encoding="UTF-8" standalone="no"?>
<!-- Generator: Adobe Illustrator 16.0.3, SVG Export Plug-In . SVG Version: 6.00 Build 0)  -->

<svg
   xmlns:dc="http://purl.org/dc/elements/1.1/"
   xmlns:cc="http://creativecommons.org/ns#"
   xmlns:rdf="http://www.w3.org/1999/02/22-rdf-syntax-ns#"
   xmlns:svg="http://www.w3.org/2000/svg"
   xmlns="http://www.w3.org/2000/svg"
   xmlns:xlink="http://www.w3.org/1999/xlink"
   xmlns:sodipodi="http://sodipodi.sourceforge.net/DTD/sodipodi-0.dtd"
   xmlns:inkscape="http://www.inkscape.org/namespaces/inkscape"
   version="1.1"
   id="idCampaignLayer"
   x="0px"
   y="0px"
   width="100%"
   height="100%"
   viewBox="0 0 157.42372 159.25423"
   enable-background="new 0 0 144 144"
   xml:space="preserve"
   inkscape:version="0.48.2 r9819"
   sodipodi:docname="campaign-group.svg"><metadata
   id="metadata4764"><rdf:RDF><cc:Work
       rdf:about=""><dc:format>image/svg+xml</dc:format><dc:type
         rdf:resource="http://purl.org/dc/dcmitype/StillImage" /><dc:title /></cc:Work></rdf:RDF></metadata><defs
   id="defs4762"><linearGradient
     inkscape:collect="always"
     xlink:href="#idCampaignBackgroundGradient"
     id="linearGradient5914"
     gradientUnits="userSpaceOnUse"
     x1="72"
     y1="144"
     x2="72"
     y2="0.00048828131" /><linearGradient
     inkscape:collect="always"
     xlink:href="#idCampaignCurveOpacityGradient"
     id="linearGradient5916"
     gradientUnits="userSpaceOnUse"
     x1="72.000504"
     y1="123.8174"
     x2="72.000504"
     y2="2.9145999" /><linearGradient
     inkscape:collect="always"
     xlink:href="#idCampaignBackgroundGradient"
     id="linearGradient5918"
     gradientUnits="userSpaceOnUse"
     x1="72"
     y1="144"
     x2="72"
     y2="0.00048828131" /><linearGradient
     inkscape:collect="always"
     xlink:href="#idCampaignCurveOpacityGradient"
     id="linearGradient5920"
     gradientUnits="userSpaceOnUse"
     x1="72.000504"
     y1="123.8174"
     x2="72.000504"
     y2="2.9145999" /><linearGradient
     inkscape:collect="always"
     xlink:href="#idCampaignBackgroundGradient"
     id="linearGradient5922"
     gradientUnits="userSpaceOnUse"
     x1="72"
     y1="144"
     x2="72"
     y2="0.00048828131" /><linearGradient
     inkscape:collect="always"
     xlink:href="#idCampaignCurveOpacityGradient"
     id="linearGradient5924"
     gradientUnits="userSpaceOnUse"
     x1="72.000504"
     y1="123.8174"
     x2="72.000504"
     y2="2.9145999" /><linearGradient
     inkscape:collect="always"
     xlink:href="#idCampaignBackgroundGradient"
     id="linearGradient12452"
     gradientUnits="userSpaceOnUse"
     x1="72"
     y1="144"
     x2="72"
     y2="0.00048828131" /><linearGradient
     inkscape:collect="always"
     xlink:href="#idCampaignCurveOpacityGradient"
     id="linearGradient12454"
     gradientUnits="userSpaceOnUse"
     x1="72.000504"
     y1="123.8174"
     x2="72.000504"
     y2="2.9145999" /><linearGradient
     inkscape:collect="always"
     xlink:href="#idCampaignBackgroundGradient"
     id="linearGradient12456"
     gradientUnits="userSpaceOnUse"
     x1="72"
     y1="144"
     x2="72"
     y2="0.00048828131" /><linearGradient
     inkscape:collect="always"
     xlink:href="#idCampaignCurveOpacityGradient"
     id="linearGradient12458"
     gradientUnits="userSpaceOnUse"
     x1="72.000504"
     y1="123.8174"
     x2="72.000504"
     y2="2.9145999" /><linearGradient
     inkscape:collect="always"
     xlink:href="#idCampaignBackgroundGradient"
     id="linearGradient16980"
     gradientUnits="userSpaceOnUse"
     x1="72"
     y1="144"
     x2="72"
     y2="0.00048828131" /><linearGradient
     inkscape:collect="always"
     xlink:href="#idCampaignCurveOpacityGradient"
     id="linearGradient16982"
     gradientUnits="userSpaceOnUse"
     x1="72.000504"
     y1="123.8174"
     x2="72.000504"
     y2="2.9145999" /><linearGradient
     inkscape:collect="always"
     xlink:href="#idCampaignBackgroundGradient"
     id="linearGradient16984"
     gradientUnits="userSpaceOnUse"
     x1="72"
     y1="144"
     x2="72"
     y2="0.00048828131" /><linearGradient
     inkscape:collect="always"
     xlink:href="#idCampaignCurveOpacityGradient"
     id="linearGradient16986"
     gradientUnits="userSpaceOnUse"
     x1="72.000504"
     y1="123.8174"
     x2="72.000504"
     y2="2.9145999" /><linearGradient
     inkscape:collect="always"
     xlink:href="#idCampaignBackgroundGradient"
     id="linearGradient16988"
     gradientUnits="userSpaceOnUse"
     x1="72"
     y1="144"
     x2="72"
     y2="0.00048828131" /><linearGradient
     inkscape:collect="always"
     xlink:href="#idCampaignCurveOpacityGradient"
     id="linearGradient16990"
     gradientUnits="userSpaceOnUse"
     x1="72.000504"
     y1="123.8174"
     x2="72.000504"
     y2="2.9145999" /><linearGradient
     inkscape:collect="always"
     xlink:href="#idCampaignBackgroundGradient"
     id="linearGradient17091"
     gradientUnits="userSpaceOnUse"
     x1="72"
     y1="144"
     x2="72"
     y2="0.00048828131" /><linearGradient
     inkscape:collect="always"
     xlink:href="#idCampaignCurveOpacityGradient"
     id="linearGradient17093"
     gradientUnits="userSpaceOnUse"
     x1="72.000504"
     y1="123.8174"
     x2="72.000504"
     y2="2.9145999" /><linearGradient
     inkscape:collect="always"
     xlink:href="#idCampaignBackgroundGradient"
     id="linearGradient17265"
     gradientUnits="userSpaceOnUse"
     x1="72"
     y1="144"
     x2="72"
     y2="0.00048828131" /><linearGradient
     inkscape:collect="always"
     xlink:href="#idCampaignCurveOpacityGradient"
     id="linearGradient17267"
     gradientUnits="userSpaceOnUse"
     x1="72.000504"
     y1="123.8174"
     x2="72.000504"
     y2="2.9145999" /><linearGradient
     inkscape:collect="always"
     xlink:href="#idCampaignBackgroundGradient"
     id="linearGradient17269"
     gradientUnits="userSpaceOnUse"
     x1="72"
     y1="144"
     x2="72"
     y2="0.00048828131" /><linearGradient
     inkscape:collect="always"
     xlink:href="#idCampaignCurveOpacityGradient"
     id="linearGradient17271"
     gradientUnits="userSpaceOnUse"
     x1="72.000504"
     y1="123.8174"
     x2="72.000504"
     y2="2.9145999" /><linearGradient
     inkscape:collect="always"
     xlink:href="#idCampaignBackgroundGradient"
     id="linearGradient17273"
     gradientUnits="userSpaceOnUse"
     x1="72"
     y1="144"
     x2="72"
     y2="0.00048828131" /><linearGradient
     inkscape:collect="always"
     xlink:href="#idCampaignCurveOpacityGradient"
     id="linearGradient17275"
     gradientUnits="userSpaceOnUse"
     x1="72.000504"
     y1="123.8174"
     x2="72.000504"
     y2="2.9145999" /></defs><sodipodi:namedview
   pagecolor="#ffffff"
   bordercolor="#666666"
   borderopacity="1"
   objecttolerance="10"
   gridtolerance="10"
   guidetolerance="10"
   inkscape:pageopacity="0"
   inkscape:pageshadow="2"
   inkscape:window-width="1567"
   inkscape:window-height="1028"
   id="namedview4760"
   showgrid="false"
   inkscape:zoom="1.6388889"
   inkscape:cx="-28.388557"
   inkscape:cy="73.033655"
   inkscape:window-x="82"
   inkscape:window-y="242"
   inkscape:window-maximized="0"
   inkscape:current-layer="idCampaignLayer"
   fit-margin-top="0"
   fit-margin-left="0"
   fit-margin-right="0"
   fit-margin-bottom="0" />

<g
   id="g17163"
   transform="translate(263.59323,11.593214)"><g
     id="g17095"><g
       id="g5538"
       transform="translate(-250.77967,-11.593224)"><rect
         ry="19.830509"
         y="3.4914178e-06"
         x="-0.61017209"
         height="144.61017"
         width="145.22034"
         id="rect4766"
         style="fill:#000000" /><switch
         transform="matrix(0.98305073,0,0,0.98305085,1.220339,2.440678)"
         id="switch4702">
	<g
   id="g4704">
		<g
   id="g4706">
			<g
   id="g4708">
				<linearGradient
   y2="0.00048828131"
   x2="72"
   y1="144"
   x1="72"
   gradientUnits="userSpaceOnUse"
   id="idCampaignBackgroundGradient">
					<stop
   id="stop4711"
   style="stop-color:#000000"
   offset="0" />
					<stop
   id="stop4713"
   style="stop-color:#001017"
   offset="0.0715" />
					<stop
   id="stop4715"
   style="stop-color:#002A3F"
   offset="0.2107" />
					<stop
   id="stop4717"
   style="stop-color:#00405F"
   offset="0.3546" />
					<stop
   id="stop4719"
   style="stop-color:#005179"
   offset="0.5022" />
					<stop
   id="stop4721"
   style="stop-color:#005D8B"
   offset="0.655" />
					<stop
   id="stop4723"
   style="stop-color:#006496"
   offset="0.8162" />
					<stop
   id="stop4725"
   style="stop-color:#006699"
   offset="1" />
				</linearGradient>
				<path
   inkscape:connector-curvature="0"
   style="fill:url(#linearGradient17265)"
   id="path4727"
   d="M 125.999,0 H 18 C 8.096,0 0,8.097 0,17.997 V 126.001 C 0,135.905 8.096,144 18,144 h 107.999 c 9.906,0 18,-8.095 18,-17.999 V 17.997 c 0,-9.9 -8.094,-17.997 -18,-17.997 z" />
			</g>
			<defs
   id="defs4729">
				<filter
   color-interpolation-filters="sRGB"
   height="144"
   width="143.99899"
   y="0"
   x="0"
   filterUnits="userSpaceOnUse"
   id="idCampaignFilter">
					
						<feColorMatrix
   id="feColorMatrix4732"
   result="source"
   color-interpolation-filters="sRGB"
   values="-1 0 0 0 1  0 -1 0 0 1  0 0 -1 0 1  0 0 0 1 0"
   type="matrix" />
				</filter>
			</defs>
			<mask
   id="idCampaignMask"
   height="144"
   width="143.999"
   y="0"
   x="0"
   maskUnits="userSpaceOnUse">
				<g
   style="filter:url(#idCampaignFilter)"
   id="g4735">
					
				</g>
			</mask>
			<g
   style="opacity:0.6"
   id="g4737"
   mask="url(#idCampaignMask)">
				<path
   inkscape:connector-curvature="0"
   id="path4739"
   d="M 125.999,0 H 18 C 8.096,0 0,8.097 0,17.997 V 126.001 C 0,135.905 8.096,144 18,144 h 107.999 c 9.906,0 18,-8.095 18,-17.999 V 17.997 c 0,-9.9 -8.094,-17.997 -18,-17.997 z" />
			</g>
		</g>
		<g
   id="g4741">
			
			<g
   id="g4743">
				<path
   style="fill:#ffffff"
   inkscape:connector-curvature="0"
   id="path4745"
   d="m 56.007,35.463 c -5.825,0 -10.545,4.728 -10.545,10.55 0,5.822 4.72,10.548 10.545,10.548 5.825,0 10.55,-4.726 10.55,-10.548 0,-5.822 -4.724,-10.55 -10.55,-10.55 z m 5.403,4.94 c -0.714,-0.782 -0.927,-1.75 -0.468,-2.169 0.457,-0.421 1.402,-0.121 2.116,0.661 0.716,0.781 0.922,1.756 0.472,2.173 -0.459,0.411 -1.405,0.115 -2.12,-0.665 z m -16.77,14.18 c -5.809,0 -10.535,4.724 -10.535,10.548 0,5.822 4.727,10.548 10.535,10.548 5.815,0 10.543,-4.726 10.543,-10.548 0,-5.824 -4.727,-10.548 -10.543,-10.548 z m 5.398,4.937 c -0.719,-0.779 -0.931,-1.753 -0.472,-2.167 0.456,-0.42 1.404,-0.123 2.118,0.658 0.714,0.784 0.922,1.759 0.469,2.173 -0.456,0.417 -1.404,0.117 -2.115,-0.664 z m 16.625,-4.937 c -5.822,0 -10.55,4.724 -10.55,10.548 0,5.822 4.728,10.548 10.55,10.548 5.825,0 10.552,-4.726 10.552,-10.548 0,-5.824 -4.727,-10.548 -10.552,-10.548 z m 5.402,4.937 c -0.711,-0.779 -0.926,-1.753 -0.467,-2.167 0.457,-0.42 1.404,-0.123 2.119,0.658 0.713,0.784 0.922,1.759 0.471,2.173 -0.461,0.417 -1.404,0.117 -2.123,-0.664 z m 27.457,14.292 c -5.824,0 -10.549,4.724 -10.549,10.55 0,5.822 4.725,10.546 10.549,10.546 5.822,0 10.549,-4.724 10.549,-10.546 0,-5.827 -4.726,-10.55 -10.549,-10.55 z m 5.403,4.938 c -0.715,-0.781 -0.928,-1.754 -0.469,-2.169 0.457,-0.42 1.402,-0.121 2.119,0.661 0.713,0.781 0.924,1.757 0.469,2.175 -0.457,0.412 -1.406,0.112 -2.119,-0.667 z M 88.757,54.583 c -5.822,0 -10.55,4.726 -10.55,10.55 0,5.824 4.728,10.548 10.55,10.548 5.828,0 10.551,-4.724 10.551,-10.548 0,-5.824 -4.723,-10.55 -10.551,-10.55 z m 5.404,4.94 c -0.713,-0.779 -0.93,-1.754 -0.467,-2.169 0.455,-0.42 1.402,-0.121 2.113,0.661 0.717,0.779 0.924,1.759 0.473,2.171 -0.459,0.418 -1.404,0.117 -2.119,-0.663 z M 78.066,35.467 c -5.825,0 -10.551,4.726 -10.551,10.548 0,5.826 4.727,10.55 10.551,10.55 5.823,0 10.548,-4.724 10.548,-10.55 0,-5.823 -4.724,-10.548 -10.548,-10.548 z m 5.402,4.938 c -0.715,-0.779 -0.928,-1.752 -0.469,-2.167 0.457,-0.42 1.404,-0.121 2.117,0.659 0.715,0.781 0.922,1.759 0.471,2.177 -0.459,0.412 -1.404,0.113 -2.119,-0.669 z m -6.075,33.407 c -5.825,0 -10.551,4.724 -10.551,10.55 0,5.822 4.727,10.546 10.551,10.546 5.823,0 10.548,-4.724 10.548,-10.546 -0.001,-5.827 -4.725,-10.55 -10.548,-10.55 z m 5.403,4.938 c -0.714,-0.781 -0.929,-1.754 -0.469,-2.169 0.455,-0.42 1.4,-0.121 2.117,0.661 0.717,0.781 0.922,1.757 0.469,2.175 -0.457,0.412 -1.404,0.112 -2.117,-0.667 z M 55.325,73.812 c -5.825,0 -10.542,4.724 -10.542,10.55 0,5.822 4.717,10.546 10.542,10.546 5.825,0 10.55,-4.724 10.55,-10.546 0,-5.827 -4.725,-10.55 -10.55,-10.55 z m 5.402,4.938 c -0.714,-0.781 -0.928,-1.754 -0.469,-2.169 0.458,-0.42 1.403,-0.121 2.12,0.661 0.714,0.781 0.922,1.757 0.469,2.175 -0.459,0.412 -1.406,0.112 -2.12,-0.667 z M 33.281,73.812 c -5.825,0 -10.55,4.724 -10.55,10.55 0,5.822 4.725,10.546 10.55,10.546 5.824,0 10.539,-4.724 10.539,-10.546 0,-5.827 -4.715,-10.55 -10.539,-10.55 z m 5.402,4.938 c -0.714,-0.781 -0.926,-1.754 -0.47,-2.169 0.459,-0.42 1.403,-0.121 2.119,0.661 0.714,0.781 0.922,1.757 0.47,2.175 -0.458,0.412 -1.406,0.112 -2.119,-0.667 z M 67.336,16.363 c -5.825,0 -10.55,4.727 -10.55,10.548 0,5.826 4.725,10.548 10.55,10.548 5.826,0 10.548,-4.722 10.548,-10.548 C 77.885,21.09 73.162,16.363 67.336,16.363 z m 5.405,4.939 c -0.714,-0.779 -0.931,-1.755 -0.472,-2.166 0.457,-0.419 1.405,-0.121 2.118,0.658 0.715,0.781 0.922,1.759 0.473,2.173 -0.46,0.416 -1.405,0.116 -2.119,-0.665 z m 31.061,48.339 c -3.594,0 -6.764,1.848 -8.605,4.643 1.621,-1.066 3.563,-1.692 5.652,-1.692 5.688,0 10.299,4.611 10.299,10.297 0,2.092 -0.623,4.031 -1.689,5.654 2.793,-1.842 4.641,-5.013 4.641,-8.604 -10e-4,-5.685 -4.615,-10.298 -10.298,-10.298 z m 7.34,5.47 c -0.445,0.404 -1.367,0.11 -2.064,-0.651 -0.699,-0.761 -0.91,-1.708 -0.459,-2.116 0.445,-0.409 1.367,-0.118 2.066,0.646 0.697,0.76 0.898,1.714 0.457,2.121 z m -3.559,-9.517 c -3.51,0 -6.607,1.802 -8.406,4.53 1.586,-1.04 3.484,-1.652 5.523,-1.652 5.555,0 10.059,4.503 10.059,10.058 0,2.043 -0.609,3.94 -1.65,5.522 2.729,-1.797 4.531,-4.894 4.531,-8.405 0,-5.548 -4.504,-10.053 -10.057,-10.053 z m 7.17,5.342 c -0.434,0.394 -1.338,0.11 -2.021,-0.635 -0.676,-0.748 -0.881,-1.672 -0.445,-2.066 0.436,-0.401 1.336,-0.117 2.021,0.629 0.679,0.742 0.879,1.675 0.445,2.072 z M 93.036,50.715 c -3.596,0 -6.764,1.851 -8.605,4.644 1.621,-1.066 3.564,-1.688 5.656,-1.688 5.686,0 10.297,4.609 10.297,10.295 0,2.088 -0.625,4.031 -1.691,5.652 2.797,-1.842 4.643,-5.011 4.643,-8.604 -0.001,-5.686 -4.614,-10.299 -10.3,-10.299 z m 7.342,5.473 c -0.447,0.401 -1.371,0.113 -2.066,-0.649 -0.697,-0.763 -0.906,-1.712 -0.457,-2.118 0.445,-0.409 1.369,-0.116 2.064,0.646 0.697,0.762 0.9,1.716 0.459,2.121 z M 82.345,31.602 c -3.595,0 -6.765,1.848 -8.604,4.641 1.619,-1.066 3.563,-1.69 5.654,-1.69 5.685,0 10.3,4.608 10.3,10.295 0,2.09 -0.627,4.033 -1.695,5.654 2.795,-1.84 4.641,-5.011 4.641,-8.604 C 92.64,36.215 88.028,31.602 82.345,31.602 z m 7.34,5.468 c -0.445,0.406 -1.367,0.112 -2.064,-0.649 -0.699,-0.763 -0.906,-1.71 -0.459,-2.113 0.447,-0.412 1.369,-0.121 2.064,0.641 0.697,0.764 0.902,1.716 0.459,2.121 z m 7.134,9.841 c -3.51,0 -6.607,1.806 -8.404,4.532 1.584,-1.04 3.48,-1.65 5.521,-1.65 5.553,0 10.061,4.503 10.061,10.056 0,2.043 -0.611,3.939 -1.654,5.522 2.73,-1.797 4.535,-4.896 4.535,-8.402 0,-5.553 -4.506,-10.058 -10.059,-10.058 z m 7.172,5.344 c -0.438,0.396 -1.338,0.11 -2.021,-0.635 -0.682,-0.746 -0.885,-1.67 -0.445,-2.064 0.436,-0.401 1.338,-0.117 2.016,0.629 0.681,0.743 0.88,1.675 0.45,2.07 z m 7.461,9.275 c -3.428,0 -6.447,1.764 -8.205,4.427 1.547,-1.016 3.398,-1.614 5.395,-1.614 5.42,0 9.814,4.399 9.814,9.817 0,1.996 -0.596,3.847 -1.613,5.391 2.668,-1.754 4.428,-4.774 4.428,-8.203 0,-5.418 -4.397,-9.818 -9.819,-9.818 z m 7,5.217 c -0.426,0.385 -1.305,0.108 -1.973,-0.618 -0.664,-0.729 -0.861,-1.631 -0.438,-2.018 0.428,-0.393 1.309,-0.114 1.973,0.611 0.667,0.727 0.858,1.638 0.438,2.025 z" />
			</g>
		</g>
		<g
   id="g4747">
			
			<g
   id="g4749">
				<text
   style="font-size:20.66720009px;fill:#ffffff;font-family:Calibri-Bold"
   id="text4751"
   font-size="20.6672"
   transform="matrix(1.0002,0,0,1,29.3984,127.5029)">Campaign</text>


			</g>
		</g>
		<linearGradient
   y2="2.9145999"
   x2="72.000504"
   y1="123.8174"
   x1="72.000504"
   gradientUnits="userSpaceOnUse"
   id="idCampaignCurveOpacityGradient">
			<stop
   id="stop4754"
   style="stop-color:#FFFFFF;stop-opacity:0.1"
   offset="0" />
			<stop
   id="stop4756"
   style="stop-color:#FFFFFF;stop-opacity:0.2"
   offset="1" />
		</linearGradient>
		<path
   inkscape:connector-curvature="0"
   style="fill:url(#linearGradient17267)"
   id="path4758"
   d="M 123.813,2.914 H 20.186 c -9.503,0 -17.272,7.768 -17.272,17.271 V 123.818 C 14.62,20.68 141.087,20.185 141.087,20.185 c 0,-9.503 -7.766,-17.271 -17.274,-17.271 z" />
	</g>
</switch></g><g
       transform="translate(-256.1017,-5.491529)"
       id="g5673"><rect
         style="fill:#000000"
         id="rect5675"
         width="145.22034"
         height="144.61017"
         x="-0.61017209"
         y="3.4914178e-06"
         ry="19.830509" /><switch
         id="switch5677"
         transform="matrix(0.98305073,0,0,0.98305085,1.220339,2.440678)">
	<g
   id="g5679">
		<g
   id="g5681">
			<g
   id="g5683">
				<linearGradient
   id="linearGradient5685"
   gradientUnits="userSpaceOnUse"
   x1="72"
   y1="144"
   x2="72"
   y2="0.00048828131">
					<stop
   offset="0"
   style="stop-color:#000000"
   id="stop5687" />
					<stop
   offset="0.0715"
   style="stop-color:#001017"
   id="stop5689" />
					<stop
   offset="0.2107"
   style="stop-color:#002A3F"
   id="stop5691" />
					<stop
   offset="0.3546"
   style="stop-color:#00405F"
   id="stop5693" />
					<stop
   offset="0.5022"
   style="stop-color:#005179"
   id="stop5695" />
					<stop
   offset="0.655"
   style="stop-color:#005D8B"
   id="stop5697" />
					<stop
   offset="0.8162"
   style="stop-color:#006496"
   id="stop5699" />
					<stop
   offset="1"
   style="stop-color:#006699"
   id="stop5701" />
				</linearGradient>
				<path
   d="M 125.999,0 H 18 C 8.096,0 0,8.097 0,17.997 V 126.001 C 0,135.905 8.096,144 18,144 h 107.999 c 9.906,0 18,-8.095 18,-17.999 V 17.997 c 0,-9.9 -8.094,-17.997 -18,-17.997 z"
   id="path5703"
   style="fill:url(#linearGradient17269)"
   inkscape:connector-curvature="0" />
			</g>
			<defs
   id="defs5705">
				<filter
   id="filter5707"
   filterUnits="userSpaceOnUse"
   x="0"
   y="0"
   width="143.99899"
   height="144"
   color-interpolation-filters="sRGB">
					
						<feColorMatrix
   type="matrix"
   values="-1 0 0 0 1  0 -1 0 0 1  0 0 -1 0 1  0 0 0 1 0"
   color-interpolation-filters="sRGB"
   result="source"
   id="feColorMatrix5709" />
				</filter>
			</defs>
			<mask
   maskUnits="userSpaceOnUse"
   x="0"
   y="0"
   width="143.999"
   height="144"
   id="mask5711">
				<g
   id="g5713"
   style="filter:url(#idCampaignFilter)">
					
				</g>
			</mask>
			<g
   mask="url(#idCampaignMask)"
   id="g5715"
   style="opacity:0.6">
				<path
   d="M 125.999,0 H 18 C 8.096,0 0,8.097 0,17.997 V 126.001 C 0,135.905 8.096,144 18,144 h 107.999 c 9.906,0 18,-8.095 18,-17.999 V 17.997 c 0,-9.9 -8.094,-17.997 -18,-17.997 z"
   id="path5717"
   inkscape:connector-curvature="0" />
			</g>
		</g>
		<g
   id="g5719">
			
			<g
   id="g5721">
				<path
   d="m 56.007,35.463 c -5.825,0 -10.545,4.728 -10.545,10.55 0,5.822 4.72,10.548 10.545,10.548 5.825,0 10.55,-4.726 10.55,-10.548 0,-5.822 -4.724,-10.55 -10.55,-10.55 z m 5.403,4.94 c -0.714,-0.782 -0.927,-1.75 -0.468,-2.169 0.457,-0.421 1.402,-0.121 2.116,0.661 0.716,0.781 0.922,1.756 0.472,2.173 -0.459,0.411 -1.405,0.115 -2.12,-0.665 z m -16.77,14.18 c -5.809,0 -10.535,4.724 -10.535,10.548 0,5.822 4.727,10.548 10.535,10.548 5.815,0 10.543,-4.726 10.543,-10.548 0,-5.824 -4.727,-10.548 -10.543,-10.548 z m 5.398,4.937 c -0.719,-0.779 -0.931,-1.753 -0.472,-2.167 0.456,-0.42 1.404,-0.123 2.118,0.658 0.714,0.784 0.922,1.759 0.469,2.173 -0.456,0.417 -1.404,0.117 -2.115,-0.664 z m 16.625,-4.937 c -5.822,0 -10.55,4.724 -10.55,10.548 0,5.822 4.728,10.548 10.55,10.548 5.825,0 10.552,-4.726 10.552,-10.548 0,-5.824 -4.727,-10.548 -10.552,-10.548 z m 5.402,4.937 c -0.711,-0.779 -0.926,-1.753 -0.467,-2.167 0.457,-0.42 1.404,-0.123 2.119,0.658 0.713,0.784 0.922,1.759 0.471,2.173 -0.461,0.417 -1.404,0.117 -2.123,-0.664 z m 27.457,14.292 c -5.824,0 -10.549,4.724 -10.549,10.55 0,5.822 4.725,10.546 10.549,10.546 5.822,0 10.549,-4.724 10.549,-10.546 0,-5.827 -4.726,-10.55 -10.549,-10.55 z m 5.403,4.938 c -0.715,-0.781 -0.928,-1.754 -0.469,-2.169 0.457,-0.42 1.402,-0.121 2.119,0.661 0.713,0.781 0.924,1.757 0.469,2.175 -0.457,0.412 -1.406,0.112 -2.119,-0.667 z M 88.757,54.583 c -5.822,0 -10.55,4.726 -10.55,10.55 0,5.824 4.728,10.548 10.55,10.548 5.828,0 10.551,-4.724 10.551,-10.548 0,-5.824 -4.723,-10.55 -10.551,-10.55 z m 5.404,4.94 c -0.713,-0.779 -0.93,-1.754 -0.467,-2.169 0.455,-0.42 1.402,-0.121 2.113,0.661 0.717,0.779 0.924,1.759 0.473,2.171 -0.459,0.418 -1.404,0.117 -2.119,-0.663 z M 78.066,35.467 c -5.825,0 -10.551,4.726 -10.551,10.548 0,5.826 4.727,10.55 10.551,10.55 5.823,0 10.548,-4.724 10.548,-10.55 0,-5.823 -4.724,-10.548 -10.548,-10.548 z m 5.402,4.938 c -0.715,-0.779 -0.928,-1.752 -0.469,-2.167 0.457,-0.42 1.404,-0.121 2.117,0.659 0.715,0.781 0.922,1.759 0.471,2.177 -0.459,0.412 -1.404,0.113 -2.119,-0.669 z m -6.075,33.407 c -5.825,0 -10.551,4.724 -10.551,10.55 0,5.822 4.727,10.546 10.551,10.546 5.823,0 10.548,-4.724 10.548,-10.546 -0.001,-5.827 -4.725,-10.55 -10.548,-10.55 z m 5.403,4.938 c -0.714,-0.781 -0.929,-1.754 -0.469,-2.169 0.455,-0.42 1.4,-0.121 2.117,0.661 0.717,0.781 0.922,1.757 0.469,2.175 -0.457,0.412 -1.404,0.112 -2.117,-0.667 z M 55.325,73.812 c -5.825,0 -10.542,4.724 -10.542,10.55 0,5.822 4.717,10.546 10.542,10.546 5.825,0 10.55,-4.724 10.55,-10.546 0,-5.827 -4.725,-10.55 -10.55,-10.55 z m 5.402,4.938 c -0.714,-0.781 -0.928,-1.754 -0.469,-2.169 0.458,-0.42 1.403,-0.121 2.12,0.661 0.714,0.781 0.922,1.757 0.469,2.175 -0.459,0.412 -1.406,0.112 -2.12,-0.667 z M 33.281,73.812 c -5.825,0 -10.55,4.724 -10.55,10.55 0,5.822 4.725,10.546 10.55,10.546 5.824,0 10.539,-4.724 10.539,-10.546 0,-5.827 -4.715,-10.55 -10.539,-10.55 z m 5.402,4.938 c -0.714,-0.781 -0.926,-1.754 -0.47,-2.169 0.459,-0.42 1.403,-0.121 2.119,0.661 0.714,0.781 0.922,1.757 0.47,2.175 -0.458,0.412 -1.406,0.112 -2.119,-0.667 z M 67.336,16.363 c -5.825,0 -10.55,4.727 -10.55,10.548 0,5.826 4.725,10.548 10.55,10.548 5.826,0 10.548,-4.722 10.548,-10.548 C 77.885,21.09 73.162,16.363 67.336,16.363 z m 5.405,4.939 c -0.714,-0.779 -0.931,-1.755 -0.472,-2.166 0.457,-0.419 1.405,-0.121 2.118,0.658 0.715,0.781 0.922,1.759 0.473,2.173 -0.46,0.416 -1.405,0.116 -2.119,-0.665 z m 31.061,48.339 c -3.594,0 -6.764,1.848 -8.605,4.643 1.621,-1.066 3.563,-1.692 5.652,-1.692 5.688,0 10.299,4.611 10.299,10.297 0,2.092 -0.623,4.031 -1.689,5.654 2.793,-1.842 4.641,-5.013 4.641,-8.604 -10e-4,-5.685 -4.615,-10.298 -10.298,-10.298 z m 7.34,5.47 c -0.445,0.404 -1.367,0.11 -2.064,-0.651 -0.699,-0.761 -0.91,-1.708 -0.459,-2.116 0.445,-0.409 1.367,-0.118 2.066,0.646 0.697,0.76 0.898,1.714 0.457,2.121 z m -3.559,-9.517 c -3.51,0 -6.607,1.802 -8.406,4.53 1.586,-1.04 3.484,-1.652 5.523,-1.652 5.555,0 10.059,4.503 10.059,10.058 0,2.043 -0.609,3.94 -1.65,5.522 2.729,-1.797 4.531,-4.894 4.531,-8.405 0,-5.548 -4.504,-10.053 -10.057,-10.053 z m 7.17,5.342 c -0.434,0.394 -1.338,0.11 -2.021,-0.635 -0.676,-0.748 -0.881,-1.672 -0.445,-2.066 0.436,-0.401 1.336,-0.117 2.021,0.629 0.679,0.742 0.879,1.675 0.445,2.072 z M 93.036,50.715 c -3.596,0 -6.764,1.851 -8.605,4.644 1.621,-1.066 3.564,-1.688 5.656,-1.688 5.686,0 10.297,4.609 10.297,10.295 0,2.088 -0.625,4.031 -1.691,5.652 2.797,-1.842 4.643,-5.011 4.643,-8.604 -0.001,-5.686 -4.614,-10.299 -10.3,-10.299 z m 7.342,5.473 c -0.447,0.401 -1.371,0.113 -2.066,-0.649 -0.697,-0.763 -0.906,-1.712 -0.457,-2.118 0.445,-0.409 1.369,-0.116 2.064,0.646 0.697,0.762 0.9,1.716 0.459,2.121 z M 82.345,31.602 c -3.595,0 -6.765,1.848 -8.604,4.641 1.619,-1.066 3.563,-1.69 5.654,-1.69 5.685,0 10.3,4.608 10.3,10.295 0,2.09 -0.627,4.033 -1.695,5.654 2.795,-1.84 4.641,-5.011 4.641,-8.604 C 92.64,36.215 88.028,31.602 82.345,31.602 z m 7.34,5.468 c -0.445,0.406 -1.367,0.112 -2.064,-0.649 -0.699,-0.763 -0.906,-1.71 -0.459,-2.113 0.447,-0.412 1.369,-0.121 2.064,0.641 0.697,0.764 0.902,1.716 0.459,2.121 z m 7.134,9.841 c -3.51,0 -6.607,1.806 -8.404,4.532 1.584,-1.04 3.48,-1.65 5.521,-1.65 5.553,0 10.061,4.503 10.061,10.056 0,2.043 -0.611,3.939 -1.654,5.522 2.73,-1.797 4.535,-4.896 4.535,-8.402 0,-5.553 -4.506,-10.058 -10.059,-10.058 z m 7.172,5.344 c -0.438,0.396 -1.338,0.11 -2.021,-0.635 -0.682,-0.746 -0.885,-1.67 -0.445,-2.064 0.436,-0.401 1.338,-0.117 2.016,0.629 0.681,0.743 0.88,1.675 0.45,2.07 z m 7.461,9.275 c -3.428,0 -6.447,1.764 -8.205,4.427 1.547,-1.016 3.398,-1.614 5.395,-1.614 5.42,0 9.814,4.399 9.814,9.817 0,1.996 -0.596,3.847 -1.613,5.391 2.668,-1.754 4.428,-4.774 4.428,-8.203 0,-5.418 -4.397,-9.818 -9.819,-9.818 z m 7,5.217 c -0.426,0.385 -1.305,0.108 -1.973,-0.618 -0.664,-0.729 -0.861,-1.631 -0.438,-2.018 0.428,-0.393 1.309,-0.114 1.973,0.611 0.667,0.727 0.858,1.638 0.438,2.025 z"
   id="path5723"
   inkscape:connector-curvature="0"
   style="fill:#ffffff" />
			</g>
		</g>
		<g
   id="g5725">
			
			<g
   id="g5727">
				<text
   transform="matrix(1.0002,0,0,1,29.3984,127.5029)"
   font-size="20.6672"
   id="text5729"
   style="font-size:20.66720009px;fill:#ffffff;font-family:Calibri-Bold">Campaign</text>


			</g>
		</g>
		<linearGradient
   id="linearGradient5731"
   gradientUnits="userSpaceOnUse"
   x1="72.000504"
   y1="123.8174"
   x2="72.000504"
   y2="2.9145999">
			<stop
   offset="0"
   style="stop-color:#FFFFFF;stop-opacity:0.1"
   id="stop5733" />
			<stop
   offset="1"
   style="stop-color:#FFFFFF;stop-opacity:0.2"
   id="stop5735" />
		</linearGradient>
		<path
   d="M 123.813,2.914 H 20.186 c -9.503,0 -17.272,7.768 -17.272,17.271 V 123.818 C 14.62,20.68 141.087,20.185 141.087,20.185 c 0,-9.503 -7.766,-17.271 -17.274,-17.271 z"
   id="path5737"
   style="fill:url(#linearGradient17271)"
   inkscape:connector-curvature="0" />
	</g>
</switch></g></g><g
     transform="translate(-262.98306,3.0508435)"
     id="g5743"><rect
       style="fill:#000000"
       id="rect5745"
       width="145.22034"
       height="144.61017"
       x="-0.61017209"
       y="3.4914178e-06"
       ry="19.830509" /><switch
       id="switch5747"
       transform="matrix(0.98305073,0,0,0.98305085,1.220339,2.440678)">
	<g
   id="g5749">
		<g
   id="g5751">
			<g
   id="g5753">
				<linearGradient
   id="linearGradient5755"
   gradientUnits="userSpaceOnUse"
   x1="72"
   y1="144"
   x2="72"
   y2="0.00048828131">
					<stop
   offset="0"
   style="stop-color:#000000"
   id="stop5757" />
					<stop
   offset="0.0715"
   style="stop-color:#001017"
   id="stop5759" />
					<stop
   offset="0.2107"
   style="stop-color:#002A3F"
   id="stop5761" />
					<stop
   offset="0.3546"
   style="stop-color:#00405F"
   id="stop5763" />
					<stop
   offset="0.5022"
   style="stop-color:#005179"
   id="stop5765" />
					<stop
   offset="0.655"
   style="stop-color:#005D8B"
   id="stop5767" />
					<stop
   offset="0.8162"
   style="stop-color:#006496"
   id="stop5769" />
					<stop
   offset="1"
   style="stop-color:#006699"
   id="stop5771" />
				</linearGradient>
				<path
   d="M 125.999,0 H 18 C 8.096,0 0,8.097 0,17.997 V 126.001 C 0,135.905 8.096,144 18,144 h 107.999 c 9.906,0 18,-8.095 18,-17.999 V 17.997 c 0,-9.9 -8.094,-17.997 -18,-17.997 z"
   id="path5773"
   style="fill:url(#linearGradient17273)"
   inkscape:connector-curvature="0" />
			</g>
			<defs
   id="defs5775">
				<filter
   id="filter5777"
   filterUnits="userSpaceOnUse"
   x="0"
   y="0"
   width="143.99899"
   height="144"
   color-interpolation-filters="sRGB">
					
						<feColorMatrix
   type="matrix"
   values="-1 0 0 0 1  0 -1 0 0 1  0 0 -1 0 1  0 0 0 1 0"
   color-interpolation-filters="sRGB"
   result="source"
   id="feColorMatrix5779" />
				</filter>
			</defs>
			<mask
   maskUnits="userSpaceOnUse"
   x="0"
   y="0"
   width="143.999"
   height="144"
   id="mask5781">
				<g
   id="g5783"
   style="filter:url(#idCampaignFilter)">
					
				</g>
			</mask>
			<g
   mask="url(#idCampaignMask)"
   id="g5785"
   style="opacity:0.6">
				<path
   d="M 125.999,0 H 18 C 8.096,0 0,8.097 0,17.997 V 126.001 C 0,135.905 8.096,144 18,144 h 107.999 c 9.906,0 18,-8.095 18,-17.999 V 17.997 c 0,-9.9 -8.094,-17.997 -18,-17.997 z"
   id="path5787"
   inkscape:connector-curvature="0" />
			</g>
		</g>
		<g
   id="g5789">
			
			<g
   id="g5791">
				<path
   d="m 56.007,35.463 c -5.825,0 -10.545,4.728 -10.545,10.55 0,5.822 4.72,10.548 10.545,10.548 5.825,0 10.55,-4.726 10.55,-10.548 0,-5.822 -4.724,-10.55 -10.55,-10.55 z m 5.403,4.94 c -0.714,-0.782 -0.927,-1.75 -0.468,-2.169 0.457,-0.421 1.402,-0.121 2.116,0.661 0.716,0.781 0.922,1.756 0.472,2.173 -0.459,0.411 -1.405,0.115 -2.12,-0.665 z m -16.77,14.18 c -5.809,0 -10.535,4.724 -10.535,10.548 0,5.822 4.727,10.548 10.535,10.548 5.815,0 10.543,-4.726 10.543,-10.548 0,-5.824 -4.727,-10.548 -10.543,-10.548 z m 5.398,4.937 c -0.719,-0.779 -0.931,-1.753 -0.472,-2.167 0.456,-0.42 1.404,-0.123 2.118,0.658 0.714,0.784 0.922,1.759 0.469,2.173 -0.456,0.417 -1.404,0.117 -2.115,-0.664 z m 16.625,-4.937 c -5.822,0 -10.55,4.724 -10.55,10.548 0,5.822 4.728,10.548 10.55,10.548 5.825,0 10.552,-4.726 10.552,-10.548 0,-5.824 -4.727,-10.548 -10.552,-10.548 z m 5.402,4.937 c -0.711,-0.779 -0.926,-1.753 -0.467,-2.167 0.457,-0.42 1.404,-0.123 2.119,0.658 0.713,0.784 0.922,1.759 0.471,2.173 -0.461,0.417 -1.404,0.117 -2.123,-0.664 z m 27.457,14.292 c -5.824,0 -10.549,4.724 -10.549,10.55 0,5.822 4.725,10.546 10.549,10.546 5.822,0 10.549,-4.724 10.549,-10.546 0,-5.827 -4.726,-10.55 -10.549,-10.55 z m 5.403,4.938 c -0.715,-0.781 -0.928,-1.754 -0.469,-2.169 0.457,-0.42 1.402,-0.121 2.119,0.661 0.713,0.781 0.924,1.757 0.469,2.175 -0.457,0.412 -1.406,0.112 -2.119,-0.667 z M 88.757,54.583 c -5.822,0 -10.55,4.726 -10.55,10.55 0,5.824 4.728,10.548 10.55,10.548 5.828,0 10.551,-4.724 10.551,-10.548 0,-5.824 -4.723,-10.55 -10.551,-10.55 z m 5.404,4.94 c -0.713,-0.779 -0.93,-1.754 -0.467,-2.169 0.455,-0.42 1.402,-0.121 2.113,0.661 0.717,0.779 0.924,1.759 0.473,2.171 -0.459,0.418 -1.404,0.117 -2.119,-0.663 z M 78.066,35.467 c -5.825,0 -10.551,4.726 -10.551,10.548 0,5.826 4.727,10.55 10.551,10.55 5.823,0 10.548,-4.724 10.548,-10.55 0,-5.823 -4.724,-10.548 -10.548,-10.548 z m 5.402,4.938 c -0.715,-0.779 -0.928,-1.752 -0.469,-2.167 0.457,-0.42 1.404,-0.121 2.117,0.659 0.715,0.781 0.922,1.759 0.471,2.177 -0.459,0.412 -1.404,0.113 -2.119,-0.669 z m -6.075,33.407 c -5.825,0 -10.551,4.724 -10.551,10.55 0,5.822 4.727,10.546 10.551,10.546 5.823,0 10.548,-4.724 10.548,-10.546 -0.001,-5.827 -4.725,-10.55 -10.548,-10.55 z m 5.403,4.938 c -0.714,-0.781 -0.929,-1.754 -0.469,-2.169 0.455,-0.42 1.4,-0.121 2.117,0.661 0.717,0.781 0.922,1.757 0.469,2.175 -0.457,0.412 -1.404,0.112 -2.117,-0.667 z M 55.325,73.812 c -5.825,0 -10.542,4.724 -10.542,10.55 0,5.822 4.717,10.546 10.542,10.546 5.825,0 10.55,-4.724 10.55,-10.546 0,-5.827 -4.725,-10.55 -10.55,-10.55 z m 5.402,4.938 c -0.714,-0.781 -0.928,-1.754 -0.469,-2.169 0.458,-0.42 1.403,-0.121 2.12,0.661 0.714,0.781 0.922,1.757 0.469,2.175 -0.459,0.412 -1.406,0.112 -2.12,-0.667 z M 33.281,73.812 c -5.825,0 -10.55,4.724 -10.55,10.55 0,5.822 4.725,10.546 10.55,10.546 5.824,0 10.539,-4.724 10.539,-10.546 0,-5.827 -4.715,-10.55 -10.539,-10.55 z m 5.402,4.938 c -0.714,-0.781 -0.926,-1.754 -0.47,-2.169 0.459,-0.42 1.403,-0.121 2.119,0.661 0.714,0.781 0.922,1.757 0.47,2.175 -0.458,0.412 -1.406,0.112 -2.119,-0.667 z M 67.336,16.363 c -5.825,0 -10.55,4.727 -10.55,10.548 0,5.826 4.725,10.548 10.55,10.548 5.826,0 10.548,-4.722 10.548,-10.548 C 77.885,21.09 73.162,16.363 67.336,16.363 z m 5.405,4.939 c -0.714,-0.779 -0.931,-1.755 -0.472,-2.166 0.457,-0.419 1.405,-0.121 2.118,0.658 0.715,0.781 0.922,1.759 0.473,2.173 -0.46,0.416 -1.405,0.116 -2.119,-0.665 z m 31.061,48.339 c -3.594,0 -6.764,1.848 -8.605,4.643 1.621,-1.066 3.563,-1.692 5.652,-1.692 5.688,0 10.299,4.611 10.299,10.297 0,2.092 -0.623,4.031 -1.689,5.654 2.793,-1.842 4.641,-5.013 4.641,-8.604 -10e-4,-5.685 -4.615,-10.298 -10.298,-10.298 z m 7.34,5.47 c -0.445,0.404 -1.367,0.11 -2.064,-0.651 -0.699,-0.761 -0.91,-1.708 -0.459,-2.116 0.445,-0.409 1.367,-0.118 2.066,0.646 0.697,0.76 0.898,1.714 0.457,2.121 z m -3.559,-9.517 c -3.51,0 -6.607,1.802 -8.406,4.53 1.586,-1.04 3.484,-1.652 5.523,-1.652 5.555,0 10.059,4.503 10.059,10.058 0,2.043 -0.609,3.94 -1.65,5.522 2.729,-1.797 4.531,-4.894 4.531,-8.405 0,-5.548 -4.504,-10.053 -10.057,-10.053 z m 7.17,5.342 c -0.434,0.394 -1.338,0.11 -2.021,-0.635 -0.676,-0.748 -0.881,-1.672 -0.445,-2.066 0.436,-0.401 1.336,-0.117 2.021,0.629 0.679,0.742 0.879,1.675 0.445,2.072 z M 93.036,50.715 c -3.596,0 -6.764,1.851 -8.605,4.644 1.621,-1.066 3.564,-1.688 5.656,-1.688 5.686,0 10.297,4.609 10.297,10.295 0,2.088 -0.625,4.031 -1.691,5.652 2.797,-1.842 4.643,-5.011 4.643,-8.604 -0.001,-5.686 -4.614,-10.299 -10.3,-10.299 z m 7.342,5.473 c -0.447,0.401 -1.371,0.113 -2.066,-0.649 -0.697,-0.763 -0.906,-1.712 -0.457,-2.118 0.445,-0.409 1.369,-0.116 2.064,0.646 0.697,0.762 0.9,1.716 0.459,2.121 z M 82.345,31.602 c -3.595,0 -6.765,1.848 -8.604,4.641 1.619,-1.066 3.563,-1.69 5.654,-1.69 5.685,0 10.3,4.608 10.3,10.295 0,2.09 -0.627,4.033 -1.695,5.654 2.795,-1.84 4.641,-5.011 4.641,-8.604 C 92.64,36.215 88.028,31.602 82.345,31.602 z m 7.34,5.468 c -0.445,0.406 -1.367,0.112 -2.064,-0.649 -0.699,-0.763 -0.906,-1.71 -0.459,-2.113 0.447,-0.412 1.369,-0.121 2.064,0.641 0.697,0.764 0.902,1.716 0.459,2.121 z m 7.134,9.841 c -3.51,0 -6.607,1.806 -8.404,4.532 1.584,-1.04 3.48,-1.65 5.521,-1.65 5.553,0 10.061,4.503 10.061,10.056 0,2.043 -0.611,3.939 -1.654,5.522 2.73,-1.797 4.535,-4.896 4.535,-8.402 0,-5.553 -4.506,-10.058 -10.059,-10.058 z m 7.172,5.344 c -0.438,0.396 -1.338,0.11 -2.021,-0.635 -0.682,-0.746 -0.885,-1.67 -0.445,-2.064 0.436,-0.401 1.338,-0.117 2.016,0.629 0.681,0.743 0.88,1.675 0.45,2.07 z m 7.461,9.275 c -3.428,0 -6.447,1.764 -8.205,4.427 1.547,-1.016 3.398,-1.614 5.395,-1.614 5.42,0 9.814,4.399 9.814,9.817 0,1.996 -0.596,3.847 -1.613,5.391 2.668,-1.754 4.428,-4.774 4.428,-8.203 0,-5.418 -4.397,-9.818 -9.819,-9.818 z m 7,5.217 c -0.426,0.385 -1.305,0.108 -1.973,-0.618 -0.664,-0.729 -0.861,-1.631 -0.438,-2.018 0.428,-0.393 1.309,-0.114 1.973,0.611 0.667,0.727 0.858,1.638 0.438,2.025 z"
   id="path5793"
   inkscape:connector-curvature="0"
   style="fill:#ffffff" />
			</g>
		</g>
		<g
   id="g5795">
			
			<g
   id="g5797">
				<text
   transform="matrix(1.0002,0,0,1,29.3984,127.5029)"
   font-size="20.6672"
   id="text5799"
   style="font-size:20.66720009px;fill:#ffffff;font-family:Calibri-Bold">Campaign</text>


			</g>
		</g>
		<linearGradient
   id="linearGradient5801"
   gradientUnits="userSpaceOnUse"
   x1="72.000504"
   y1="123.8174"
   x2="72.000504"
   y2="2.9145999">
			<stop
   offset="0"
   style="stop-color:#FFFFFF;stop-opacity:0.1"
   id="stop5803" />
			<stop
   offset="1"
   style="stop-color:#FFFFFF;stop-opacity:0.2"
   id="stop5805" />
		</linearGradient>
		<path
   d="M 123.813,2.914 H 20.186 c -9.503,0 -17.272,7.768 -17.272,17.271 V 123.818 C 14.62,20.68 141.087,20.185 141.087,20.185 c 0,-9.503 -7.766,-17.271 -17.274,-17.271 z"
   id="path5807"
   style="fill:url(#linearGradient17275)"
   inkscape:connector-curvature="0" />
	</g>
</switch></g></g></svg>