<?xml version="1.0" encoding="UTF-8" standalone="no"?>
<!-- Generator: Adobe Illustrator 16.0.3, SVG Export Plug-In . SVG Version: 6.00 Build 0)  -->

<svg
   xmlns:dc="http://purl.org/dc/elements/1.1/"
   xmlns:cc="http://creativecommons.org/ns#"
   xmlns:rdf="http://www.w3.org/1999/02/22-rdf-syntax-ns#"
   xmlns:svg="http://www.w3.org/2000/svg"
   xmlns="http://www.w3.org/2000/svg"
   xmlns:xlink="http://www.w3.org/1999/xlink"
   xmlns:sodipodi="http://sodipodi.sourceforge.net/DTD/sodipodi-0.dtd"
   xmlns:inkscape="http://www.inkscape.org/namespaces/inkscape"
   version="1.1"
   id="idCourseOfActionLayer"
   x="0px"
   y="0px"
   width="100%"
   height="100%"
   viewBox="0 0 156.20339 158.0339"
   enable-background="new 0 0 144 144"
   xml:space="preserve"
   inkscape:version="0.48.2 r9819"
   sodipodi:docname="course_of_action.svg"><metadata
   id="metadata9798"><rdf:RDF><cc:Work
       rdf:about=""><dc:format>image/svg+xml</dc:format><dc:type
         rdf:resource="http://purl.org/dc/dcmitype/StillImage" /><dc:title></dc:title></cc:Work></rdf:RDF></metadata><defs
   id="defs9796">
	
<linearGradient
   inkscape:collect="always"
   xlink:href="#idCourseOfActionBackgroundGradient"
   id="linearGradient11002"
   gradientUnits="userSpaceOnUse"
   x1="72.000504"
   y1="144"
   x2="72.000504"
   y2="0.00048828131" /><linearGradient
   inkscape:collect="always"
   xlink:href="#idCourseOfActionCurveOpacityGradient"
   id="linearGradient11004"
   gradientUnits="userSpaceOnUse"
   x1="72.001503"
   y1="123.8164"
   x2="72.001503"
   y2="2.9136" /><linearGradient
   inkscape:collect="always"
   xlink:href="#idCourseOfActionBackgroundGradient"
   id="linearGradient11070"
   gradientUnits="userSpaceOnUse"
   x1="72.000504"
   y1="144"
   x2="72.000504"
   y2="0.00048828131" /><linearGradient
   inkscape:collect="always"
   xlink:href="#idCourseOfActionCurveOpacityGradient"
   id="linearGradient11072"
   gradientUnits="userSpaceOnUse"
   x1="72.001503"
   y1="123.8164"
   x2="72.001503"
   y2="2.9136" /><linearGradient
   inkscape:collect="always"
   xlink:href="#idCourseOfActionBackgroundGradient"
   id="linearGradient11108"
   gradientUnits="userSpaceOnUse"
   x1="72.000504"
   y1="144"
   x2="72.000504"
   y2="0.00048828131" /><linearGradient
   inkscape:collect="always"
   xlink:href="#idCourseOfActionCurveOpacityGradient"
   id="linearGradient11110"
   gradientUnits="userSpaceOnUse"
   x1="72.001503"
   y1="123.8164"
   x2="72.001503"
   y2="2.9136" /><linearGradient
   inkscape:collect="always"
   xlink:href="#idCourseOfActionBackgroundGradient"
   id="linearGradient11174"
   gradientUnits="userSpaceOnUse"
   x1="72.000504"
   y1="144"
   x2="72.000504"
   y2="0.00048828131" /><linearGradient
   inkscape:collect="always"
   xlink:href="#idCourseOfActionCurveOpacityGradient"
   id="linearGradient11176"
   gradientUnits="userSpaceOnUse"
   x1="72.001503"
   y1="123.8164"
   x2="72.001503"
   y2="2.9136" /><linearGradient
   inkscape:collect="always"
   xlink:href="#idCourseOfActionBackgroundGradient"
   id="linearGradient11240"
   gradientUnits="userSpaceOnUse"
   x1="72.000504"
   y1="144"
   x2="72.000504"
   y2="0.00048828131" /><linearGradient
   inkscape:collect="always"
   xlink:href="#idCourseOfActionCurveOpacityGradient"
   id="linearGradient11242"
   gradientUnits="userSpaceOnUse"
   x1="72.001503"
   y1="123.8164"
   x2="72.001503"
   y2="2.9136" /><linearGradient
   inkscape:collect="always"
   xlink:href="#idCourseOfActionBackgroundGradient"
   id="linearGradient11339"
   gradientUnits="userSpaceOnUse"
   x1="72.000504"
   y1="144"
   x2="72.000504"
   y2="0.00048828131" /><linearGradient
   inkscape:collect="always"
   xlink:href="#idCourseOfActionCurveOpacityGradient"
   id="linearGradient11341"
   gradientUnits="userSpaceOnUse"
   x1="72.001503"
   y1="123.8164"
   x2="72.001503"
   y2="2.9136" /><linearGradient
   inkscape:collect="always"
   xlink:href="#idCourseOfActionBackgroundGradient"
   id="linearGradient11343"
   gradientUnits="userSpaceOnUse"
   x1="72.000504"
   y1="144"
   x2="72.000504"
   y2="0.00048828131" /><linearGradient
   inkscape:collect="always"
   xlink:href="#idCourseOfActionCurveOpacityGradient"
   id="linearGradient11345"
   gradientUnits="userSpaceOnUse"
   x1="72.001503"
   y1="123.8164"
   x2="72.001503"
   y2="2.9136" /><linearGradient
   inkscape:collect="always"
   xlink:href="#idCourseOfActionBackgroundGradient"
   id="linearGradient11347"
   gradientUnits="userSpaceOnUse"
   x1="72.000504"
   y1="144"
   x2="72.000504"
   y2="0.00048828131" /><linearGradient
   inkscape:collect="always"
   xlink:href="#idCourseOfActionCurveOpacityGradient"
   id="linearGradient11349"
   gradientUnits="userSpaceOnUse"
   x1="72.001503"
   y1="123.8164"
   x2="72.001503"
   y2="2.9136" /></defs><sodipodi:namedview
   pagecolor="#ffffff"
   bordercolor="#666666"
   borderopacity="1"
   objecttolerance="10"
   gridtolerance="10"
   guidetolerance="10"
   inkscape:pageopacity="0"
   inkscape:pageshadow="2"
   inkscape:window-width="1605"
   inkscape:window-height="1038"
   id="namedview9794"
   showgrid="false"
   fit-margin-top="0"
   fit-margin-left="0"
   fit-margin-right="0"
   fit-margin-bottom="0"
   inkscape:zoom="1.6388889"
   inkscape:cx="80.542364"
   inkscape:cy="87.254237"
   inkscape:window-x="334"
   inkscape:window-y="108"
   inkscape:window-maximized="0"
   inkscape:current-layer="g9734" />
<g
   id="g9734"
   transform="translate(-253.22035,-26.847453)">
		
		
		<linearGradient
   y2="2.9136"
   x2="72.001503"
   y1="123.8164"
   x1="72.001503"
   gradientUnits="userSpaceOnUse"
   id="idCourseOfActionCurveOpacityGradient">
			<stop
   id="stop9778"
   style="stop-color:#FFFFFF;stop-opacity:0.2"
   offset="0" />
			<stop
   id="stop9780"
   style="stop-color:#FFFFFF;stop-opacity:0.3"
   offset="1" />
		</linearGradient>
		
		<g
   id="g11244"
   transform="translate(254.44068,17.694915)"><g
     transform="translate(4.8813591,8.542368)"
     id="g11178"><rect
       style="fill:#000000"
       id="rect11180"
       width="144.61017"
       height="144"
       x="5.4915299"
       y="0.61017013"
       ry="19.022028" /><g
       id="g11182"
       transform="matrix(0.96610169,0,0,0.94491525,7.9322034,3.0508475)"><g
         id="g11184">
			<g
   id="g11186">
				<linearGradient
   id="linearGradient11188"
   gradientUnits="userSpaceOnUse"
   x1="72.000504"
   y1="144"
   x2="72.000504"
   y2="0.00048828131">
					<stop
   offset="0"
   style="stop-color:#000000"
   id="stop11190" />
					<stop
   offset="0.0715"
   style="stop-color:#081700"
   id="stop11192" />
					<stop
   offset="0.2107"
   style="stop-color:#153F00"
   id="stop11194" />
					<stop
   offset="0.3546"
   style="stop-color:#205F00"
   id="stop11196" />
					<stop
   offset="0.5022"
   style="stop-color:#287900"
   id="stop11198" />
					<stop
   offset="0.655"
   style="stop-color:#2E8B00"
   id="stop11200" />
					<stop
   offset="0.8162"
   style="stop-color:#329600"
   id="stop11202" />
					<stop
   offset="1"
   style="stop-color:#339900"
   id="stop11204" />
				</linearGradient>
				<path
   d="M 126.008,0 H 17.992 C 8.091,0 0,8.095 0,17.998 V 126.002 C 0,135.908 8.091,144 17.992,144 h 108.016 c 9.9,0 17.992,-8.092 17.992,-17.998 V 17.998 C 144,8.095 135.908,0 126.008,0 z"
   id="path11206"
   style="fill:url(#linearGradient11339)"
   inkscape:connector-curvature="0" />
			</g>
			<defs
   id="defs11208">
				<filter
   id="filter11210"
   filterUnits="userSpaceOnUse"
   x="0"
   y="0"
   width="144"
   height="144"
   color-interpolation-filters="sRGB">
					
						<feColorMatrix
   type="matrix"
   values="-1 0 0 0 1  0 -1 0 0 1  0 0 -1 0 1  0 0 0 1 0"
   color-interpolation-filters="sRGB"
   result="source"
   id="feColorMatrix11212" />
				</filter>
			</defs>
			<mask
   maskUnits="userSpaceOnUse"
   x="0"
   y="0"
   width="144"
   height="144"
   id="mask11214">
				<g
   id="g11216"
   style="filter:url(#idCourseOfActionFilter)">
					
				</g>
			</mask>
			<g
   mask="url(#idCourseOfActionMask)"
   id="g11218"
   style="opacity:0.6">
				<path
   d="M 126.008,0 H 17.992 C 8.091,0 0,8.095 0,17.998 V 126.002 C 0,135.908 8.091,144 17.992,144 h 108.016 c 9.9,0 17.992,-8.092 17.992,-17.998 V 17.998 C 144,8.095 135.908,0 126.008,0 z"
   id="path11220"
   inkscape:connector-curvature="0" />
			</g>
		</g><g
         transform="translate(-11.59322,0)"
         id="g11222">
			
			<g
   id="g11224">
				<text
   transform="matrix(0.9996,0,0,1,15.9526,127.4209)"
   font-size="16.3638"
   id="text11226"
   style="font-size:16.36380005px;fill:#ffffff;font-family:Calibri-Bold">Course of Action</text>

			</g>
		</g><path
         d="M 123.824,2.913 H 20.176 C 10.677,2.913 2.912,10.68 2.912,20.184 V 123.817 C 14.612,20.678 141.09,20.184 141.09,20.184 141.09,10.68 133.326,2.913 123.824,2.913 z"
         id="path11228"
         style="fill:url(#linearGradient11341)"
         inkscape:connector-curvature="0" /><g
         id="g11230">
			
			<g
   id="g11232">
				<g
   id="g11234">
					<path
   d="M 98.229,43.283 C 97.362,41.784 95.985,39.956 94.325,38.09 l 9.344,-9.347 c 0.939,0.684 1.885,1.235 2.783,1.613 1.926,0.806 3.486,0.751 4.402,-0.163 0.91,-0.91 0.967,-2.475 0.158,-4.399 -0.705,-1.682 -2.01,-3.526 -3.674,-5.188 -1.664,-1.666 -3.504,-2.973 -5.186,-3.676 -1.924,-0.809 -3.486,-0.751 -4.396,0.159 -0.916,0.914 -0.973,2.476 -0.164,4.4 0.373,0.891 0.914,1.825 1.588,2.751 l -9.35,9.354 c -1.861,-1.656 -3.682,-3.024 -5.174,-3.887 -2.055,-1.19 -3.43,-1.389 -4.199,-0.618 -0.869,0.869 -0.531,2.436 1.063,4.928 0.242,0.38 0.508,0.773 0.799,1.177 L 52.477,65.058 c -1.146,1.147 -0.617,3.203 0.694,5.221 l -4.399,4.399 c -0.656,0.654 -0.423,1.662 0.201,2.599 L 32.914,93.291 c -0.037,0.032 -0.071,0.064 -0.107,0.101 -0.459,0.465 -0.396,0.846 -0.314,1.031 0.039,0.08 0.088,0.159 0.148,0.221 0.436,0.434 1.334,0.267 1.97,-0.007 0.41,-0.176 0.735,-0.394 0.972,-0.627 v 0.003 L 50.674,78.975 c 0.934,0.621 1.942,0.855 2.596,0.201 l 4.388,-4.395 c 2.024,1.327 4.094,1.871 5.247,0.716 L 92.756,45.636 c 0.404,0.289 0.797,0.556 1.176,0.8 2.494,1.594 4.059,1.932 4.928,1.063 0.769,-0.774 0.566,-2.153 -0.631,-4.216 z M 88.426,35 86.36,37.065 c -0.783,-1.334 -0.979,-2.393 -0.654,-2.719 0.271,-0.269 1.276,-0.195 2.72,0.654 z m 2.422,6.57 2.078,-2.082 c 0.873,1.464 0.953,2.485 0.68,2.758 -0.331,0.328 -1.407,0.127 -2.758,-0.676 z m 8.123,-23.26 c 0.744,-0.741 3.898,0.261 7.148,3.516 3.254,3.253 4.256,6.41 3.514,7.149 -0.74,0.741 -3.895,-0.257 -7.148,-3.514 -3.255,-3.255 -4.256,-6.409 -3.514,-7.151 z m 2.295,8.371 c 0.344,0.343 0.691,0.67 1.051,0.979 L 89.42,40.559 c -0.107,-0.084 -0.217,-0.176 -0.322,-0.273 -0.244,-0.231 -0.482,-0.468 -0.723,-0.706 -0.238,-0.244 -0.477,-0.483 -0.709,-0.725 -0.104,-0.12 -0.205,-0.238 -0.301,-0.358 l 12.893,-12.895 c 0.318,0.364 0.654,0.724 1.008,1.079 z m -19.549,3.672 c 0.301,0.017 1.07,0.222 2.463,1.081 0.582,0.356 1.205,0.786 1.859,1.273 -0.566,0.03 -1.045,0.219 -1.398,0.573 -0.352,0.351 -0.543,0.82 -0.576,1.385 -0.295,-0.396 -0.572,-0.783 -0.818,-1.157 -1.229,-1.825 -1.517,-2.801 -1.53,-3.155 z m 3.246,8.115 -10.717,10.716 c -0.855,-0.547 -1.66,-0.911 -2.386,-1.09 L 83.369,36.581 c 0.49,0.618 1.026,1.249 1.594,1.887 z M 34.379,94.104 c -0.275,0.116 -0.664,0.188 -0.854,0 -0.027,-0.03 -0.049,-0.06 -0.063,-0.095 -0.037,-0.082 -0.064,-0.247 0.133,-0.449 0.108,-0.107 0.262,-0.205 0.438,-0.282 0.274,-0.115 0.667,-0.186 0.852,-0.004 0.029,0.029 0.051,0.063 0.065,0.098 0.103,0.244 -0.132,0.543 -0.571,0.732 z M 35.698,92.68 C 35.503,92.527 35.233,92.472 34.946,92.478 L 49.51,77.959 c 0.074,0.082 0.148,0.167 0.231,0.244 0.08,0.082 0.161,0.159 0.246,0.235 L 35.698,92.68 z M 52.188,77.815 C 51.973,77.753 51.498,77.527 50.959,76.986 50.42,76.447 50.193,75.972 50.13,75.757 l 4.077,-4.077 c 0.316,0.373 0.647,0.741 0.995,1.089 0.342,0.342 0.696,0.667 1.06,0.973 l -4.074,4.073 z M 56.421,71.55 C 53.942,69.071 53.247,66.727 53.697,66.275 L 68.782,51.178 c 0.34,1.379 1.335,2.958 2.603,4.354 0.254,0.013 0.507,0.117 0.701,0.309 1.076,1.08 2.262,1.938 3.334,2.42 0.875,0.394 1.545,0.455 1.795,0.481 l -0.428,0.427 c -1.111,0.021 -3.152,-1.016 -5.082,-2.947 -0.208,-0.208 -0.55,-0.208 -0.762,0 -0.211,0.214 -0.211,0.553 0,0.764 1.492,1.496 3.35,2.741 4.896,3.136 l -2.211,2.208 c -0.725,0.01 -1.856,-0.429 -3.021,-1.22 -0.246,-0.166 -0.581,-0.101 -0.749,0.144 -0.145,0.214 -0.114,0.501 0.063,0.683 0.025,0.026 0.053,0.045 0.081,0.065 0.972,0.656 1.88,1.086 2.671,1.285 L 70.461,65.5 c -1.11,0.02 -3.151,-1.015 -5.083,-2.947 -0.208,-0.211 -0.552,-0.211 -0.76,0 -0.213,0.209 -0.213,0.551 0,0.762 1.492,1.496 3.347,2.745 4.895,3.132 l -2.21,2.212 c -0.728,0.009 -1.857,-0.43 -3.021,-1.219 -0.248,-0.167 -0.581,-0.103 -0.751,0.142 -0.143,0.215 -0.115,0.501 0.067,0.688 0.023,0.021 0.049,0.041 0.079,0.064 0.968,0.657 1.878,1.086 2.668,1.284 l -2.21,2.212 c -1.107,0.02 -3.153,-1.015 -5.079,-2.946 -0.21,-0.212 -0.548,-0.212 -0.76,0 -0.208,0.208 -0.208,0.552 0,0.761 1.488,1.496 3.343,2.745 4.891,3.135 l -1.503,1.5 c -0.448,0.449 -2.782,-0.246 -5.263,-2.73 z m 33.02,-25.036 c -1.107,0.019 -3.152,-1.016 -5.082,-2.95 -0.209,-0.208 -0.555,-0.208 -0.764,0 -0.211,0.212 -0.211,0.553 0,0.761 1.492,1.5 3.352,2.745 4.896,3.14 l -2.209,2.205 c -0.727,0.013 -1.855,-0.427 -3.021,-1.217 -0.248,-0.166 -0.582,-0.102 -0.748,0.144 -0.146,0.214 -0.117,0.5 0.066,0.683 0.021,0.021 0.049,0.049 0.078,0.064 0.971,0.657 1.877,1.089 2.668,1.284 l -2.211,2.215 c -1.109,0.021 -3.152,-1.018 -5.084,-2.946 -0.209,-0.211 -0.551,-0.211 -0.76,0 -0.213,0.208 -0.213,0.55 0,0.762 1.494,1.492 3.346,2.744 4.895,3.132 L 79.957,56 c -0.729,0.01 -1.854,-0.429 -3.021,-1.22 -0.246,-0.169 -0.582,-0.101 -0.752,0.144 -0.143,0.215 -0.117,0.501 0.068,0.683 0.023,0.026 0.049,0.046 0.078,0.064 0.971,0.657 1.879,1.091 2.672,1.285 l -0.432,0.433 c -0.107,-0.032 -0.215,-0.067 -0.326,-0.106 -0.018,0.088 -0.049,0.152 -0.09,0.194 -0.137,0.137 -0.688,0.195 -1.641,-0.204 -1.068,-0.446 -2.307,-1.334 -3.4,-2.427 -1.096,-1.096 -1.978,-2.335 -2.427,-3.402 -0.399,-0.955 -0.342,-1.505 -0.204,-1.642 0.21,-0.212 1.118,-0.176 2.514,0.638 l -0.268,0.264 c -0.886,0.884 -0.148,2.409 0.969,3.527 0.568,0.572 1.244,1.042 1.889,1.25 -0.068,-0.29 -0.02,-0.599 0.152,-0.859 0.336,-0.487 1.006,-0.621 1.498,-0.286 1.064,0.719 1.902,1.021 2.42,1.106 -0.205,-0.557 -0.508,-1.148 -0.91,-1.771 l 0.611,-0.607 C 78.89,52.758 78.421,52.411 77.962,52.023 l -1.824,1.821 C 75.927,53.782 75.452,53.555 74.911,53.015 74.372,52.472 74.141,52 74.083,51.786 L 86.124,39.739 c 0.336,0.352 0.68,0.706 1.033,1.058 0.338,0.341 0.68,0.677 1.027,1.001 l -2.365,2.365 c 0.471,0.387 0.955,0.729 1.426,1.008 l 2.205,-2.205 c 0.65,0.579 1.291,1.119 1.92,1.62 l -1.929,1.928 z m 5,-1.806 c -0.373,-0.247 -0.76,-0.523 -1.156,-0.819 0.563,-0.033 1.033,-0.224 1.385,-0.575 0.354,-0.357 0.543,-0.832 0.572,-1.398 0.484,0.646 0.91,1.265 1.266,1.845 0.863,1.404 1.07,2.175 1.088,2.478 -0.354,-0.018 -1.33,-0.301 -3.155,-1.531 z"
   id="path11236"
   inkscape:connector-curvature="0"
   style="fill:#ffffff" />
					<path
   d="m 82.52,49.899 c -0.055,-0.036 -0.109,-0.075 -0.166,-0.111 -0.061,-0.042 -0.109,-0.084 -0.154,-0.13 -0.367,-0.364 -0.42,-0.937 -0.133,-1.362 0.334,-0.491 1.004,-0.624 1.498,-0.293 0.178,0.124 0.354,0.234 0.52,0.332 l 1.596,-1.601 c -0.465,-0.306 -0.93,-0.653 -1.391,-1.041 l -4.8,4.797 c 0.479,0.388 0.961,0.729 1.432,1.009 l 1.598,-1.6 z"
   id="path11238"
   inkscape:connector-curvature="0"
   style="fill:#ffffff" />
				</g>
			</g>
		</g></g></g><g
     id="g11112"
     transform="translate(-1.2203356,14.644068)"><rect
       ry="19.022028"
       y="0.61017013"
       x="5.4915299"
       height="144"
       width="144.61017"
       id="rect11114"
       style="fill:#000000" /><g
       transform="matrix(0.96610169,0,0,0.94491525,7.9322034,3.0508475)"
       id="g11116"><g
         id="g11118">
			<g
   id="g11120">
				<linearGradient
   y2="0.00048828131"
   x2="72.000504"
   y1="144"
   x1="72.000504"
   gradientUnits="userSpaceOnUse"
   id="linearGradient11122">
					<stop
   id="stop11124"
   style="stop-color:#000000"
   offset="0" />
					<stop
   id="stop11126"
   style="stop-color:#081700"
   offset="0.0715" />
					<stop
   id="stop11128"
   style="stop-color:#153F00"
   offset="0.2107" />
					<stop
   id="stop11130"
   style="stop-color:#205F00"
   offset="0.3546" />
					<stop
   id="stop11132"
   style="stop-color:#287900"
   offset="0.5022" />
					<stop
   id="stop11134"
   style="stop-color:#2E8B00"
   offset="0.655" />
					<stop
   id="stop11136"
   style="stop-color:#329600"
   offset="0.8162" />
					<stop
   id="stop11138"
   style="stop-color:#339900"
   offset="1" />
				</linearGradient>
				<path
   inkscape:connector-curvature="0"
   style="fill:url(#linearGradient11343)"
   id="path11140"
   d="M 126.008,0 H 17.992 C 8.091,0 0,8.095 0,17.998 V 126.002 C 0,135.908 8.091,144 17.992,144 h 108.016 c 9.9,0 17.992,-8.092 17.992,-17.998 V 17.998 C 144,8.095 135.908,0 126.008,0 z" />
			</g>
			<defs
   id="defs11142">
				<filter
   color-interpolation-filters="sRGB"
   height="144"
   width="144"
   y="0"
   x="0"
   filterUnits="userSpaceOnUse"
   id="filter11144">
					
						<feColorMatrix
   id="feColorMatrix11146"
   result="source"
   color-interpolation-filters="sRGB"
   values="-1 0 0 0 1  0 -1 0 0 1  0 0 -1 0 1  0 0 0 1 0"
   type="matrix" />
				</filter>
			</defs>
			<mask
   id="mask11148"
   height="144"
   width="144"
   y="0"
   x="0"
   maskUnits="userSpaceOnUse">
				<g
   style="filter:url(#idCourseOfActionFilter)"
   id="g11150">
					
				</g>
			</mask>
			<g
   style="opacity:0.6"
   id="g11152"
   mask="url(#idCourseOfActionMask)">
				<path
   inkscape:connector-curvature="0"
   id="path11154"
   d="M 126.008,0 H 17.992 C 8.091,0 0,8.095 0,17.998 V 126.002 C 0,135.908 8.091,144 17.992,144 h 108.016 c 9.9,0 17.992,-8.092 17.992,-17.998 V 17.998 C 144,8.095 135.908,0 126.008,0 z" />
			</g>
		</g><g
         id="g11156"
         transform="translate(-11.59322,0)">
			
			<g
   id="g11158">
				<text
   style="font-size:16.36380005px;fill:#ffffff;font-family:Calibri-Bold"
   id="text11160"
   font-size="16.3638"
   transform="matrix(0.9996,0,0,1,15.9526,127.4209)">Course of Action</text>

			</g>
		</g><path
         inkscape:connector-curvature="0"
         style="fill:url(#linearGradient11345)"
         id="path11162"
         d="M 123.824,2.913 H 20.176 C 10.677,2.913 2.912,10.68 2.912,20.184 V 123.817 C 14.612,20.678 141.09,20.184 141.09,20.184 141.09,10.68 133.326,2.913 123.824,2.913 z" /><g
         id="g11164">
			
			<g
   id="g11166">
				<g
   id="g11168">
					<path
   style="fill:#ffffff"
   inkscape:connector-curvature="0"
   id="path11170"
   d="M 98.229,43.283 C 97.362,41.784 95.985,39.956 94.325,38.09 l 9.344,-9.347 c 0.939,0.684 1.885,1.235 2.783,1.613 1.926,0.806 3.486,0.751 4.402,-0.163 0.91,-0.91 0.967,-2.475 0.158,-4.399 -0.705,-1.682 -2.01,-3.526 -3.674,-5.188 -1.664,-1.666 -3.504,-2.973 -5.186,-3.676 -1.924,-0.809 -3.486,-0.751 -4.396,0.159 -0.916,0.914 -0.973,2.476 -0.164,4.4 0.373,0.891 0.914,1.825 1.588,2.751 l -9.35,9.354 c -1.861,-1.656 -3.682,-3.024 -5.174,-3.887 -2.055,-1.19 -3.43,-1.389 -4.199,-0.618 -0.869,0.869 -0.531,2.436 1.063,4.928 0.242,0.38 0.508,0.773 0.799,1.177 L 52.477,65.058 c -1.146,1.147 -0.617,3.203 0.694,5.221 l -4.399,4.399 c -0.656,0.654 -0.423,1.662 0.201,2.599 L 32.914,93.291 c -0.037,0.032 -0.071,0.064 -0.107,0.101 -0.459,0.465 -0.396,0.846 -0.314,1.031 0.039,0.08 0.088,0.159 0.148,0.221 0.436,0.434 1.334,0.267 1.97,-0.007 0.41,-0.176 0.735,-0.394 0.972,-0.627 v 0.003 L 50.674,78.975 c 0.934,0.621 1.942,0.855 2.596,0.201 l 4.388,-4.395 c 2.024,1.327 4.094,1.871 5.247,0.716 L 92.756,45.636 c 0.404,0.289 0.797,0.556 1.176,0.8 2.494,1.594 4.059,1.932 4.928,1.063 0.769,-0.774 0.566,-2.153 -0.631,-4.216 z M 88.426,35 86.36,37.065 c -0.783,-1.334 -0.979,-2.393 -0.654,-2.719 0.271,-0.269 1.276,-0.195 2.72,0.654 z m 2.422,6.57 2.078,-2.082 c 0.873,1.464 0.953,2.485 0.68,2.758 -0.331,0.328 -1.407,0.127 -2.758,-0.676 z m 8.123,-23.26 c 0.744,-0.741 3.898,0.261 7.148,3.516 3.254,3.253 4.256,6.41 3.514,7.149 -0.74,0.741 -3.895,-0.257 -7.148,-3.514 -3.255,-3.255 -4.256,-6.409 -3.514,-7.151 z m 2.295,8.371 c 0.344,0.343 0.691,0.67 1.051,0.979 L 89.42,40.559 c -0.107,-0.084 -0.217,-0.176 -0.322,-0.273 -0.244,-0.231 -0.482,-0.468 -0.723,-0.706 -0.238,-0.244 -0.477,-0.483 -0.709,-0.725 -0.104,-0.12 -0.205,-0.238 -0.301,-0.358 l 12.893,-12.895 c 0.318,0.364 0.654,0.724 1.008,1.079 z m -19.549,3.672 c 0.301,0.017 1.07,0.222 2.463,1.081 0.582,0.356 1.205,0.786 1.859,1.273 -0.566,0.03 -1.045,0.219 -1.398,0.573 -0.352,0.351 -0.543,0.82 -0.576,1.385 -0.295,-0.396 -0.572,-0.783 -0.818,-1.157 -1.229,-1.825 -1.517,-2.801 -1.53,-3.155 z m 3.246,8.115 -10.717,10.716 c -0.855,-0.547 -1.66,-0.911 -2.386,-1.09 L 83.369,36.581 c 0.49,0.618 1.026,1.249 1.594,1.887 z M 34.379,94.104 c -0.275,0.116 -0.664,0.188 -0.854,0 -0.027,-0.03 -0.049,-0.06 -0.063,-0.095 -0.037,-0.082 -0.064,-0.247 0.133,-0.449 0.108,-0.107 0.262,-0.205 0.438,-0.282 0.274,-0.115 0.667,-0.186 0.852,-0.004 0.029,0.029 0.051,0.063 0.065,0.098 0.103,0.244 -0.132,0.543 -0.571,0.732 z M 35.698,92.68 C 35.503,92.527 35.233,92.472 34.946,92.478 L 49.51,77.959 c 0.074,0.082 0.148,0.167 0.231,0.244 0.08,0.082 0.161,0.159 0.246,0.235 L 35.698,92.68 z M 52.188,77.815 C 51.973,77.753 51.498,77.527 50.959,76.986 50.42,76.447 50.193,75.972 50.13,75.757 l 4.077,-4.077 c 0.316,0.373 0.647,0.741 0.995,1.089 0.342,0.342 0.696,0.667 1.06,0.973 l -4.074,4.073 z M 56.421,71.55 C 53.942,69.071 53.247,66.727 53.697,66.275 L 68.782,51.178 c 0.34,1.379 1.335,2.958 2.603,4.354 0.254,0.013 0.507,0.117 0.701,0.309 1.076,1.08 2.262,1.938 3.334,2.42 0.875,0.394 1.545,0.455 1.795,0.481 l -0.428,0.427 c -1.111,0.021 -3.152,-1.016 -5.082,-2.947 -0.208,-0.208 -0.55,-0.208 -0.762,0 -0.211,0.214 -0.211,0.553 0,0.764 1.492,1.496 3.35,2.741 4.896,3.136 l -2.211,2.208 c -0.725,0.01 -1.856,-0.429 -3.021,-1.22 -0.246,-0.166 -0.581,-0.101 -0.749,0.144 -0.145,0.214 -0.114,0.501 0.063,0.683 0.025,0.026 0.053,0.045 0.081,0.065 0.972,0.656 1.88,1.086 2.671,1.285 L 70.461,65.5 c -1.11,0.02 -3.151,-1.015 -5.083,-2.947 -0.208,-0.211 -0.552,-0.211 -0.76,0 -0.213,0.209 -0.213,0.551 0,0.762 1.492,1.496 3.347,2.745 4.895,3.132 l -2.21,2.212 c -0.728,0.009 -1.857,-0.43 -3.021,-1.219 -0.248,-0.167 -0.581,-0.103 -0.751,0.142 -0.143,0.215 -0.115,0.501 0.067,0.688 0.023,0.021 0.049,0.041 0.079,0.064 0.968,0.657 1.878,1.086 2.668,1.284 l -2.21,2.212 c -1.107,0.02 -3.153,-1.015 -5.079,-2.946 -0.21,-0.212 -0.548,-0.212 -0.76,0 -0.208,0.208 -0.208,0.552 0,0.761 1.488,1.496 3.343,2.745 4.891,3.135 l -1.503,1.5 c -0.448,0.449 -2.782,-0.246 -5.263,-2.73 z m 33.02,-25.036 c -1.107,0.019 -3.152,-1.016 -5.082,-2.95 -0.209,-0.208 -0.555,-0.208 -0.764,0 -0.211,0.212 -0.211,0.553 0,0.761 1.492,1.5 3.352,2.745 4.896,3.14 l -2.209,2.205 c -0.727,0.013 -1.855,-0.427 -3.021,-1.217 -0.248,-0.166 -0.582,-0.102 -0.748,0.144 -0.146,0.214 -0.117,0.5 0.066,0.683 0.021,0.021 0.049,0.049 0.078,0.064 0.971,0.657 1.877,1.089 2.668,1.284 l -2.211,2.215 c -1.109,0.021 -3.152,-1.018 -5.084,-2.946 -0.209,-0.211 -0.551,-0.211 -0.76,0 -0.213,0.208 -0.213,0.55 0,0.762 1.494,1.492 3.346,2.744 4.895,3.132 L 79.957,56 c -0.729,0.01 -1.854,-0.429 -3.021,-1.22 -0.246,-0.169 -0.582,-0.101 -0.752,0.144 -0.143,0.215 -0.117,0.501 0.068,0.683 0.023,0.026 0.049,0.046 0.078,0.064 0.971,0.657 1.879,1.091 2.672,1.285 l -0.432,0.433 c -0.107,-0.032 -0.215,-0.067 -0.326,-0.106 -0.018,0.088 -0.049,0.152 -0.09,0.194 -0.137,0.137 -0.688,0.195 -1.641,-0.204 -1.068,-0.446 -2.307,-1.334 -3.4,-2.427 -1.096,-1.096 -1.978,-2.335 -2.427,-3.402 -0.399,-0.955 -0.342,-1.505 -0.204,-1.642 0.21,-0.212 1.118,-0.176 2.514,0.638 l -0.268,0.264 c -0.886,0.884 -0.148,2.409 0.969,3.527 0.568,0.572 1.244,1.042 1.889,1.25 -0.068,-0.29 -0.02,-0.599 0.152,-0.859 0.336,-0.487 1.006,-0.621 1.498,-0.286 1.064,0.719 1.902,1.021 2.42,1.106 -0.205,-0.557 -0.508,-1.148 -0.91,-1.771 l 0.611,-0.607 C 78.89,52.758 78.421,52.411 77.962,52.023 l -1.824,1.821 C 75.927,53.782 75.452,53.555 74.911,53.015 74.372,52.472 74.141,52 74.083,51.786 L 86.124,39.739 c 0.336,0.352 0.68,0.706 1.033,1.058 0.338,0.341 0.68,0.677 1.027,1.001 l -2.365,2.365 c 0.471,0.387 0.955,0.729 1.426,1.008 l 2.205,-2.205 c 0.65,0.579 1.291,1.119 1.92,1.62 l -1.929,1.928 z m 5,-1.806 c -0.373,-0.247 -0.76,-0.523 -1.156,-0.819 0.563,-0.033 1.033,-0.224 1.385,-0.575 0.354,-0.357 0.543,-0.832 0.572,-1.398 0.484,0.646 0.91,1.265 1.266,1.845 0.863,1.404 1.07,2.175 1.088,2.478 -0.354,-0.018 -1.33,-0.301 -3.155,-1.531 z" />
					<path
   style="fill:#ffffff"
   inkscape:connector-curvature="0"
   id="path11172"
   d="m 82.52,49.899 c -0.055,-0.036 -0.109,-0.075 -0.166,-0.111 -0.061,-0.042 -0.109,-0.084 -0.154,-0.13 -0.367,-0.364 -0.42,-0.937 -0.133,-1.362 0.334,-0.491 1.004,-0.624 1.498,-0.293 0.178,0.124 0.354,0.234 0.52,0.332 l 1.596,-1.601 c -0.465,-0.306 -0.93,-0.653 -1.391,-1.041 l -4.8,4.797 c 0.479,0.388 0.961,0.729 1.432,1.009 l 1.598,-1.6 z" />
				</g>
			</g>
		</g></g></g><g
     transform="translate(-6.7118644,22.576271)"
     id="g11076"><rect
       style="fill:#000000"
       id="rect11074"
       width="144.61017"
       height="144"
       x="5.4915299"
       y="0.61017013"
       ry="19.022028" /><g
       id="g11040"
       transform="matrix(0.96610169,0,0,0.94491525,7.9322034,3.0508475)"><g
         id="g9736">
			<g
   id="g9738">
				<linearGradient
   id="idCourseOfActionBackgroundGradient"
   gradientUnits="userSpaceOnUse"
   x1="72.000504"
   y1="144"
   x2="72.000504"
   y2="0.00048828131">
					<stop
   offset="0"
   style="stop-color:#000000"
   id="stop9741" />
					<stop
   offset="0.0715"
   style="stop-color:#081700"
   id="stop9743" />
					<stop
   offset="0.2107"
   style="stop-color:#153F00"
   id="stop9745" />
					<stop
   offset="0.3546"
   style="stop-color:#205F00"
   id="stop9747" />
					<stop
   offset="0.5022"
   style="stop-color:#287900"
   id="stop9749" />
					<stop
   offset="0.655"
   style="stop-color:#2E8B00"
   id="stop9751" />
					<stop
   offset="0.8162"
   style="stop-color:#329600"
   id="stop9753" />
					<stop
   offset="1"
   style="stop-color:#339900"
   id="stop9755" />
				</linearGradient>
				<path
   d="M 126.008,0 H 17.992 C 8.091,0 0,8.095 0,17.998 V 126.002 C 0,135.908 8.091,144 17.992,144 h 108.016 c 9.9,0 17.992,-8.092 17.992,-17.998 V 17.998 C 144,8.095 135.908,0 126.008,0 z"
   id="path9757"
   style="fill:url(#linearGradient11347)"
   inkscape:connector-curvature="0" />
			</g>
			<defs
   id="defs9759">
				<filter
   id="idCourseOfActionFilter"
   filterUnits="userSpaceOnUse"
   x="0"
   y="0"
   width="144"
   height="144"
   color-interpolation-filters="sRGB">
					
						<feColorMatrix
   type="matrix"
   values="-1 0 0 0 1  0 -1 0 0 1  0 0 -1 0 1  0 0 0 1 0"
   color-interpolation-filters="sRGB"
   result="source"
   id="feColorMatrix9762" />
				</filter>
			</defs>
			<mask
   maskUnits="userSpaceOnUse"
   x="0"
   y="0"
   width="144"
   height="144"
   id="idCourseOfActionMask">
				<g
   id="g9765"
   style="filter:url(#idCourseOfActionFilter)">
					
				</g>
			</mask>
			<g
   mask="url(#idCourseOfActionMask)"
   id="g9767"
   style="opacity:0.6">
				<path
   d="M 126.008,0 H 17.992 C 8.091,0 0,8.095 0,17.998 V 126.002 C 0,135.908 8.091,144 17.992,144 h 108.016 c 9.9,0 17.992,-8.092 17.992,-17.998 V 17.998 C 144,8.095 135.908,0 126.008,0 z"
   id="path9769"
   inkscape:connector-curvature="0" />
			</g>
		</g><g
         transform="translate(-11.59322,0)"
         id="g9771">
			
			<g
   id="g9773">
				<text
   transform="matrix(0.9996,0,0,1,15.9526,127.4209)"
   font-size="16.3638"
   id="text9775"
   style="font-size:16.36380005px;fill:#ffffff;font-family:Calibri-Bold">Course of Action</text>

			</g>
		</g><path
         d="M 123.824,2.913 H 20.176 C 10.677,2.913 2.912,10.68 2.912,20.184 V 123.817 C 14.612,20.678 141.09,20.184 141.09,20.184 141.09,10.68 133.326,2.913 123.824,2.913 z"
         id="path9782"
         style="fill:url(#linearGradient11349)"
         inkscape:connector-curvature="0" /><g
         id="g9784">
			
			<g
   id="g9786">
				<g
   id="g9788">
					<path
   d="M 98.229,43.283 C 97.362,41.784 95.985,39.956 94.325,38.09 l 9.344,-9.347 c 0.939,0.684 1.885,1.235 2.783,1.613 1.926,0.806 3.486,0.751 4.402,-0.163 0.91,-0.91 0.967,-2.475 0.158,-4.399 -0.705,-1.682 -2.01,-3.526 -3.674,-5.188 -1.664,-1.666 -3.504,-2.973 -5.186,-3.676 -1.924,-0.809 -3.486,-0.751 -4.396,0.159 -0.916,0.914 -0.973,2.476 -0.164,4.4 0.373,0.891 0.914,1.825 1.588,2.751 l -9.35,9.354 c -1.861,-1.656 -3.682,-3.024 -5.174,-3.887 -2.055,-1.19 -3.43,-1.389 -4.199,-0.618 -0.869,0.869 -0.531,2.436 1.063,4.928 0.242,0.38 0.508,0.773 0.799,1.177 L 52.477,65.058 c -1.146,1.147 -0.617,3.203 0.694,5.221 l -4.399,4.399 c -0.656,0.654 -0.423,1.662 0.201,2.599 L 32.914,93.291 c -0.037,0.032 -0.071,0.064 -0.107,0.101 -0.459,0.465 -0.396,0.846 -0.314,1.031 0.039,0.08 0.088,0.159 0.148,0.221 0.436,0.434 1.334,0.267 1.97,-0.007 0.41,-0.176 0.735,-0.394 0.972,-0.627 v 0.003 L 50.674,78.975 c 0.934,0.621 1.942,0.855 2.596,0.201 l 4.388,-4.395 c 2.024,1.327 4.094,1.871 5.247,0.716 L 92.756,45.636 c 0.404,0.289 0.797,0.556 1.176,0.8 2.494,1.594 4.059,1.932 4.928,1.063 0.769,-0.774 0.566,-2.153 -0.631,-4.216 z M 88.426,35 86.36,37.065 c -0.783,-1.334 -0.979,-2.393 -0.654,-2.719 0.271,-0.269 1.276,-0.195 2.72,0.654 z m 2.422,6.57 2.078,-2.082 c 0.873,1.464 0.953,2.485 0.68,2.758 -0.331,0.328 -1.407,0.127 -2.758,-0.676 z m 8.123,-23.26 c 0.744,-0.741 3.898,0.261 7.148,3.516 3.254,3.253 4.256,6.41 3.514,7.149 -0.74,0.741 -3.895,-0.257 -7.148,-3.514 -3.255,-3.255 -4.256,-6.409 -3.514,-7.151 z m 2.295,8.371 c 0.344,0.343 0.691,0.67 1.051,0.979 L 89.42,40.559 c -0.107,-0.084 -0.217,-0.176 -0.322,-0.273 -0.244,-0.231 -0.482,-0.468 -0.723,-0.706 -0.238,-0.244 -0.477,-0.483 -0.709,-0.725 -0.104,-0.12 -0.205,-0.238 -0.301,-0.358 l 12.893,-12.895 c 0.318,0.364 0.654,0.724 1.008,1.079 z m -19.549,3.672 c 0.301,0.017 1.07,0.222 2.463,1.081 0.582,0.356 1.205,0.786 1.859,1.273 -0.566,0.03 -1.045,0.219 -1.398,0.573 -0.352,0.351 -0.543,0.82 -0.576,1.385 -0.295,-0.396 -0.572,-0.783 -0.818,-1.157 -1.229,-1.825 -1.517,-2.801 -1.53,-3.155 z m 3.246,8.115 -10.717,10.716 c -0.855,-0.547 -1.66,-0.911 -2.386,-1.09 L 83.369,36.581 c 0.49,0.618 1.026,1.249 1.594,1.887 z M 34.379,94.104 c -0.275,0.116 -0.664,0.188 -0.854,0 -0.027,-0.03 -0.049,-0.06 -0.063,-0.095 -0.037,-0.082 -0.064,-0.247 0.133,-0.449 0.108,-0.107 0.262,-0.205 0.438,-0.282 0.274,-0.115 0.667,-0.186 0.852,-0.004 0.029,0.029 0.051,0.063 0.065,0.098 0.103,0.244 -0.132,0.543 -0.571,0.732 z M 35.698,92.68 C 35.503,92.527 35.233,92.472 34.946,92.478 L 49.51,77.959 c 0.074,0.082 0.148,0.167 0.231,0.244 0.08,0.082 0.161,0.159 0.246,0.235 L 35.698,92.68 z M 52.188,77.815 C 51.973,77.753 51.498,77.527 50.959,76.986 50.42,76.447 50.193,75.972 50.13,75.757 l 4.077,-4.077 c 0.316,0.373 0.647,0.741 0.995,1.089 0.342,0.342 0.696,0.667 1.06,0.973 l -4.074,4.073 z M 56.421,71.55 C 53.942,69.071 53.247,66.727 53.697,66.275 L 68.782,51.178 c 0.34,1.379 1.335,2.958 2.603,4.354 0.254,0.013 0.507,0.117 0.701,0.309 1.076,1.08 2.262,1.938 3.334,2.42 0.875,0.394 1.545,0.455 1.795,0.481 l -0.428,0.427 c -1.111,0.021 -3.152,-1.016 -5.082,-2.947 -0.208,-0.208 -0.55,-0.208 -0.762,0 -0.211,0.214 -0.211,0.553 0,0.764 1.492,1.496 3.35,2.741 4.896,3.136 l -2.211,2.208 c -0.725,0.01 -1.856,-0.429 -3.021,-1.22 -0.246,-0.166 -0.581,-0.101 -0.749,0.144 -0.145,0.214 -0.114,0.501 0.063,0.683 0.025,0.026 0.053,0.045 0.081,0.065 0.972,0.656 1.88,1.086 2.671,1.285 L 70.461,65.5 c -1.11,0.02 -3.151,-1.015 -5.083,-2.947 -0.208,-0.211 -0.552,-0.211 -0.76,0 -0.213,0.209 -0.213,0.551 0,0.762 1.492,1.496 3.347,2.745 4.895,3.132 l -2.21,2.212 c -0.728,0.009 -1.857,-0.43 -3.021,-1.219 -0.248,-0.167 -0.581,-0.103 -0.751,0.142 -0.143,0.215 -0.115,0.501 0.067,0.688 0.023,0.021 0.049,0.041 0.079,0.064 0.968,0.657 1.878,1.086 2.668,1.284 l -2.21,2.212 c -1.107,0.02 -3.153,-1.015 -5.079,-2.946 -0.21,-0.212 -0.548,-0.212 -0.76,0 -0.208,0.208 -0.208,0.552 0,0.761 1.488,1.496 3.343,2.745 4.891,3.135 l -1.503,1.5 c -0.448,0.449 -2.782,-0.246 -5.263,-2.73 z m 33.02,-25.036 c -1.107,0.019 -3.152,-1.016 -5.082,-2.95 -0.209,-0.208 -0.555,-0.208 -0.764,0 -0.211,0.212 -0.211,0.553 0,0.761 1.492,1.5 3.352,2.745 4.896,3.14 l -2.209,2.205 c -0.727,0.013 -1.855,-0.427 -3.021,-1.217 -0.248,-0.166 -0.582,-0.102 -0.748,0.144 -0.146,0.214 -0.117,0.5 0.066,0.683 0.021,0.021 0.049,0.049 0.078,0.064 0.971,0.657 1.877,1.089 2.668,1.284 l -2.211,2.215 c -1.109,0.021 -3.152,-1.018 -5.084,-2.946 -0.209,-0.211 -0.551,-0.211 -0.76,0 -0.213,0.208 -0.213,0.55 0,0.762 1.494,1.492 3.346,2.744 4.895,3.132 L 79.957,56 c -0.729,0.01 -1.854,-0.429 -3.021,-1.22 -0.246,-0.169 -0.582,-0.101 -0.752,0.144 -0.143,0.215 -0.117,0.501 0.068,0.683 0.023,0.026 0.049,0.046 0.078,0.064 0.971,0.657 1.879,1.091 2.672,1.285 l -0.432,0.433 c -0.107,-0.032 -0.215,-0.067 -0.326,-0.106 -0.018,0.088 -0.049,0.152 -0.09,0.194 -0.137,0.137 -0.688,0.195 -1.641,-0.204 -1.068,-0.446 -2.307,-1.334 -3.4,-2.427 -1.096,-1.096 -1.978,-2.335 -2.427,-3.402 -0.399,-0.955 -0.342,-1.505 -0.204,-1.642 0.21,-0.212 1.118,-0.176 2.514,0.638 l -0.268,0.264 c -0.886,0.884 -0.148,2.409 0.969,3.527 0.568,0.572 1.244,1.042 1.889,1.25 -0.068,-0.29 -0.02,-0.599 0.152,-0.859 0.336,-0.487 1.006,-0.621 1.498,-0.286 1.064,0.719 1.902,1.021 2.42,1.106 -0.205,-0.557 -0.508,-1.148 -0.91,-1.771 l 0.611,-0.607 C 78.89,52.758 78.421,52.411 77.962,52.023 l -1.824,1.821 C 75.927,53.782 75.452,53.555 74.911,53.015 74.372,52.472 74.141,52 74.083,51.786 L 86.124,39.739 c 0.336,0.352 0.68,0.706 1.033,1.058 0.338,0.341 0.68,0.677 1.027,1.001 l -2.365,2.365 c 0.471,0.387 0.955,0.729 1.426,1.008 l 2.205,-2.205 c 0.65,0.579 1.291,1.119 1.92,1.62 l -1.929,1.928 z m 5,-1.806 c -0.373,-0.247 -0.76,-0.523 -1.156,-0.819 0.563,-0.033 1.033,-0.224 1.385,-0.575 0.354,-0.357 0.543,-0.832 0.572,-1.398 0.484,0.646 0.91,1.265 1.266,1.845 0.863,1.404 1.07,2.175 1.088,2.478 -0.354,-0.018 -1.33,-0.301 -3.155,-1.531 z"
   id="path9790"
   inkscape:connector-curvature="0"
   style="fill:#ffffff" />
					<path
   d="m 82.52,49.899 c -0.055,-0.036 -0.109,-0.075 -0.166,-0.111 -0.061,-0.042 -0.109,-0.084 -0.154,-0.13 -0.367,-0.364 -0.42,-0.937 -0.133,-1.362 0.334,-0.491 1.004,-0.624 1.498,-0.293 0.178,0.124 0.354,0.234 0.52,0.332 l 1.596,-1.601 c -0.465,-0.306 -0.93,-0.653 -1.391,-1.041 l -4.8,4.797 c 0.479,0.388 0.961,0.729 1.432,1.009 l 1.598,-1.6 z"
   id="path9792"
   inkscape:connector-curvature="0"
   style="fill:#ffffff" />
				</g>
			</g>
		</g></g></g></g>
	</g>
</svg>