<?xml version="1.0" encoding="utf-8"?>
<!-- Generator: Adobe Illustrator 16.0.3, SVG Export Plug-In . SVG Version: 6.00 Build 0)  -->
<!DOCTYPE svg PUBLIC "-//W3C//DTD SVG 1.1//EN" "http://www.w3.org/Graphics/SVG/1.1/DTD/svg11.dtd">
<svg version="1.1" id="idCourseOfActionLayer"
	 xmlns="http://www.w3.org/2000/svg" xmlns:xlink="http://www.w3.org/1999/xlink" x="0px" y="0px" width="100%" height="100%"
	 viewBox="0 0 144 144" enable-background="new 0 0 144 144" xml:space="preserve">
<switch>
	<g>
		<g>
			<g>
				<linearGradient id="idCourseOfActionBackgroundGradient" gradientUnits="userSpaceOnUse" x1="72.0005" y1="144" x2="72.0005" y2="4.882813e-004">
					<stop  offset="0" style="stop-color:#000000"/>
					<stop  offset="0.0715" style="stop-color:#081700"/>
					<stop  offset="0.2107" style="stop-color:#153F00"/>
					<stop  offset="0.3546" style="stop-color:#205F00"/>
					<stop  offset="0.5022" style="stop-color:#287900"/>
					<stop  offset="0.655" style="stop-color:#2E8B00"/>
					<stop  offset="0.8162" style="stop-color:#329600"/>
					<stop  offset="1" style="stop-color:#339900"/>
				</linearGradient>
				<path fill="url(#idCourseOfActionBackgroundGradient)" d="M126.008,0H17.992C8.091,0,0,8.095,0,17.998v108.004C0,135.908,8.091,144,17.992,144h108.016
					c9.9,0,17.992-8.092,17.992-17.998V17.998C144,8.095,135.908,0,126.008,0z"/>
			</g>
			<defs>
				<filter id="idCourseOfActionFilter" filterUnits="userSpaceOnUse" x="0" y="0" width="144" height="144">
					
						<feColorMatrix  type="matrix" values="-1 0 0 0 1  0 -1 0 0 1  0 0 -1 0 1  0 0 0 1 0" color-interpolation-filters="sRGB" result="source"/>
				</filter>
			</defs>
			<mask maskUnits="userSpaceOnUse" x="0" y="0" width="144" height="144" id="idCourseOfActionMask">
				<g filter="url(#idCourseOfActionFilter)">
					
				</g>
			</mask>
			<g opacity="0.6" mask="url(#idCourseOfActionMask)">
				<path d="M126.008,0H17.992C8.091,0,0,8.095,0,17.998v108.004C0,135.908,8.091,144,17.992,144h108.016
					c9.9,0,17.992-8.092,17.992-17.998V17.998C144,8.095,135.908,0,126.008,0z"/>
			</g>
		</g>
		<g>
			
			<g>
				<text transform="matrix(0.9996 0 0 1 15.9526 127.4209)" fill="#FFFFFF" font-family="'Calibri-Bold'" font-size="16.3638">Course of Action</text>
			</g>
		</g>
		<linearGradient id="idCourseOfActionCurveOpacityGradient" gradientUnits="userSpaceOnUse" x1="72.0015" y1="123.8164" x2="72.0015" y2="2.9136">
			<stop  offset="0" style="stop-color:#FFFFFF;stop-opacity:0.2"/>
			<stop  offset="1" style="stop-color:#FFFFFF;stop-opacity:0.3"/>
		</linearGradient>
		<path fill="url(#idCourseOfActionCurveOpacityGradient)" d="M123.824,2.913H20.176c-9.499,0-17.264,7.767-17.264,17.271v103.633
			C14.612,20.678,141.09,20.184,141.09,20.184C141.09,10.68,133.326,2.913,123.824,2.913z"/>
		<g>
			
			<g>
				<g>
					<path fill="#FFFFFF" d="M98.229,43.283c-0.867-1.499-2.244-3.327-3.904-5.193l9.344-9.347c0.939,0.684,1.885,1.235,2.783,1.613
						c1.926,0.806,3.486,0.751,4.402-0.163c0.91-0.91,0.967-2.475,0.158-4.399c-0.705-1.682-2.01-3.526-3.674-5.188
						c-1.664-1.666-3.504-2.973-5.186-3.676c-1.924-0.809-3.486-0.751-4.396,0.159c-0.916,0.914-0.973,2.476-0.164,4.4
						c0.373,0.891,0.914,1.825,1.588,2.751l-9.35,9.354c-1.861-1.656-3.682-3.024-5.174-3.887c-2.055-1.19-3.43-1.389-4.199-0.618
						c-0.869,0.869-0.531,2.436,1.063,4.928c0.242,0.38,0.508,0.773,0.799,1.177L52.477,65.058
						c-1.146,1.147-0.617,3.203,0.694,5.221l-4.399,4.399c-0.656,0.654-0.423,1.662,0.201,2.599L32.914,93.291
						c-0.037,0.032-0.071,0.064-0.107,0.101c-0.459,0.465-0.396,0.846-0.314,1.031c0.039,0.08,0.088,0.159,0.148,0.221
						c0.436,0.434,1.334,0.267,1.97-0.007c0.41-0.176,0.735-0.394,0.972-0.627v0.003l15.091-15.038
						c0.934,0.621,1.942,0.855,2.596,0.201l4.388-4.395c2.024,1.327,4.094,1.871,5.247,0.716l29.851-29.861
						c0.404,0.289,0.797,0.556,1.176,0.8c2.494,1.594,4.059,1.932,4.928,1.063C99.629,46.725,99.426,45.346,98.229,43.283z
						 M88.426,35l-2.066,2.065c-0.783-1.334-0.979-2.393-0.654-2.719C85.977,34.077,86.982,34.151,88.426,35z M90.848,41.57
						l2.078-2.082c0.873,1.464,0.953,2.485,0.68,2.758C93.275,42.574,92.199,42.373,90.848,41.57z M98.971,18.31
						c0.744-0.741,3.898,0.261,7.148,3.516c3.254,3.253,4.256,6.41,3.514,7.149c-0.74,0.741-3.895-0.257-7.148-3.514
						C99.23,22.206,98.229,19.052,98.971,18.31z M101.266,26.681c0.344,0.343,0.691,0.67,1.051,0.979L89.42,40.559
						c-0.107-0.084-0.217-0.176-0.322-0.273c-0.244-0.231-0.482-0.468-0.723-0.706c-0.238-0.244-0.477-0.483-0.709-0.725
						c-0.104-0.12-0.205-0.238-0.301-0.358l12.893-12.895C100.576,25.966,100.912,26.326,101.266,26.681z M81.717,30.353
						c0.301,0.017,1.07,0.222,2.463,1.081c0.582,0.356,1.205,0.786,1.859,1.273c-0.566,0.03-1.045,0.219-1.398,0.573
						c-0.352,0.351-0.543,0.82-0.576,1.385c-0.295-0.396-0.572-0.783-0.818-1.157C82.018,31.683,81.73,30.707,81.717,30.353z
						 M84.963,38.468L74.246,49.184c-0.855-0.547-1.66-0.911-2.386-1.09l11.509-11.513C83.859,37.199,84.395,37.83,84.963,38.468z
						 M34.379,94.104c-0.275,0.116-0.664,0.188-0.854,0c-0.027-0.03-0.049-0.06-0.063-0.095c-0.037-0.082-0.064-0.247,0.133-0.449
						c0.108-0.107,0.262-0.205,0.438-0.282c0.274-0.115,0.667-0.186,0.852-0.004c0.029,0.029,0.051,0.063,0.065,0.098
						C35.053,93.616,34.818,93.915,34.379,94.104z M35.698,92.68c-0.195-0.153-0.465-0.208-0.752-0.202L49.51,77.959
						c0.074,0.082,0.148,0.167,0.231,0.244c0.08,0.082,0.161,0.159,0.246,0.235L35.698,92.68z M52.188,77.815
						c-0.215-0.062-0.69-0.288-1.229-0.829c-0.539-0.539-0.766-1.014-0.829-1.229l4.077-4.077c0.316,0.373,0.647,0.741,0.995,1.089
						c0.342,0.342,0.696,0.667,1.06,0.973L52.188,77.815z M56.421,71.55c-2.479-2.479-3.174-4.823-2.724-5.275l15.085-15.097
						c0.34,1.379,1.335,2.958,2.603,4.354c0.254,0.013,0.507,0.117,0.701,0.309c1.076,1.08,2.262,1.938,3.334,2.42
						c0.875,0.394,1.545,0.455,1.795,0.481l-0.428,0.427c-1.111,0.021-3.152-1.016-5.082-2.947c-0.208-0.208-0.55-0.208-0.762,0
						c-0.211,0.214-0.211,0.553,0,0.764c1.492,1.496,3.35,2.741,4.896,3.136l-2.211,2.208c-0.725,0.01-1.856-0.429-3.021-1.22
						c-0.246-0.166-0.581-0.101-0.749,0.144c-0.145,0.214-0.114,0.501,0.063,0.683c0.025,0.026,0.053,0.045,0.081,0.065
						c0.972,0.656,1.88,1.086,2.671,1.285L70.461,65.5c-1.11,0.02-3.151-1.015-5.083-2.947c-0.208-0.211-0.552-0.211-0.76,0
						c-0.213,0.209-0.213,0.551,0,0.762c1.492,1.496,3.347,2.745,4.895,3.132l-2.21,2.212c-0.728,0.009-1.857-0.43-3.021-1.219
						c-0.248-0.167-0.581-0.103-0.751,0.142c-0.143,0.215-0.115,0.501,0.067,0.688c0.023,0.021,0.049,0.041,0.079,0.064
						c0.968,0.657,1.878,1.086,2.668,1.284l-2.21,2.212c-1.107,0.02-3.153-1.015-5.079-2.946c-0.21-0.212-0.548-0.212-0.76,0
						c-0.208,0.208-0.208,0.552,0,0.761c1.488,1.496,3.343,2.745,4.891,3.135l-1.503,1.5C61.236,74.729,58.902,74.034,56.421,71.55z
						 M89.441,46.514c-1.107,0.019-3.152-1.016-5.082-2.95c-0.209-0.208-0.555-0.208-0.764,0c-0.211,0.212-0.211,0.553,0,0.761
						c1.492,1.5,3.352,2.745,4.896,3.14l-2.209,2.205c-0.727,0.013-1.855-0.427-3.021-1.217c-0.248-0.166-0.582-0.102-0.748,0.144
						c-0.146,0.214-0.117,0.5,0.066,0.683c0.021,0.021,0.049,0.049,0.078,0.064c0.971,0.657,1.877,1.089,2.668,1.284l-2.211,2.215
						c-1.109,0.021-3.152-1.018-5.084-2.946c-0.209-0.211-0.551-0.211-0.76,0c-0.213,0.208-0.213,0.55,0,0.762
						c1.494,1.492,3.346,2.744,4.895,3.132L79.957,56c-0.729,0.01-1.854-0.429-3.021-1.22c-0.246-0.169-0.582-0.101-0.752,0.144
						c-0.143,0.215-0.117,0.501,0.068,0.683c0.023,0.026,0.049,0.046,0.078,0.064c0.971,0.657,1.879,1.091,2.672,1.285l-0.432,0.433
						c-0.107-0.032-0.215-0.067-0.326-0.106c-0.018,0.088-0.049,0.152-0.09,0.194c-0.137,0.137-0.688,0.195-1.641-0.204
						c-1.068-0.446-2.307-1.334-3.4-2.427c-1.096-1.096-1.978-2.335-2.427-3.402c-0.399-0.955-0.342-1.505-0.204-1.642
						c0.21-0.212,1.118-0.176,2.514,0.638l-0.268,0.264c-0.886,0.884-0.148,2.409,0.969,3.527c0.568,0.572,1.244,1.042,1.889,1.25
						c-0.068-0.29-0.02-0.599,0.152-0.859c0.336-0.487,1.006-0.621,1.498-0.286c1.064,0.719,1.902,1.021,2.42,1.106
						c-0.205-0.557-0.508-1.148-0.91-1.771l0.611-0.607c-0.467-0.306-0.936-0.653-1.395-1.041l-1.824,1.821
						c-0.211-0.062-0.686-0.289-1.227-0.829c-0.539-0.543-0.77-1.015-0.828-1.229l12.041-12.047c0.336,0.352,0.68,0.706,1.033,1.058
						c0.338,0.341,0.68,0.677,1.027,1.001l-2.365,2.365c0.471,0.387,0.955,0.729,1.426,1.008l2.205-2.205
						c0.65,0.579,1.291,1.119,1.92,1.62L89.441,46.514z M94.441,44.708c-0.373-0.247-0.76-0.523-1.156-0.819
						c0.563-0.033,1.033-0.224,1.385-0.575c0.354-0.357,0.543-0.832,0.572-1.398c0.484,0.646,0.91,1.265,1.266,1.845
						c0.863,1.404,1.07,2.175,1.088,2.478C97.242,46.221,96.266,45.938,94.441,44.708z"/>
					<path fill="#FFFFFF" d="M82.52,49.899c-0.055-0.036-0.109-0.075-0.166-0.111c-0.061-0.042-0.109-0.084-0.154-0.13
						c-0.367-0.364-0.42-0.937-0.133-1.362c0.334-0.491,1.004-0.624,1.498-0.293c0.178,0.124,0.354,0.234,0.52,0.332l1.596-1.601
						c-0.465-0.306-0.93-0.653-1.391-1.041L79.49,50.49c0.479,0.388,0.961,0.729,1.432,1.009L82.52,49.899z"/>
				</g>
			</g>
		</g>
	</g>
</switch>
</svg>
