<?xml version="1.0" encoding="utf-8"?>
<!-- Generator: Adobe Illustrator 16.0.3, SVG Export Plug-In . SVG Version: 6.00 Build 0)  -->
<!DOCTYPE svg PUBLIC "-//W3C//DTD SVG 1.1//EN" "http://www.w3.org/Graphics/SVG/1.1/DTD/svg11.dtd">
<svg version="1.1" id="idMarkingLayer"
	 xmlns="http://www.w3.org/2000/svg" xmlns:xlink="http://www.w3.org/1999/xlink" x="0px" y="0px" width="100%" height="100%"
	 viewBox="0 0 144 144" enable-background="new 0 0 144 144" xml:space="preserve">
<switch>
	<g>
		<g>
			<g>
				<linearGradient id="idMarkingBackgroundGradient" gradientUnits="userSpaceOnUse" x1="72.0005" y1="144" x2="72.0005" y2="4.882813e-004">
					<stop  offset="0" style="stop-color:#000000"/>
					<stop  offset="0.1119" style="stop-color:#002725"/>
					<stop  offset="0.245" style="stop-color:#004F49"/>
					<stop  offset="0.3826" style="stop-color:#006F68"/>
					<stop  offset="0.5238" style="stop-color:#00897F"/>
					<stop  offset="0.6699" style="stop-color:#009B90"/>
					<stop  offset="0.8242" style="stop-color:#00A69A"/>
					<stop  offset="1" style="stop-color:#00A99D"/>
				</linearGradient>
				<path fill="url(#idMarkingBackgroundGradient)" d="M126,0H18C8.097,0,0,8.097,0,17.997v108.005C0,135.906,8.097,144,18,144h108
					c9.904,0,18-8.094,18-17.998V17.997C144,8.097,135.904,0,126,0z"/>
			</g>
			<defs>
				<filter id="idMarkingFilter" filterUnits="userSpaceOnUse" x="0" y="0" width="144" height="144">
					
						<feColorMatrix  type="matrix" values="-1 0 0 0 1  0 -1 0 0 1  0 0 -1 0 1  0 0 0 1 0" color-interpolation-filters="sRGB" result="source"/>
				</filter>
			</defs>
			<mask maskUnits="userSpaceOnUse" x="0" y="0" width="144" height="144" id="idMarkingMask">
				<g filter="url(#idMarkingFilter)">
					
				</g>
			</mask>
			<g opacity="0.6" mask="url(#idMarkingMask)">
				<path d="M126,0H18C8.097,0,0,8.097,0,17.997v108.005C0,135.906,8.097,144,18,144h108c9.904,0,18-8.094,18-17.998V17.997
					C144,8.097,135.904,0,126,0z"/>
			</g>
		</g>
		<g>
			
			<g>
				<g>
					<path fill="#FFFFFF" d="M117.717,27.905h-93.03l-6.609,12.32l10.901,57.122h84.711l10.736-57.122L117.717,27.905z
						 M25.965,30.04h90.484l4.951,9.086l-100.31-0.018L25.965,30.04z M111.918,95.215H30.745L20.47,41.355l101.589-0.052
						L111.918,95.215z"/>
					<path fill="#FFFFFF" d="M109.23,18.87l4.566,6.78L28.71,25.617l4.56-6.747H109.23 M110.252,16.948H32.249l-7.155,10.589
						l92.314,0.036L110.252,16.948L110.252,16.948z"/>
					<polygon fill="#FFFFFF" points="48.359,85.542 47.567,77.695 47.825,77.699 48.607,85.548 					"/>
					<polygon fill="#FFFFFF" points="44.149,85.543 43.192,77.695 43.606,77.701 44.547,85.55 					"/>
					<polygon fill="#FFFFFF" points="41.196,85.544 40.123,77.695 40.537,77.703 41.592,85.553 					"/>
					<polygon fill="#FFFFFF" points="66.087,85.546 65.979,77.695 66.236,77.699 66.336,85.553 					"/>
					<polygon fill="#FFFFFF" points="60.176,85.544 59.842,77.695 60.101,77.7 60.424,85.548 					"/>
					<polygon fill="#FFFFFF" points="53.681,85.546 53.088,77.695 53.346,77.702 53.929,85.551 					"/>
					<polygon fill="#FFFFFF" points="49.542,85.543 48.794,77.695 49.052,77.699 49.791,85.548 					"/>
					<polygon fill="#FFFFFF" points="44.815,85.546 43.884,77.695 44.143,77.702 45.066,85.557 					"/>
					<polygon fill="#FFFFFF" points="41.859,85.546 40.815,77.695 41.075,77.701 42.109,85.55 					"/>
					<polygon fill="#FFFFFF" points="67.271,85.542 67.205,77.695 67.464,77.699 67.519,85.548 					"/>
					<polygon fill="#FFFFFF" points="61.359,85.543 61.069,77.695 61.327,77.701 61.607,85.546 					"/>
					<polygon fill="#FFFFFF" points="54.86,85.544 54.316,77.695 54.575,77.7 55.108,85.549 					"/>
					<polygon fill="#FFFFFF" points="50.726,85.546 50.021,77.695 50.278,77.701 50.974,85.548 					"/>
					<polygon fill="#FFFFFF" points="45.405,85.546 44.497,77.695 44.756,77.697 45.653,85.55 					"/>
					<polygon fill="#FFFFFF" points="42.452,85.546 41.431,77.695 41.688,77.701 42.701,85.55 					"/>
					<polygon fill="#FFFFFF" points="68.451,85.546 68.434,77.695 68.691,77.702 68.698,85.549 					"/>
					<polygon fill="#FFFFFF" points="62.541,85.543 62.298,77.695 62.555,77.7 62.789,85.549 					"/>
					<polygon fill="#FFFFFF" points="55.968,85.542 55.469,77.695 55.881,77.702 56.364,85.549 					"/>
					<polygon fill="#FFFFFF" points="51.906,85.542 51.248,77.695 51.506,77.7 52.155,85.546 					"/>
					<polygon fill="#FFFFFF" points="45.997,85.544 45.11,77.695 45.369,77.701 46.245,85.551 					"/>
					<polygon fill="#FFFFFF" points="43.043,85.546 42.043,77.695 42.301,77.702 43.293,85.549 					"/>
					<polygon fill="#FFFFFF" points="69.559,85.544 69.586,77.695 69.998,77.702 69.956,85.551 					"/>
					<polygon fill="#FFFFFF" points="63.648,85.544 63.448,77.695 63.859,77.701 64.046,85.553 					"/>
					<polygon fill="#FFFFFF" points="57.813,85.544 57.389,77.695 57.646,77.703 58.064,85.551 					"/>
					<polygon fill="#FFFFFF" points="53.064,85.544 52.449,77.695 52.758,77.702 53.361,85.549 					"/>
					<polygon fill="#FFFFFF" points="47.154,85.546 46.313,77.695 46.622,77.702 47.451,85.554 					"/>
					<polygon fill="#FFFFFF" points="43.615,85.544 42.628,77.695 42.938,77.704 43.91,85.554 					"/>
					<polygon fill="#FFFFFF" points="70.79,85.548 70.865,77.695 71.172,77.702 71.086,85.551 					"/>
					<polygon fill="#FFFFFF" points="64.883,85.544 64.729,77.695 65.034,77.701 65.177,85.549 					"/>
					<polygon fill="#FFFFFF" points="58.973,85.543 58.588,77.695 58.896,77.701 59.27,85.55 					"/>
					<polygon fill="#FFFFFF" points="51.313,85.537 50.635,77.69 50.893,77.693 51.563,85.543 					"/>
					<polygon fill="#FFFFFF" points="69.041,85.542 69.047,77.69 69.306,77.693 69.291,85.548 					"/>
					<polygon fill="#FFFFFF" points="63.132,85.54 62.912,77.69 63.171,77.695 63.378,85.543 					"/>
					<polygon fill="#FFFFFF" points="57.226,85.542 56.771,77.69 57.028,77.697 57.475,85.546 					"/>
					<polygon fill="#FFFFFF" points="52.497,85.538 51.863,77.69 52.121,77.693 52.747,85.543 					"/>
					<polygon fill="#FFFFFF" points="46.588,85.542 45.725,77.69 45.982,77.697 46.838,85.551 					"/>
					<polygon fill="#FFFFFF" points="70.225,85.537 70.272,77.69 70.533,77.693 70.473,85.543 					"/>
					<polygon fill="#FFFFFF" points="64.314,85.538 64.139,77.69 64.396,77.695 64.563,85.542 					"/>
					<polygon fill="#FFFFFF" points="58.406,85.54 57.999,77.69 58.259,77.695 58.654,85.544 					"/>
					<polygon fill="#FFFFFF" points="54.27,85.541 53.703,77.69 53.96,77.695 54.518,85.543 					"/>
					<polygon fill="#FFFFFF" points="47.768,85.542 46.953,77.69 47.211,77.692 48.016,85.546 					"/>
					<polygon fill="#FFFFFF" points="71.404,85.542 71.503,77.69 71.76,77.697 71.652,85.544 					"/>
					<polygon fill="#FFFFFF" points="65.496,85.538 65.365,77.69 65.624,77.695 65.744,85.544 					"/>
					<polygon fill="#FFFFFF" points="59.512,85.537 59.15,77.69 59.563,77.697 59.908,85.544 					"/>
					<polygon fill="#FFFFFF" points="55.451,85.537 54.932,77.69 55.188,77.695 55.701,85.542 					"/>
					<polygon fill="#FFFFFF" points="48.951,85.54 48.177,77.69 48.438,77.695 49.2,85.546 					"/>
					<polygon fill="#FFFFFF" points="71.921,85.54 72.041,77.69 72.452,77.697 72.319,85.546 					"/>
					<polygon fill="#FFFFFF" points="66.603,85.54 66.517,77.69 66.929,77.695 66.999,85.548 					"/>
					<polygon fill="#FFFFFF" points="60.767,85.54 60.456,77.69 60.715,77.699 61.018,85.546 					"/>
					<polygon fill="#FFFFFF" points="56.61,85.54 56.132,77.69 56.44,77.697 56.907,85.544 					"/>
					<polygon fill="#FFFFFF" points="50.107,85.542 49.381,77.69 49.69,77.697 50.404,85.549 					"/>
					<polygon fill="#FFFFFF" points="72.562,85.543 72.707,77.69 73.014,77.697 72.857,85.546 					"/>
					<polygon fill="#FFFFFF" points="67.837,85.54 67.797,77.69 68.103,77.695 68.131,85.544 					"/>
					<polygon fill="#FFFFFF" points="61.928,85.538 61.658,77.69 61.965,77.695 62.225,85.546 					"/>
					<polygon fill="#FFFFFF" points="93.424,68.748 94.982,56.23 95.268,56.231 93.693,68.755 					"/>
					<polygon fill="#FFFFFF" points="87.012,68.847 88.209,56.331 88.492,56.334 87.279,68.847 					"/>
					<polygon fill="#FFFFFF" points="79.972,68.963 80.758,56.442 81.042,56.45 80.239,68.965 					"/>
					<polygon fill="#FFFFFF" points="94.709,68.722 96.336,56.21 96.621,56.21 94.977,68.727 					"/>
					<polygon fill="#FFFFFF" points="88.295,68.824 89.563,56.31 89.846,56.315 88.563,68.825 					"/>
					<polygon fill="#FFFFFF" points="81.251,68.938 82.113,56.423 82.396,56.426 81.519,68.941 					"/>
					<polygon fill="#FFFFFF" points="95.99,68.709 97.695,56.188 97.979,56.196 96.258,68.709 					"/>
					<polygon fill="#FFFFFF" points="89.578,68.804 90.918,56.291 91.201,56.294 89.846,68.809 					"/>
					<polygon fill="#FFFFFF" points="82.449,68.915 83.383,56.404 83.838,56.407 82.877,68.92 					"/>
					<polygon fill="#FFFFFF" points="97.193,68.685 98.969,56.17 99.42,56.173 97.623,68.689 					"/>
					<polygon fill="#FFFFFF" points="90.779,68.785 92.188,56.271 92.641,56.272 91.207,68.793 					"/>
					<polygon fill="#FFFFFF" points="84.449,68.888 85.5,56.37 85.783,56.38 84.719,68.894 					"/>
					<polygon fill="#FFFFFF" points="79.304,68.969 80.055,56.453 80.392,56.46 79.625,68.973 					"/>
					<polygon fill="#FFFFFF" points="98.531,68.671 100.383,56.148 100.719,56.155 98.85,68.671 					"/>
					<polygon fill="#FFFFFF" points="92.117,68.767 93.6,56.249 93.938,56.254 92.436,68.769 					"/>
					<polygon fill="#FFFFFF" points="85.705,68.865 86.824,56.353 87.164,56.355 86.027,68.87 					"/>
					<polygon fill="#FFFFFF" points="96.633,68.69 98.373,56.171 98.658,56.173 96.9,68.695 					"/>
					<polygon fill="#FFFFFF" points="90.217,68.788 91.598,56.272 91.883,56.276 90.484,68.788 					"/>
					<polygon fill="#FFFFFF" points="83.814,68.893 84.82,56.374 85.104,56.38 84.082,68.896 					"/>
					<polygon fill="#FFFFFF" points="97.918,68.664 99.729,56.151 100.014,56.151 98.188,68.669 					"/>
					<polygon fill="#FFFFFF" points="91.502,68.767 92.951,56.251 93.234,56.257 91.77,68.769 					"/>
					<polygon fill="#FFFFFF" points="85.092,68.869 86.176,56.354 86.461,56.356 85.361,68.872 					"/>
					<polygon fill="#FFFFFF" points="80.611,68.942 81.438,56.426 81.721,56.43 80.879,68.941 					"/>
					<polygon fill="#FFFFFF" points="99.199,68.65 101.088,56.131 101.371,56.138 99.469,68.649 					"/>
					<polygon fill="#FFFFFF" points="92.783,68.746 94.309,56.232 94.59,56.234 93.051,68.75 					"/>
					<polygon fill="#FFFFFF" points="86.293,68.847 87.445,56.334 87.898,56.339 86.721,68.852 					"/>
					<polygon fill="#FFFFFF" points="81.892,68.915 82.791,56.404 83.074,56.408 82.162,68.92 					"/>
					<polygon fill="#FFFFFF" points="99.762,68.638 101.682,56.122 102.137,56.126 100.193,68.641 					"/>
					<polygon fill="#FFFFFF" points="93.984,68.73 95.578,56.213 96.031,56.216 94.414,68.734 					"/>
					<polygon fill="#FFFFFF" points="87.652,68.83 88.887,56.313 89.17,56.321 87.922,68.835 					"/>
					<polygon fill="#FFFFFF" points="83.146,68.9 84.115,56.386 84.455,56.391 83.469,68.902 					"/>
					<polygon fill="#FFFFFF" points="95.324,68.709 96.992,56.191 97.328,56.196 95.643,68.711 					"/>
					<polygon fill="#FFFFFF" points="88.912,68.807 90.213,56.294 90.551,56.298 89.234,68.813 					"/>
					<path fill="#FFFFFF" d="M108.197,49.342L102.01,86.95H40.431l-5.332-37.608H108.197 M109.811,48.159H33.512l5.904,39.973
						h63.582L109.811,48.159L109.811,48.159z"/>
					<g>
						<line fill="#FFFFFF" x1="75.025" y1="70.303" x2="102.326" y2="70.303"/>
						<rect x="75.025" y="70.008" fill="#FFFFFF" width="27.301" height="0.591"/>
					</g>
					<g>
						<line fill="#FFFFFF" x1="75.452" y1="55.037" x2="104.668" y2="55.037"/>
						<rect x="75.452" y="54.742" fill="#FFFFFF" width="29.216" height="0.59"/>
					</g>
					<g>
						<line fill="#FFFFFF" x1="39.952" y1="76.177" x2="74.696" y2="76.177"/>
						<rect x="39.952" y="75.882" fill="#FFFFFF" width="34.744" height="0.59"/>
					</g>
					<g>
						<line fill="#FFFFFF" x1="37.862" y1="60.909" x2="75.111" y2="60.909"/>
						<rect x="37.862" y="60.614" fill="#FFFFFF" width="37.249" height="0.591"/>
					</g>
					<g>
						<line fill="#FFFFFF" x1="75.563" y1="51.098" x2="74.588" y2="85.959"/>
						
							<rect x="74.78" y="51.09" transform="matrix(0.9996 0.0281 -0.0281 0.9996 1.9577 -2.0851)" fill="#FFFFFF" width="0.59" height="34.876"/>
					</g>
					<path fill="#FFFFFF" d="M40.066,58.358l-0.508-4.025h-1.473l-0.09-0.674c0.547-0.016,0.963-0.11,1.247-0.288
						c0.286-0.176,0.437-0.43,0.45-0.763h0.829l0.694,5.75H40.066z"/>
					<path fill="#FFFFFF" d="M42.965,58.358c-0.002-0.019-0.007-0.049-0.014-0.09c-0.009-0.042-0.014-0.071-0.016-0.091
						c-0.051-0.44,0.008-0.862,0.17-1.265c0.164-0.404,0.438-0.797,0.827-1.178c0.069-0.065,0.174-0.164,0.313-0.289
						c0.264-0.233,0.436-0.412,0.519-0.531c0.075-0.111,0.127-0.231,0.156-0.36c0.027-0.129,0.034-0.277,0.017-0.443
						c-0.024-0.242-0.095-0.422-0.207-0.537c-0.114-0.118-0.277-0.176-0.489-0.176c-0.224,0-0.378,0.072-0.466,0.216
						c-0.089,0.144-0.116,0.373-0.081,0.688c0.006,0.059,0.013,0.104,0.02,0.136c0.008,0.033,0.011,0.062,0.015,0.086h-1.162
						c-0.003-0.024-0.009-0.06-0.018-0.101c-0.007-0.042-0.011-0.071-0.013-0.09c-0.067-0.598,0.03-1.034,0.296-1.31
						c0.268-0.276,0.721-0.415,1.362-0.415c0.6,0,1.071,0.126,1.413,0.375c0.342,0.25,0.536,0.611,0.582,1.082
						c0.021,0.222,0.013,0.425-0.026,0.611c-0.039,0.184-0.109,0.36-0.21,0.528c-0.079,0.134-0.264,0.341-0.554,0.62
						c-0.153,0.144-0.27,0.258-0.35,0.343l-0.004,0.003c-0.567,0.604-0.881,1.028-0.939,1.275h2.333l0.09,0.912H42.965z"/>
					<path fill="#FFFFFF" d="M47.133,56.437h1.151l0.006,0.067c0.038,0.429,0.115,0.726,0.23,0.896
						c0.115,0.169,0.295,0.254,0.54,0.254c0.242,0,0.406-0.074,0.491-0.225c0.087-0.15,0.113-0.418,0.081-0.804
						c-0.032-0.388-0.115-0.644-0.247-0.766c-0.133-0.122-0.374-0.184-0.726-0.184c-0.078,0-0.141,0-0.192,0.002
						c-0.05,0-0.1,0.004-0.151,0.006l-0.066-0.746h0.088c0.394,0,0.661-0.058,0.8-0.171c0.14-0.113,0.196-0.326,0.17-0.634
						c-0.022-0.284-0.085-0.482-0.183-0.592c-0.098-0.11-0.254-0.165-0.469-0.165c-0.209,0-0.354,0.061-0.435,0.184
						s-0.109,0.323-0.084,0.606l0.012,0.135h-1.157c-0.005-0.025-0.011-0.052-0.015-0.081c-0.005-0.027-0.008-0.072-0.014-0.132
						c-0.046-0.492,0.069-0.862,0.352-1.108c0.281-0.247,0.724-0.372,1.327-0.372c0.557,0,0.996,0.128,1.321,0.385
						c0.32,0.256,0.501,0.618,0.538,1.088c0.024,0.32-0.021,0.581-0.135,0.784c-0.115,0.205-0.296,0.341-0.54,0.411
						c0.316,0.066,0.559,0.21,0.729,0.433c0.167,0.22,0.267,0.527,0.297,0.917c0.048,0.618-0.073,1.08-0.364,1.384
						c-0.289,0.304-0.753,0.457-1.392,0.457c-0.608,0-1.07-0.146-1.388-0.44c-0.318-0.296-0.507-0.749-0.563-1.363
						c-0.003-0.024-0.005-0.062-0.006-0.113C47.138,56.499,47.135,56.463,47.133,56.437z"/>
					<path fill="#FFFFFF" d="M51.522,56.526h1.145l0.01,0.152c0.024,0.336,0.098,0.59,0.22,0.758
						c0.124,0.169,0.296,0.254,0.519,0.254c0.229,0,0.387-0.099,0.476-0.301c0.088-0.199,0.117-0.524,0.089-0.975
						c-0.026-0.411-0.104-0.708-0.231-0.895c-0.127-0.185-0.317-0.279-0.57-0.279c-0.171,0-0.308,0.044-0.413,0.13
						c-0.104,0.085-0.16,0.196-0.163,0.336h-1.079l-0.046-2.995h3.186l0.056,0.914h-2.247l0.012,1.146
						c0.116-0.111,0.246-0.191,0.387-0.242c0.141-0.052,0.31-0.077,0.506-0.077c0.564,0,0.997,0.158,1.3,0.474
						c0.301,0.315,0.471,0.788,0.508,1.419c0.044,0.742-0.074,1.282-0.352,1.621c-0.278,0.339-0.744,0.508-1.396,0.508
						c-0.604,0-1.06-0.147-1.366-0.441c-0.311-0.295-0.488-0.747-0.534-1.36L51.522,56.526z"/>
					<path fill="#FFFFFF" d="M57.091,54.887c0.089-0.13,0.211-0.225,0.365-0.29c0.153-0.063,0.34-0.096,0.557-0.096
						c0.511,0,0.897,0.146,1.155,0.442c0.26,0.294,0.4,0.747,0.425,1.364c0.032,0.784-0.085,1.339-0.352,1.668
						c-0.264,0.326-0.723,0.491-1.376,0.491c-0.353,0-0.646-0.052-0.881-0.153c-0.236-0.1-0.439-0.263-0.611-0.486
						c-0.129-0.169-0.229-0.425-0.299-0.765c-0.069-0.34-0.125-0.84-0.162-1.501c-0.037-0.66-0.039-1.162-0.008-1.504
						c0.032-0.342,0.101-0.597,0.203-0.766c0.147-0.237,0.348-0.411,0.599-0.52c0.252-0.108,0.576-0.164,0.973-0.164
						c0.521,0,0.929,0.106,1.221,0.316c0.291,0.21,0.444,0.507,0.459,0.89l0.003,0.086h-1.155l-0.002-0.056
						c-0.008-0.158-0.057-0.276-0.146-0.353s-0.224-0.115-0.404-0.115c-0.235,0-0.396,0.088-0.487,0.263
						c-0.09,0.177-0.123,0.482-0.102,0.92c0.002,0.035,0.006,0.088,0.013,0.16C57.084,54.791,57.089,54.848,57.091,54.887z
						 M57.172,56.48c0.021,0.441,0.084,0.746,0.184,0.913c0.101,0.165,0.262,0.25,0.487,0.25c0.225,0,0.378-0.073,0.456-0.219
						c0.08-0.146,0.108-0.455,0.087-0.928c-0.022-0.475-0.079-0.785-0.173-0.93s-0.256-0.217-0.489-0.217
						c-0.226,0-0.379,0.082-0.46,0.247C57.181,55.762,57.149,56.056,57.172,56.48z"/>
					<path fill="#FFFFFF" d="M61.302,55.266c-0.279-0.073-0.493-0.212-0.643-0.42c-0.148-0.208-0.229-0.479-0.242-0.816
						c-0.016-0.463,0.116-0.814,0.399-1.053c0.283-0.24,0.703-0.359,1.259-0.359c0.557,0,0.983,0.122,1.28,0.368
						c0.295,0.247,0.45,0.604,0.461,1.073c0.007,0.327-0.061,0.59-0.2,0.789s-0.356,0.338-0.652,0.418
						c0.354,0.059,0.612,0.201,0.774,0.425c0.164,0.227,0.249,0.557,0.259,0.995c0.015,0.612-0.124,1.06-0.409,1.346
						c-0.284,0.285-0.738,0.428-1.359,0.428c-0.612,0-1.065-0.137-1.363-0.41c-0.3-0.276-0.458-0.703-0.48-1.285
						c-0.017-0.454,0.049-0.801,0.194-1.036C60.727,55.491,60.967,55.337,61.302,55.266z M62.156,55.648
						c-0.229,0-0.384,0.071-0.465,0.217c-0.082,0.145-0.115,0.433-0.102,0.868c0.012,0.349,0.063,0.588,0.155,0.717
						c0.094,0.129,0.249,0.193,0.468,0.193c0.229,0,0.384-0.068,0.468-0.205c0.083-0.136,0.119-0.399,0.108-0.79
						c-0.009-0.372-0.063-0.634-0.157-0.781C62.534,55.721,62.375,55.648,62.156,55.648z M61.567,54.134
						c0.01,0.282,0.056,0.479,0.142,0.592c0.087,0.111,0.227,0.169,0.425,0.169c0.195,0,0.335-0.059,0.417-0.175
						c0.081-0.116,0.118-0.312,0.111-0.586c-0.008-0.28-0.056-0.476-0.147-0.588c-0.089-0.113-0.236-0.169-0.443-0.169
						c-0.189,0-0.322,0.058-0.399,0.173C61.594,53.664,61.56,53.859,61.567,54.134z"/>
					<path fill="#FFFFFF" d="M66.791,58.358l-0.011-1.131h-2.086l-0.018-0.913l1.927-3.603h1.279l0.017,3.663h0.556l0.001,0.853
						h-0.554l0.005,1.131H66.791z M65.564,56.4h1.233l-0.021-2.326L65.564,56.4z"/>
					<path fill="#FFFFFF" d="M70.149,55.266c-0.276-0.073-0.483-0.212-0.625-0.42c-0.141-0.208-0.212-0.479-0.211-0.816
						c0-0.463,0.146-0.814,0.438-1.053c0.291-0.24,0.716-0.359,1.272-0.359s0.979,0.122,1.266,0.368
						c0.287,0.247,0.428,0.604,0.42,1.073c-0.006,0.327-0.082,0.59-0.229,0.789c-0.146,0.199-0.37,0.338-0.667,0.418
						c0.351,0.059,0.603,0.201,0.758,0.425c0.154,0.227,0.228,0.557,0.221,0.995c-0.011,0.612-0.164,1.06-0.461,1.346
						c-0.295,0.285-0.754,0.428-1.376,0.428c-0.61,0-1.061-0.137-1.348-0.41c-0.288-0.276-0.432-0.703-0.432-1.285
						c0.001-0.454,0.079-0.801,0.233-1.036C69.566,55.491,69.813,55.337,70.149,55.266z M70.989,55.648
						c-0.229,0-0.387,0.071-0.473,0.217c-0.087,0.145-0.132,0.433-0.134,0.868c-0.002,0.349,0.04,0.588,0.126,0.717
						c0.09,0.129,0.243,0.193,0.463,0.193c0.227,0,0.385-0.068,0.475-0.205c0.088-0.136,0.135-0.399,0.14-0.79
						c0.004-0.372-0.04-0.634-0.13-0.781C71.366,55.721,71.209,55.648,70.989,55.648z M70.46,54.134
						c-0.003,0.282,0.037,0.479,0.118,0.592c0.082,0.111,0.221,0.169,0.417,0.169c0.197,0,0.338-0.059,0.424-0.175
						s0.132-0.312,0.135-0.586c0.003-0.28-0.038-0.476-0.124-0.588c-0.086-0.113-0.232-0.169-0.438-0.169
						c-0.19,0-0.325,0.058-0.407,0.173C70.504,53.664,70.461,53.859,70.46,54.134z"/>
					<path fill="#FFFFFF" d="M76.609,52.918h0.533l-0.002,0.071c-0.006,0.152,0.017,0.27,0.065,0.346
						c0.048,0.079,0.125,0.117,0.23,0.117c0.104,0,0.184-0.045,0.234-0.137c0.052-0.093,0.079-0.242,0.088-0.447
						c0.007-0.189-0.014-0.326-0.065-0.411c-0.049-0.085-0.134-0.128-0.251-0.128c-0.078,0-0.145,0.02-0.197,0.06
						c-0.054,0.037-0.086,0.09-0.093,0.153H76.65l0.127-1.375h1.472l-0.017,0.42h-1.041l-0.05,0.524
						c0.061-0.05,0.124-0.087,0.192-0.11c0.066-0.024,0.146-0.036,0.237-0.036c0.262,0,0.455,0.073,0.581,0.218
						c0.125,0.145,0.184,0.362,0.171,0.651c-0.014,0.342-0.094,0.589-0.239,0.745c-0.146,0.155-0.372,0.233-0.678,0.233
						c-0.282,0-0.488-0.067-0.618-0.203c-0.129-0.135-0.189-0.343-0.181-0.625L76.609,52.918z"/>
					<path fill="#FFFFFF" d="M79.328,53.76l0.082-1.849h-0.683l0.013-0.31c0.253-0.007,0.454-0.051,0.6-0.133
						c0.146-0.079,0.236-0.197,0.267-0.349h0.385l-0.123,2.64H79.328z"/>
					<path fill="#FFFFFF" d="M81.219,52.338c-0.129-0.032-0.222-0.097-0.282-0.192c-0.06-0.095-0.089-0.219-0.081-0.374
						c0.012-0.212,0.088-0.373,0.228-0.483c0.141-0.109,0.339-0.165,0.595-0.165c0.258,0,0.449,0.057,0.578,0.169
						c0.129,0.113,0.186,0.278,0.174,0.492c-0.01,0.151-0.049,0.271-0.121,0.361c-0.072,0.094-0.18,0.157-0.316,0.192
						c0.16,0.028,0.275,0.095,0.344,0.196c0.066,0.104,0.094,0.255,0.082,0.458c-0.016,0.279-0.094,0.485-0.238,0.616
						c-0.144,0.132-0.361,0.197-0.654,0.197c-0.285,0-0.492-0.063-0.621-0.189c-0.128-0.126-0.186-0.321-0.173-0.589
						c0.012-0.208,0.055-0.367,0.132-0.476C80.942,52.443,81.061,52.372,81.219,52.338z M81.6,52.514
						c-0.105,0-0.181,0.033-0.223,0.101c-0.044,0.065-0.072,0.2-0.082,0.4c-0.009,0.158,0.007,0.268,0.045,0.328
						c0.039,0.059,0.108,0.088,0.21,0.088c0.107,0,0.182-0.032,0.226-0.095s0.072-0.184,0.081-0.362
						c0.01-0.172-0.005-0.289-0.044-0.358C81.774,52.548,81.703,52.514,81.6,52.514z M81.386,51.819
						c-0.007,0.129,0.007,0.22,0.043,0.271c0.036,0.053,0.099,0.078,0.189,0.078s0.157-0.027,0.2-0.08
						c0.043-0.055,0.068-0.143,0.075-0.27c0.007-0.128-0.01-0.219-0.046-0.27c-0.038-0.052-0.105-0.078-0.199-0.078
						c-0.087,0-0.152,0.026-0.192,0.079C81.416,51.604,81.393,51.693,81.386,51.819z"/>
					<path fill="#FFFFFF" d="M83.416,53.76l0.115-1.849h-0.684l0.02-0.31c0.254-0.007,0.455-0.051,0.602-0.133
						c0.146-0.079,0.238-0.197,0.273-0.349h0.383l-0.168,2.64H83.416z"/>
					<path fill="#FFFFFF" d="M84.826,52.879h0.535l-0.002,0.028c-0.014,0.196,0.002,0.335,0.043,0.413
						c0.039,0.076,0.119,0.114,0.234,0.114c0.111,0,0.193-0.033,0.246-0.103c0.051-0.068,0.082-0.192,0.096-0.368
						c0.012-0.178-0.008-0.296-0.061-0.352c-0.055-0.056-0.162-0.084-0.324-0.084c-0.037,0-0.066,0-0.09,0s-0.047,0.002-0.072,0.003
						l0.023-0.341h0.043c0.184,0,0.311-0.027,0.383-0.08c0.074-0.052,0.115-0.149,0.125-0.291c0.01-0.13-0.006-0.222-0.041-0.271
						c-0.037-0.051-0.107-0.076-0.205-0.076s-0.17,0.028-0.215,0.086c-0.047,0.055-0.074,0.148-0.084,0.278l-0.004,0.062H84.92
						c0-0.012,0-0.025,0-0.038s0.002-0.033,0.002-0.06c0.016-0.228,0.098-0.396,0.246-0.51c0.148-0.114,0.361-0.17,0.641-0.17
						c0.256,0,0.449,0.059,0.582,0.176c0.131,0.118,0.188,0.284,0.172,0.499c-0.012,0.148-0.049,0.268-0.117,0.361
						s-0.162,0.156-0.281,0.188c0.145,0.031,0.246,0.098,0.309,0.199c0.063,0.101,0.086,0.242,0.072,0.421
						c-0.02,0.284-0.109,0.494-0.268,0.635c-0.158,0.14-0.385,0.21-0.684,0.21c-0.287,0-0.49-0.067-0.617-0.202
						c-0.127-0.136-0.182-0.343-0.162-0.625c0-0.012,0.002-0.028,0.004-0.052C84.822,52.906,84.824,52.889,84.826,52.879z"/>
					<path fill="#FFFFFF" d="M86.867,52.918H87.4l-0.006,0.071c-0.012,0.152,0.004,0.27,0.049,0.346
						c0.047,0.079,0.121,0.117,0.225,0.117c0.107,0,0.188-0.045,0.242-0.137c0.055-0.093,0.09-0.242,0.107-0.447
						c0.016-0.189,0.002-0.326-0.047-0.411c-0.047-0.085-0.129-0.128-0.246-0.128c-0.078,0-0.145,0.02-0.199,0.06
						c-0.055,0.037-0.09,0.09-0.1,0.153h-0.502l0.186-1.375h1.473l-0.033,0.42h-1.041l-0.072,0.524
						c0.061-0.05,0.127-0.087,0.195-0.11c0.068-0.024,0.148-0.036,0.24-0.036c0.262,0,0.451,0.073,0.57,0.218
						c0.121,0.145,0.168,0.362,0.143,0.651c-0.027,0.342-0.119,0.589-0.271,0.745c-0.152,0.155-0.383,0.233-0.688,0.233
						c-0.283,0-0.486-0.067-0.609-0.203c-0.125-0.135-0.176-0.343-0.154-0.625L86.867,52.918z"/>
					<path fill="#FFFFFF" d="M89.229,53.76c0.059-0.326,0.17-0.671,0.332-1.034c0.164-0.361,0.379-0.737,0.643-1.126h-1.164
						l0.037-0.433h1.719l-0.035,0.379c-0.24,0.33-0.439,0.681-0.6,1.053c-0.156,0.37-0.271,0.758-0.34,1.161H89.229z"/>
					<path fill="#FFFFFF" d="M91.844,53.76l0.051-0.521H90.92l0.039-0.418l1.074-1.654h0.592l-0.168,1.682h0.26l-0.041,0.391h-0.26
						l-0.051,0.521H91.844z M91.367,52.86h0.576l0.105-1.068L91.367,52.86z"/>
					<path fill="#FFFFFF" d="M93.033,52.879h0.537l-0.004,0.028c-0.02,0.196-0.01,0.335,0.029,0.413
						c0.035,0.076,0.113,0.114,0.229,0.114c0.113,0,0.197-0.033,0.25-0.103c0.053-0.068,0.09-0.192,0.109-0.368
						c0.018-0.178,0.002-0.296-0.049-0.352s-0.158-0.084-0.322-0.084c-0.033,0-0.064,0-0.088,0s-0.049,0.002-0.072,0.003
						l0.037-0.341h0.039c0.186,0,0.313-0.027,0.389-0.08c0.074-0.052,0.119-0.149,0.135-0.291c0.014-0.13,0.002-0.222-0.033-0.271
						c-0.035-0.051-0.102-0.076-0.203-0.076c-0.096,0-0.17,0.028-0.217,0.086c-0.047,0.055-0.078,0.148-0.092,0.278l-0.008,0.062
						h-0.535c0-0.012,0-0.025,0-0.038s0.002-0.033,0.006-0.06c0.023-0.228,0.109-0.396,0.262-0.51
						c0.152-0.114,0.367-0.17,0.646-0.17c0.258,0,0.449,0.059,0.576,0.176c0.127,0.118,0.178,0.284,0.154,0.499
						c-0.016,0.148-0.059,0.268-0.131,0.361c-0.07,0.094-0.166,0.156-0.285,0.188c0.141,0.031,0.242,0.098,0.299,0.199
						c0.061,0.101,0.08,0.242,0.061,0.421c-0.031,0.284-0.129,0.494-0.291,0.635c-0.162,0.14-0.393,0.21-0.691,0.21
						c-0.287,0-0.488-0.067-0.611-0.202c-0.121-0.136-0.168-0.343-0.139-0.625c0-0.012,0.002-0.028,0.006-0.052
						S93.033,52.889,93.033,52.879z"/>
					<path fill="#FFFFFF" d="M95.072,52.918h0.535L95.6,52.989c-0.018,0.152-0.006,0.27,0.037,0.346
						c0.041,0.079,0.117,0.117,0.221,0.117c0.105,0,0.189-0.045,0.246-0.137c0.059-0.093,0.1-0.242,0.123-0.447
						c0.021-0.189,0.012-0.326-0.033-0.411c-0.043-0.085-0.123-0.128-0.24-0.128c-0.08,0-0.148,0.02-0.203,0.06
						c-0.057,0.037-0.092,0.09-0.104,0.153h-0.504l0.236-1.375h1.473l-0.051,0.42h-1.039l-0.092,0.524
						c0.063-0.05,0.131-0.087,0.199-0.11c0.07-0.024,0.15-0.036,0.242-0.036c0.262,0,0.449,0.073,0.563,0.218
						c0.115,0.145,0.154,0.362,0.121,0.651c-0.041,0.342-0.141,0.589-0.299,0.745c-0.158,0.155-0.391,0.233-0.695,0.233
						c-0.283,0-0.484-0.067-0.602-0.203c-0.119-0.135-0.164-0.343-0.133-0.625L95.072,52.918z"/>
					<path fill="#FFFFFF" d="M97.727,53.76l0.227-1.849h-0.682l0.037-0.31c0.254-0.007,0.457-0.051,0.609-0.133
						c0.152-0.079,0.25-0.197,0.293-0.349h0.385l-0.33,2.64H97.727z"/>
					<path fill="#FFFFFF" d="M99.176,52.918h0.533l-0.01,0.071c-0.02,0.152-0.008,0.27,0.033,0.346
						c0.041,0.079,0.113,0.117,0.217,0.117c0.107,0,0.191-0.045,0.25-0.137c0.059-0.093,0.104-0.242,0.131-0.447
						c0.023-0.189,0.018-0.326-0.025-0.411s-0.121-0.128-0.24-0.128c-0.078,0-0.146,0.02-0.203,0.06
						c-0.057,0.037-0.094,0.09-0.107,0.153h-0.502l0.26-1.375h1.473l-0.057,0.42h-1.041l-0.102,0.524
						c0.064-0.05,0.131-0.087,0.203-0.11c0.07-0.024,0.148-0.036,0.24-0.036c0.262,0,0.449,0.073,0.561,0.218
						s0.148,0.362,0.109,0.651c-0.047,0.342-0.152,0.589-0.311,0.745c-0.162,0.155-0.395,0.233-0.701,0.233
						c-0.283,0-0.482-0.067-0.6-0.203c-0.115-0.135-0.156-0.343-0.121-0.625L99.176,52.918z"/>
					<path fill="#FFFFFF" d="M101.916,52.165c0.053-0.059,0.117-0.104,0.193-0.133c0.078-0.028,0.168-0.044,0.268-0.044
						c0.238,0,0.404,0.067,0.5,0.203c0.094,0.134,0.121,0.343,0.08,0.626c-0.053,0.36-0.154,0.615-0.309,0.766
						c-0.15,0.151-0.379,0.226-0.686,0.226c-0.166,0-0.297-0.023-0.4-0.07c-0.102-0.046-0.18-0.119-0.242-0.223
						c-0.043-0.078-0.068-0.195-0.07-0.353c-0.004-0.156,0.018-0.386,0.059-0.688c0.041-0.304,0.084-0.534,0.129-0.691
						c0.047-0.156,0.1-0.275,0.162-0.35c0.09-0.112,0.197-0.19,0.324-0.239c0.125-0.051,0.281-0.075,0.465-0.075
						c0.238,0,0.418,0.048,0.533,0.145c0.119,0.097,0.162,0.232,0.137,0.409l-0.006,0.039h-0.533l0.002-0.026
						c0.012-0.073-0.002-0.126-0.037-0.161c-0.033-0.036-0.092-0.054-0.176-0.054c-0.107,0-0.191,0.039-0.248,0.121
						c-0.059,0.081-0.102,0.222-0.129,0.421c-0.002,0.018-0.004,0.042-0.008,0.075C101.922,52.121,101.918,52.146,101.916,52.165z
						 M101.813,52.896c-0.027,0.204-0.025,0.343,0.008,0.419c0.029,0.076,0.1,0.115,0.203,0.115c0.107,0,0.184-0.034,0.232-0.101
						c0.051-0.066,0.09-0.208,0.121-0.426c0.029-0.218,0.031-0.36,0-0.426c-0.029-0.067-0.1-0.101-0.209-0.101
						c-0.102,0-0.182,0.037-0.234,0.114C101.881,52.567,101.84,52.701,101.813,52.896z"/>
					<path fill="#FFFFFF" d="M103.84,52.338c-0.125-0.032-0.211-0.097-0.264-0.192c-0.051-0.095-0.066-0.219-0.043-0.374
						c0.031-0.212,0.121-0.373,0.271-0.483c0.15-0.109,0.355-0.165,0.611-0.165c0.258,0,0.445,0.057,0.563,0.169
						c0.117,0.113,0.158,0.278,0.127,0.492c-0.023,0.151-0.074,0.271-0.154,0.361c-0.082,0.094-0.195,0.157-0.338,0.192
						c0.16,0.028,0.268,0.095,0.326,0.196c0.057,0.104,0.07,0.255,0.039,0.458c-0.043,0.279-0.143,0.485-0.299,0.616
						c-0.156,0.132-0.381,0.197-0.674,0.197c-0.283,0-0.486-0.063-0.602-0.189s-0.156-0.321-0.115-0.589
						c0.029-0.208,0.088-0.367,0.176-0.476S103.678,52.372,103.84,52.338z M104.205,52.514c-0.105,0-0.184,0.033-0.234,0.101
						c-0.049,0.065-0.09,0.2-0.119,0.4c-0.023,0.158-0.018,0.268,0.014,0.328c0.031,0.059,0.1,0.088,0.201,0.088
						c0.107,0,0.186-0.032,0.234-0.095c0.051-0.063,0.09-0.184,0.117-0.362c0.025-0.172,0.023-0.289-0.01-0.358
						C104.377,52.548,104.307,52.514,104.205,52.514z M104.059,51.819c-0.021,0.129-0.016,0.22,0.016,0.271
						c0.029,0.053,0.092,0.078,0.182,0.078c0.092,0,0.16-0.027,0.209-0.08c0.047-0.055,0.082-0.143,0.1-0.27
						c0.02-0.128,0.014-0.219-0.02-0.27c-0.031-0.052-0.098-0.078-0.191-0.078c-0.088,0-0.154,0.026-0.199,0.079
						C104.109,51.604,104.076,51.693,104.059,51.819z"/>
					<g>
						<line fill="#FFFFFF" x1="39.131" y1="64.094" x2="72.946" y2="64.094"/>
						<rect x="39.131" y="63.503" fill="#FFFFFF" width="33.815" height="1.181"/>
					</g>
					<g>
						<line fill="#FFFFFF" x1="39.514" y1="66.96" x2="64.672" y2="66.96"/>
						<rect x="39.514" y="66.369" fill="#FFFFFF" width="25.158" height="1.181"/>
					</g>
					<g>
						<line fill="#FFFFFF" x1="39.895" y1="69.827" x2="62.045" y2="69.827"/>
						<rect x="39.895" y="69.236" fill="#FFFFFF" width="22.15" height="1.181"/>
					</g>
					<g>
						<line fill="#FFFFFF" x1="40.276" y1="72.693" x2="72.793" y2="72.693"/>
						<rect x="40.276" y="72.103" fill="#FFFFFF" width="32.517" height="1.182"/>
					</g>
				</g>
			</g>
		</g>
		<g>
			
			<g>
				<text transform="matrix(1.0002 0 0 1 19.3784 127.5029)" fill="#FFFFFF" font-family="'Calibri-Bold'" font-size="17.4">Data Markings</text>
			</g>
		</g>
		<linearGradient id="idMarkingCurveOpacityGradient" gradientUnits="userSpaceOnUse" x1="71.9995" y1="123.8184" x2="71.9995" y2="2.9146">
			<stop  offset="0" style="stop-color:#FFFFFF;stop-opacity:0.1"/>
			<stop  offset="1" style="stop-color:#FFFFFF;stop-opacity:0.2"/>
		</linearGradient>
		<path fill="url(#idMarkingCurveOpacityGradient)" d="M123.813,2.914H20.187c-9.504,0-17.273,7.768-17.273,17.271v103.634
			C14.619,20.68,141.086,20.185,141.086,20.185C141.086,10.682,133.32,2.914,123.813,2.914z"/>
	</g>
</switch>
</svg>
