<?xml version="1.0" encoding="utf-8"?>
<!-- Generator: Adobe Illustrator 16.0.3, SVG Export Plug-In . SVG Version: 6.00 Build 0)  -->
<!DOCTYPE svg PUBLIC "-//W3C//DTD SVG 1.1//EN" "http://www.w3.org/Graphics/SVG/1.1/DTD/svg11.dtd">
<svg version="1.1" id="idObservableLayer"
	 xmlns="http://www.w3.org/2000/svg" xmlns:xlink="http://www.w3.org/1999/xlink" x="0px" y="0px" width="100%" height="100%"
	 viewBox="0 0 144 144" enable-background="new 0 0 144 144" xml:space="preserve">
<switch>
	<g>
		<g>
			<g>
				<linearGradient id="idObservableBackgroundGradient" gradientUnits="userSpaceOnUse" x1="72.0005" y1="143.999" x2="72.0005" y2="0">
					<stop  offset="0" style="stop-color:#000000"/>
					<stop  offset="0.0419" style="stop-color:#0E1117"/>
					<stop  offset="0.1484" style="stop-color:#2E384D"/>
					<stop  offset="0.2591" style="stop-color:#4B5B7D"/>
					<stop  offset="0.3715" style="stop-color:#6379A5"/>
					<stop  offset="0.4862" style="stop-color:#7691C5"/>
					<stop  offset="0.6037" style="stop-color:#86A3DF"/>
					<stop  offset="0.7254" style="stop-color:#90B1F1"/>
					<stop  offset="0.8537" style="stop-color:#97B8FC"/>
					<stop  offset="1" style="stop-color:#99BBFF"/>
				</linearGradient>
				<path fill="url(#idObservableBackgroundGradient)" d="M126.004,0H17.996C8.094,0,0,8.095,0,17.997v108.007c0,9.902,8.094,17.995,17.996,17.995h108.008
					c9.902,0,17.996-8.093,17.996-17.995V17.997C144,8.095,135.906,0,126.004,0z"/>
			</g>
			<defs>
				<filter id="idObservableFilter" filterUnits="userSpaceOnUse" x="0" y="0" width="144" height="144">
					
						<feColorMatrix  type="matrix" values="-1 0 0 0 1  0 -1 0 0 1  0 0 -1 0 1  0 0 0 1 0" color-interpolation-filters="sRGB" result="source"/>
				</filter>
			</defs>
			<mask maskUnits="userSpaceOnUse" x="0" y="0" width="144" height="144" id="idObservableMask">
				<g filter="url(#idObservableFilter)">
					
				</g>
			</mask>
			<g opacity="0.6" mask="url(#idObservableMask)">
				<path d="M126.004,0H17.996C8.094,0,0,8.095,0,17.997v108.007c0,9.902,8.094,17.995,17.996,17.995h108.008
					c9.902,0,17.996-8.093,17.996-17.995V17.997C144,8.095,135.906,0,126.004,0z"/>
			</g>
		</g>
		<g>
			
			<g>
				<g>
					<g>
						<g>
							<path fill="#FFFFFF" d="M84.774,71.807c7.39,0,14.331-2.881,19.552-8.092c5.225-5.241,8.104-12.181,8.104-19.57
								c0-7.392-2.881-14.336-8.104-19.558c-5.221-5.223-12.162-8.102-19.552-8.102s-14.333,2.878-19.552,8.102
								c-5.233,5.221-8.107,12.166-8.107,19.558c0,7.39,2.874,14.33,8.107,19.57C70.442,68.926,77.385,71.807,84.774,71.807
								L84.774,71.807z M84.774,20.953c6.198,0,12.019,2.412,16.401,6.793c9.039,9.04,9.039,23.757,0,32.804
								c-4.383,4.374-10.203,6.783-16.401,6.783c-6.192,0-12.013-2.409-16.396-6.783c-4.383-4.384-6.795-10.212-6.795-16.406
								c0-6.192,2.412-12.019,6.795-16.398C72.761,23.364,78.582,20.953,84.774,20.953L84.774,20.953z M65.458,68.72l-5.255-5.258
								L33.89,89.773l5.27,5.258L65.458,68.72z"/>
						</g>
					</g>
					<g opacity="0.85">
						<path fill="#FFFFFF" d="M90.615,27.711c2.285,0,4.158,1.87,4.158,4.158v24.042c0,2.333-1.783,4.162-4.158,4.162H78.388
							c-2.368,0-4.163-1.829-4.163-4.162V31.869c0-2.288,1.873-4.158,4.163-4.158H90.615z M90.615,55.911V31.869H78.388v24.042
							H90.615z"/>
					</g>
					<g opacity="0.75">
						<path fill="#FFFFFF" d="M123.789,60.614v-3.936c0-0.565,0.256-0.973,0.973-0.973c0.725,0,0.975,0.408,0.975,0.973v4.905
							c0,0.708-0.469,0.975-0.975,0.975h-7.666c-0.51,0-0.977-0.267-0.977-0.975c0-0.697,0.467-0.969,0.977-0.969h2.859V49.356
							h-2.859c-0.51,0-0.977-0.269-0.977-0.973c0-0.701,0.467-0.973,0.977-0.973h4.811v13.203H123.789z"/>
						<path fill="#FFFFFF" d="M24.546,60.614v-3.936c0-0.565,0.25-0.973,0.968-0.973c0.719,0,0.974,0.408,0.974,0.973v4.905
							c0,0.708-0.463,0.975-0.974,0.975h-7.67c-0.501,0-0.973-0.267-0.973-0.975c0-0.697,0.472-0.969,0.973-0.969h2.86V49.356h-2.86
							c-0.501,0-0.973-0.269-0.973-0.973c0-0.701,0.472-0.973,0.973-0.973h4.812v13.203H24.546z"/>
						<path fill="#FFFFFF" d="M38.926,47.248c1.077,0,1.947,0.873,1.947,1.948v11.246c0,1.095-0.833,1.953-1.947,1.953h-5.724
							c-1.108,0-1.954-0.858-1.954-1.953V49.195c0-1.075,0.881-1.948,1.954-1.948H38.926z M38.926,60.441V49.195h-5.724v11.246
							H38.926z"/>
						<path fill="#FFFFFF" d="M11.111,60.684v-3.936c0-0.565,0.254-0.972,0.97-0.972c0.718,0,0.975,0.407,0.975,0.972v4.905
							c0,0.707-0.465,0.975-0.975,0.975H4.41c-0.498,0-0.973-0.268-0.973-0.975c0-0.696,0.475-0.97,0.973-0.97h2.86V49.426H4.41
							c-0.498,0-0.973-0.268-0.973-0.971c0-0.7,0.475-0.974,0.973-0.974h4.813v13.203H11.111z"/>
						<path fill="#FFFFFF" d="M138.162,47.248c1.074,0,1.949,0.873,1.949,1.948v11.246c0,1.095-0.836,1.953-1.949,1.953h-5.717
							c-1.109,0-1.951-0.858-1.951-1.953V49.195c0-1.075,0.879-1.948,1.951-1.948H138.162z M138.162,60.441V49.195h-5.717v11.246
							H138.162z"/>
						<path fill="#FFFFFF" d="M53.141,60.441v-3.933c0-0.559,0.247-0.97,0.973-0.97c0.718,0,0.973,0.411,0.973,0.97v4.912
							c0,0.697-0.466,0.974-0.973,0.974h-7.672c-0.503,0-0.968-0.277-0.968-0.974c0-0.704,0.465-0.979,0.968-0.979h2.864V49.195
							h-2.864c-0.503,0-0.968-0.277-0.968-0.975c0-0.7,0.465-0.973,0.968-0.973h4.81v13.193H53.141z"/>
					</g>
				</g>
			</g>
		</g>
		<linearGradient id="idObservableCurveOpacityGradient" gradientUnits="userSpaceOnUse" x1="72" y1="123.8174" x2="72" y2="2.9126">
			<stop  offset="0" style="stop-color:#FFFFFF;stop-opacity:0.15"/>
			<stop  offset="1" style="stop-color:#FFFFFF;stop-opacity:0.25"/>
		</linearGradient>
		<path fill="url(#idObservableCurveOpacityGradient)" d="M123.814,2.912H20.185c-9.505,0-17.271,7.769-17.271,17.27v103.635
			C14.615,20.68,141.086,20.182,141.086,20.182C141.086,10.681,133.32,2.912,123.814,2.912z"/>
		<g>
			
			<g>
				<text transform="matrix(1 0 0 1 23.1543 127.5273)" fill="#FFFFFF" font-family="'Calibri-Bold'" font-size="20.6661">Observable</text>
			</g>
		</g>
	</g>
</switch>
</svg>
