<?xml version="1.0" encoding="UTF-8" standalone="no"?>
<!-- Generator: Adobe Illustrator 16.0.3, SVG Export Plug-In . SVG Version: 6.00 Build 0)  -->

<svg
   xmlns:dc="http://purl.org/dc/elements/1.1/"
   xmlns:cc="http://creativecommons.org/ns#"
   xmlns:rdf="http://www.w3.org/1999/02/22-rdf-syntax-ns#"
   xmlns:svg="http://www.w3.org/2000/svg"
   xmlns="http://www.w3.org/2000/svg"
   xmlns:xlink="http://www.w3.org/1999/xlink"
   xmlns:sodipodi="http://sodipodi.sourceforge.net/DTD/sodipodi-0.dtd"
   xmlns:inkscape="http://www.inkscape.org/namespaces/inkscape"
   version="1.1"
   id="idSightingLayer"
   x="0px"
   y="0px"
   width="100%"
   height="100%"
   viewBox="0 0 154.98304 156.20338"
   enable-background="new 0 0 144 144"
   xml:space="preserve"
   inkscape:version="0.48.2 r9819"
   sodipodi:docname="sighting.svg"><metadata
   id="metadata13341"><rdf:RDF><cc:Work
       rdf:about=""><dc:format>image/svg+xml</dc:format><dc:type
         rdf:resource="http://purl.org/dc/dcmitype/StillImage" /><dc:title></dc:title></cc:Work></rdf:RDF></metadata><defs
   id="defs13339">
	
<linearGradient
   inkscape:collect="always"
   xlink:href="#idSightingBackgroundGradient"
   id="linearGradient13416"
   gradientUnits="userSpaceOnUse"
   x1="72.000504"
   y1="144"
   x2="72.000504"
   y2="0.00048828131" /><linearGradient
   inkscape:collect="always"
   xlink:href="#idSightingCurveOpacityGradient"
   id="linearGradient13418"
   gradientUnits="userSpaceOnUse"
   x1="72.000504"
   y1="123.8174"
   x2="72.000504"
   y2="2.9145999" /><linearGradient
   inkscape:collect="always"
   xlink:href="#idSightingBackgroundGradient"
   id="linearGradient13461"
   gradientUnits="userSpaceOnUse"
   x1="72.000504"
   y1="144"
   x2="72.000504"
   y2="0.00048828131" /><linearGradient
   inkscape:collect="always"
   xlink:href="#idSightingCurveOpacityGradient"
   id="linearGradient13463"
   gradientUnits="userSpaceOnUse"
   x1="72.000504"
   y1="123.8174"
   x2="72.000504"
   y2="2.9145999" /><linearGradient
   inkscape:collect="always"
   xlink:href="#idSightingBackgroundGradient"
   id="linearGradient13535"
   gradientUnits="userSpaceOnUse"
   x1="72.000504"
   y1="144"
   x2="72.000504"
   y2="0.00048828131" /><linearGradient
   inkscape:collect="always"
   xlink:href="#idSightingCurveOpacityGradient"
   id="linearGradient13537"
   gradientUnits="userSpaceOnUse"
   x1="72.000504"
   y1="123.8174"
   x2="72.000504"
   y2="2.9145999" /><linearGradient
   inkscape:collect="always"
   xlink:href="#idSightingBackgroundGradient"
   id="linearGradient13609"
   gradientUnits="userSpaceOnUse"
   x1="72.000504"
   y1="144"
   x2="72.000504"
   y2="0.00048828131" /><linearGradient
   inkscape:collect="always"
   xlink:href="#idSightingCurveOpacityGradient"
   id="linearGradient13611"
   gradientUnits="userSpaceOnUse"
   x1="72.000504"
   y1="123.8174"
   x2="72.000504"
   y2="2.9145999" /><linearGradient
   inkscape:collect="always"
   xlink:href="#idSightingBackgroundGradient"
   id="linearGradient13720"
   gradientUnits="userSpaceOnUse"
   x1="72.000504"
   y1="144"
   x2="72.000504"
   y2="0.00048828131" /><linearGradient
   inkscape:collect="always"
   xlink:href="#idSightingCurveOpacityGradient"
   id="linearGradient13722"
   gradientUnits="userSpaceOnUse"
   x1="72.000504"
   y1="123.8174"
   x2="72.000504"
   y2="2.9145999" /><linearGradient
   inkscape:collect="always"
   xlink:href="#idSightingBackgroundGradient"
   id="linearGradient13724"
   gradientUnits="userSpaceOnUse"
   x1="72.000504"
   y1="144"
   x2="72.000504"
   y2="0.00048828131" /><linearGradient
   inkscape:collect="always"
   xlink:href="#idSightingCurveOpacityGradient"
   id="linearGradient13726"
   gradientUnits="userSpaceOnUse"
   x1="72.000504"
   y1="123.8174"
   x2="72.000504"
   y2="2.9145999" /><linearGradient
   inkscape:collect="always"
   xlink:href="#idSightingBackgroundGradient"
   id="linearGradient13728"
   gradientUnits="userSpaceOnUse"
   x1="72.000504"
   y1="144"
   x2="72.000504"
   y2="0.00048828131" /><linearGradient
   inkscape:collect="always"
   xlink:href="#idSightingCurveOpacityGradient"
   id="linearGradient13730"
   gradientUnits="userSpaceOnUse"
   x1="72.000504"
   y1="123.8174"
   x2="72.000504"
   y2="2.9145999" /><linearGradient
   inkscape:collect="always"
   xlink:href="#idSightingBackgroundGradient"
   id="linearGradient13837"
   gradientUnits="userSpaceOnUse"
   x1="72.000504"
   y1="144"
   x2="72.000504"
   y2="0.00048828131" /><linearGradient
   inkscape:collect="always"
   xlink:href="#idSightingCurveOpacityGradient"
   id="linearGradient13839"
   gradientUnits="userSpaceOnUse"
   x1="72.000504"
   y1="123.8174"
   x2="72.000504"
   y2="2.9145999" /><linearGradient
   inkscape:collect="always"
   xlink:href="#idSightingBackgroundGradient"
   id="linearGradient13948"
   gradientUnits="userSpaceOnUse"
   x1="72.000504"
   y1="144"
   x2="72.000504"
   y2="0.00048828131" /><linearGradient
   inkscape:collect="always"
   xlink:href="#idSightingCurveOpacityGradient"
   id="linearGradient13950"
   gradientUnits="userSpaceOnUse"
   x1="72.000504"
   y1="123.8174"
   x2="72.000504"
   y2="2.9145999" /><linearGradient
   inkscape:collect="always"
   xlink:href="#idSightingBackgroundGradient"
   id="linearGradient13952"
   gradientUnits="userSpaceOnUse"
   x1="72.000504"
   y1="144"
   x2="72.000504"
   y2="0.00048828131" /><linearGradient
   inkscape:collect="always"
   xlink:href="#idSightingCurveOpacityGradient"
   id="linearGradient13954"
   gradientUnits="userSpaceOnUse"
   x1="72.000504"
   y1="123.8174"
   x2="72.000504"
   y2="2.9145999" /><linearGradient
   inkscape:collect="always"
   xlink:href="#idSightingBackgroundGradient"
   id="linearGradient13956"
   gradientUnits="userSpaceOnUse"
   x1="72.000504"
   y1="144"
   x2="72.000504"
   y2="0.00048828131" /><linearGradient
   inkscape:collect="always"
   xlink:href="#idSightingCurveOpacityGradient"
   id="linearGradient13958"
   gradientUnits="userSpaceOnUse"
   x1="72.000504"
   y1="123.8174"
   x2="72.000504"
   y2="2.9145999" /></defs><sodipodi:namedview
   pagecolor="#ffffff"
   bordercolor="#666666"
   borderopacity="1"
   objecttolerance="10"
   gridtolerance="10"
   guidetolerance="10"
   inkscape:pageopacity="0"
   inkscape:pageshadow="2"
   inkscape:window-width="1613"
   inkscape:window-height="1086"
   id="namedview13337"
   showgrid="false"
   fit-margin-top="0"
   fit-margin-left="0"
   fit-margin-right="0"
   fit-margin-bottom="0"
   inkscape:zoom="1.6388889"
   inkscape:cx="26.237291"
   inkscape:cy="76.881342"
   inkscape:window-x="326"
   inkscape:window-y="67"
   inkscape:window-maximized="0"
   inkscape:current-layer="g13267" />
<g
   id="g13267"
   transform="translate(-325.22035,14.644067)">
		
		<g
   id="g13306">
			
			
		</g>
		<linearGradient
   y2="2.9145999"
   x2="72.000504"
   y1="123.8174"
   x1="72.000504"
   gradientUnits="userSpaceOnUse"
   id="idSightingCurveOpacityGradient">
			<stop
   id="stop13313"
   style="stop-color:#FFFFFF;stop-opacity:0.1"
   offset="0" />
			<stop
   id="stop13315"
   style="stop-color:#FFFFFF;stop-opacity:0.2"
   offset="1" />
		</linearGradient>
		
		
		
		
	<g
   id="g13841"
   transform="translate(340.47459,-0.61016951)"><g
     id="g13465"
     transform="translate(-283.11865,-5.4915251)"><rect
       ry="19.860003"
       transform="translate(279.45763,-7.3220339)"
       y="-1.2203389"
       x="-0.61016947"
       height="145.22034"
       width="144"
       id="rect13467"
       style="fill:#000000" /><g
       transform="matrix(0.96186441,0,0,0.97033898,281.89831,-6.1016949)"
       id="g13469"><g
         id="g13471">
			<g
   id="g13473">
				<linearGradient
   y2="0.00048828131"
   x2="72.000504"
   y1="144"
   x1="72.000504"
   gradientUnits="userSpaceOnUse"
   id="linearGradient13475">
					<stop
   id="stop13477"
   style="stop-color:#000000"
   offset="0" />
					<stop
   id="stop13479"
   style="stop-color:#0F1507"
   offset="0.0492" />
					<stop
   id="stop13481"
   style="stop-color:#304416"
   offset="0.1707" />
					<stop
   id="stop13483"
   style="stop-color:#4C6C22"
   offset="0.2965" />
					<stop
   id="stop13485"
   style="stop-color:#638C2D"
   offset="0.4248" />
					<stop
   id="stop13487"
   style="stop-color:#75A635"
   offset="0.5563" />
					<stop
   id="stop13489"
   style="stop-color:#82B83A"
   offset="0.6925" />
					<stop
   id="stop13491"
   style="stop-color:#8AC33E"
   offset="0.8362" />
					<stop
   id="stop13493"
   style="stop-color:#8CC63F"
   offset="1" />
				</linearGradient>
				<path
   inkscape:connector-curvature="0"
   style="fill:url(#linearGradient13948)"
   id="path13495"
   d="M 126,0 H 18.001 C 8.097,0 0,8.097 0,17.997 V 126.001 C 0,135.905 8.097,144 18.001,144 H 126 c 9.906,0 18,-8.095 18,-17.999 V 17.997 C 144,8.097 135.906,0 126,0 z" />
			</g>
			<defs
   id="defs13497">
				<filter
   color-interpolation-filters="sRGB"
   height="144"
   width="144"
   y="0"
   x="0"
   filterUnits="userSpaceOnUse"
   id="filter13499">
					
						<feColorMatrix
   id="feColorMatrix13501"
   result="source"
   color-interpolation-filters="sRGB"
   values="-1 0 0 0 1  0 -1 0 0 1  0 0 -1 0 1  0 0 0 1 0"
   type="matrix" />
				</filter>
			</defs>
			<mask
   id="mask13503"
   height="144"
   width="144"
   y="0"
   x="0"
   maskUnits="userSpaceOnUse">
				<g
   style="filter:url(#idSightingFilter)"
   id="g13505">
					
				</g>
			</mask>
			<g
   style="opacity:0.6"
   id="g13507"
   mask="url(#idSightingMask)">
				<path
   inkscape:connector-curvature="0"
   id="path13509"
   d="M 126,0 H 18.001 C 8.097,0 0,8.097 0,17.997 V 126.001 C 0,135.905 8.097,144 18.001,144 H 126 c 9.906,0 18,-8.095 18,-17.999 V 17.997 C 144,8.097 135.906,0 126,0 z" />
			</g>
		</g><g
         id="g13511"
         transform="translate(-11.59322,-0.6101695)">
				<text
   style="font-size:20.66720009px;fill:#ffffff;font-family:Calibri-Bold"
   id="text13513"
   font-size="20.6672"
   transform="matrix(1.0002,0,0,1,33.5225,127.5029)">Sightings</text>

			</g><path
         inkscape:connector-curvature="0"
         style="fill:url(#linearGradient13950)"
         id="path13515"
         d="M 123.814,2.914 H 20.187 c -9.504,0 -17.273,7.768 -17.273,17.271 V 123.818 C 14.62,20.68 141.088,20.185 141.088,20.185 c 0,-9.503 -7.766,-17.271 -17.274,-17.271 z" /><g
         id="g13517">
			
			<g
   id="g13519">
				<path
   style="fill:#ffffff"
   inkscape:connector-curvature="0"
   id="path13521"
   d="M 106.773,105.689 H 37.235 L 59.588,65.21 c 3.046,2.036 7.244,3.292 11.878,3.292 5.035,0 9.55,-1.48 12.64,-3.837 l 22.667,41.024 z" />
			</g>
		</g><g
         id="g13523">
			
			<g
   id="g13525">
				<path
   style="fill:#ffffff"
   inkscape:connector-curvature="0"
   id="path13527"
   d="m 109.459,55.022 c -6.199,1.229 -13.639,2.12 -21.764,2.632 -1.176,0.075 -2.371,0.142 -3.578,0.206 -0.762,0.033 -1.523,0.076 -2.286,0.098 -3.514,0.143 -7.124,0.218 -10.789,0.218 -3.014,0 -5.994,-0.054 -8.908,-0.151 -1.109,-0.033 -2.22,-0.077 -3.307,-0.131 -1.208,-0.044 -2.404,-0.108 -3.579,-0.175 -8.452,-0.511 -16.196,-1.424 -22.624,-2.696 -4.71,-0.936 -8.473,-2.022 -11.215,-3.219 0.576,4.382 15.598,8.047 35.971,9.188 0.642,0.686 1.381,1.327 2.208,1.903 3.046,2.153 7.244,3.48 11.878,3.48 5.035,0 9.55,-1.565 12.64,-4.057 0.543,-0.425 1.033,-0.881 1.479,-1.37 19.928,-1.207 34.523,-4.828 35.102,-9.146 -2.744,1.198 -6.517,2.285 -11.228,3.22 z m -37.993,9.189 c -3.861,0 -7.342,-1.152 -9.801,-3.012 3.046,0.12 6.179,0.174 9.377,0.174 3.513,0 6.949,-0.065 10.256,-0.207 -2.458,1.871 -5.96,3.045 -9.832,3.045 z" />
			</g>
		</g><g
         id="g13529">
			
			<g
   id="g13531">
				<path
   style="fill:#ffffff"
   inkscape:connector-curvature="0"
   id="path13533"
   d="m 91.578,36.241 c -0.152,-8.189 -9.519,-14.79 -21.06,-14.79 -11.572,0 -20.959,6.645 -21.047,14.866 -19.165,1.522 -32.564,5.057 -32.564,9.45 0,1.533 1.62,2.99 4.546,4.307 7.331,3.317 22.886,5.752 41.55,6.296 2.621,0.077 5.309,0.12 8.039,0.12 3.393,0 6.711,-0.064 9.93,-0.174 4.667,-0.175 9.126,-0.468 13.292,-0.859 11.727,-1.098 21.135,-3.023 26.367,-5.383 2.926,-1.316 4.557,-2.773 4.557,-4.307 0,-4.48 -13.891,-8.057 -33.61,-9.526 z m -18.817,4.361 c -0.512,0.022 -1.023,0.033 -1.545,0.033 -0.229,0.011 -0.457,0.011 -0.697,0.011 -9.256,0 -16.75,-2.045 -16.75,-4.567 0,-6.591 7.494,-11.93 16.75,-11.93 9.268,0 16.763,5.339 16.763,11.93 -10e-4,2.316 -6.32,4.23 -14.521,4.523 z" />
			</g>
		</g></g></g><g
     transform="translate(-288,3.3898289e-8)"
     id="g13425"><rect
       style="fill:#000000"
       id="rect13420"
       width="144"
       height="145.22034"
       x="-0.61016947"
       y="-1.2203389"
       transform="translate(279.45763,-7.3220339)"
       ry="19.860003" /><g
       id="g13382"
       transform="matrix(0.96186441,0,0,0.97033898,281.89831,-6.1016949)"><g
         id="g13269">
			<g
   id="g13271">
				<linearGradient
   id="idSightingBackgroundGradient"
   gradientUnits="userSpaceOnUse"
   x1="72.000504"
   y1="144"
   x2="72.000504"
   y2="0.00048828131">
					<stop
   offset="0"
   style="stop-color:#000000"
   id="stop13274" />
					<stop
   offset="0.0492"
   style="stop-color:#0F1507"
   id="stop13276" />
					<stop
   offset="0.1707"
   style="stop-color:#304416"
   id="stop13278" />
					<stop
   offset="0.2965"
   style="stop-color:#4C6C22"
   id="stop13280" />
					<stop
   offset="0.4248"
   style="stop-color:#638C2D"
   id="stop13282" />
					<stop
   offset="0.5563"
   style="stop-color:#75A635"
   id="stop13284" />
					<stop
   offset="0.6925"
   style="stop-color:#82B83A"
   id="stop13286" />
					<stop
   offset="0.8362"
   style="stop-color:#8AC33E"
   id="stop13288" />
					<stop
   offset="1"
   style="stop-color:#8CC63F"
   id="stop13290" />
				</linearGradient>
				<path
   d="M 126,0 H 18.001 C 8.097,0 0,8.097 0,17.997 V 126.001 C 0,135.905 8.097,144 18.001,144 H 126 c 9.906,0 18,-8.095 18,-17.999 V 17.997 C 144,8.097 135.906,0 126,0 z"
   id="path13292"
   style="fill:url(#linearGradient13952)"
   inkscape:connector-curvature="0" />
			</g>
			<defs
   id="defs13294">
				<filter
   id="idSightingFilter"
   filterUnits="userSpaceOnUse"
   x="0"
   y="0"
   width="144"
   height="144"
   color-interpolation-filters="sRGB">
					
						<feColorMatrix
   type="matrix"
   values="-1 0 0 0 1  0 -1 0 0 1  0 0 -1 0 1  0 0 0 1 0"
   color-interpolation-filters="sRGB"
   result="source"
   id="feColorMatrix13297" />
				</filter>
			</defs>
			<mask
   maskUnits="userSpaceOnUse"
   x="0"
   y="0"
   width="144"
   height="144"
   id="idSightingMask">
				<g
   id="g13300"
   style="filter:url(#idSightingFilter)">
					
				</g>
			</mask>
			<g
   mask="url(#idSightingMask)"
   id="g13302"
   style="opacity:0.6">
				<path
   d="M 126,0 H 18.001 C 8.097,0 0,8.097 0,17.997 V 126.001 C 0,135.905 8.097,144 18.001,144 H 126 c 9.906,0 18,-8.095 18,-17.999 V 17.997 C 144,8.097 135.906,0 126,0 z"
   id="path13304"
   inkscape:connector-curvature="0" />
			</g>
		</g><g
         transform="translate(-11.59322,-0.6101695)"
         id="g13308">
				<text
   transform="matrix(1.0002,0,0,1,33.5225,127.5029)"
   font-size="20.6672"
   id="text13310"
   style="font-size:20.66720009px;fill:#ffffff;font-family:Calibri-Bold">Sightings</text>

			</g><path
         d="M 123.814,2.914 H 20.187 c -9.504,0 -17.273,7.768 -17.273,17.271 V 123.818 C 14.62,20.68 141.088,20.185 141.088,20.185 c 0,-9.503 -7.766,-17.271 -17.274,-17.271 z"
         id="path13317"
         style="fill:url(#linearGradient13954)"
         inkscape:connector-curvature="0" /><g
         id="g13319">
			
			<g
   id="g13321">
				<path
   d="M 106.773,105.689 H 37.235 L 59.588,65.21 c 3.046,2.036 7.244,3.292 11.878,3.292 5.035,0 9.55,-1.48 12.64,-3.837 l 22.667,41.024 z"
   id="path13323"
   inkscape:connector-curvature="0"
   style="fill:#ffffff" />
			</g>
		</g><g
         id="g13325">
			
			<g
   id="g13327">
				<path
   d="m 109.459,55.022 c -6.199,1.229 -13.639,2.12 -21.764,2.632 -1.176,0.075 -2.371,0.142 -3.578,0.206 -0.762,0.033 -1.523,0.076 -2.286,0.098 -3.514,0.143 -7.124,0.218 -10.789,0.218 -3.014,0 -5.994,-0.054 -8.908,-0.151 -1.109,-0.033 -2.22,-0.077 -3.307,-0.131 -1.208,-0.044 -2.404,-0.108 -3.579,-0.175 -8.452,-0.511 -16.196,-1.424 -22.624,-2.696 -4.71,-0.936 -8.473,-2.022 -11.215,-3.219 0.576,4.382 15.598,8.047 35.971,9.188 0.642,0.686 1.381,1.327 2.208,1.903 3.046,2.153 7.244,3.48 11.878,3.48 5.035,0 9.55,-1.565 12.64,-4.057 0.543,-0.425 1.033,-0.881 1.479,-1.37 19.928,-1.207 34.523,-4.828 35.102,-9.146 -2.744,1.198 -6.517,2.285 -11.228,3.22 z m -37.993,9.189 c -3.861,0 -7.342,-1.152 -9.801,-3.012 3.046,0.12 6.179,0.174 9.377,0.174 3.513,0 6.949,-0.065 10.256,-0.207 -2.458,1.871 -5.96,3.045 -9.832,3.045 z"
   id="path13329"
   inkscape:connector-curvature="0"
   style="fill:#ffffff" />
			</g>
		</g><g
         id="g13331">
			
			<g
   id="g13333">
				<path
   d="m 91.578,36.241 c -0.152,-8.189 -9.519,-14.79 -21.06,-14.79 -11.572,0 -20.959,6.645 -21.047,14.866 -19.165,1.522 -32.564,5.057 -32.564,9.45 0,1.533 1.62,2.99 4.546,4.307 7.331,3.317 22.886,5.752 41.55,6.296 2.621,0.077 5.309,0.12 8.039,0.12 3.393,0 6.711,-0.064 9.93,-0.174 4.667,-0.175 9.126,-0.468 13.292,-0.859 11.727,-1.098 21.135,-3.023 26.367,-5.383 2.926,-1.316 4.557,-2.773 4.557,-4.307 0,-4.48 -13.891,-8.057 -33.61,-9.526 z m -18.817,4.361 c -0.512,0.022 -1.023,0.033 -1.545,0.033 -0.229,0.011 -0.457,0.011 -0.697,0.011 -9.256,0 -16.75,-2.045 -16.75,-4.567 0,-6.591 7.494,-11.93 16.75,-11.93 9.268,0 16.763,5.339 16.763,11.93 -10e-4,2.316 -6.32,4.23 -14.521,4.523 z"
   id="path13335"
   inkscape:connector-curvature="0"
   style="fill:#ffffff" />
			</g>
		</g></g></g><g
     transform="translate(-294.1017,5.4915234)"
     id="g13539"><rect
       style="fill:#000000"
       id="rect13541"
       width="144"
       height="145.22034"
       x="-0.61016947"
       y="-1.2203389"
       transform="translate(279.45763,-7.3220339)"
       ry="19.860003" /><g
       id="g13543"
       transform="matrix(0.96186441,0,0,0.97033898,281.89831,-6.1016949)"><g
         id="g13545">
			<g
   id="g13547">
				<linearGradient
   id="linearGradient13549"
   gradientUnits="userSpaceOnUse"
   x1="72.000504"
   y1="144"
   x2="72.000504"
   y2="0.00048828131">
					<stop
   offset="0"
   style="stop-color:#000000"
   id="stop13551" />
					<stop
   offset="0.0492"
   style="stop-color:#0F1507"
   id="stop13553" />
					<stop
   offset="0.1707"
   style="stop-color:#304416"
   id="stop13555" />
					<stop
   offset="0.2965"
   style="stop-color:#4C6C22"
   id="stop13557" />
					<stop
   offset="0.4248"
   style="stop-color:#638C2D"
   id="stop13559" />
					<stop
   offset="0.5563"
   style="stop-color:#75A635"
   id="stop13561" />
					<stop
   offset="0.6925"
   style="stop-color:#82B83A"
   id="stop13563" />
					<stop
   offset="0.8362"
   style="stop-color:#8AC33E"
   id="stop13565" />
					<stop
   offset="1"
   style="stop-color:#8CC63F"
   id="stop13567" />
				</linearGradient>
				<path
   d="M 126,0 H 18.001 C 8.097,0 0,8.097 0,17.997 V 126.001 C 0,135.905 8.097,144 18.001,144 H 126 c 9.906,0 18,-8.095 18,-17.999 V 17.997 C 144,8.097 135.906,0 126,0 z"
   id="path13569"
   style="fill:url(#linearGradient13956)"
   inkscape:connector-curvature="0" />
			</g>
			<defs
   id="defs13571">
				<filter
   id="filter13573"
   filterUnits="userSpaceOnUse"
   x="0"
   y="0"
   width="144"
   height="144"
   color-interpolation-filters="sRGB">
					
						<feColorMatrix
   type="matrix"
   values="-1 0 0 0 1  0 -1 0 0 1  0 0 -1 0 1  0 0 0 1 0"
   color-interpolation-filters="sRGB"
   result="source"
   id="feColorMatrix13575" />
				</filter>
			</defs>
			<mask
   maskUnits="userSpaceOnUse"
   x="0"
   y="0"
   width="144"
   height="144"
   id="mask13577">
				<g
   id="g13579"
   style="filter:url(#idSightingFilter)">
					
				</g>
			</mask>
			<g
   mask="url(#idSightingMask)"
   id="g13581"
   style="opacity:0.6">
				<path
   d="M 126,0 H 18.001 C 8.097,0 0,8.097 0,17.997 V 126.001 C 0,135.905 8.097,144 18.001,144 H 126 c 9.906,0 18,-8.095 18,-17.999 V 17.997 C 144,8.097 135.906,0 126,0 z"
   id="path13583"
   inkscape:connector-curvature="0" />
			</g>
		</g><g
         transform="translate(-11.59322,-0.6101695)"
         id="g13585">
				<text
   transform="matrix(1.0002,0,0,1,33.5225,127.5029)"
   font-size="20.6672"
   id="text13587"
   style="font-size:20.66720009px;fill:#ffffff;font-family:Calibri-Bold">Sightings</text>

			</g><path
         d="M 123.814,2.914 H 20.187 c -9.504,0 -17.273,7.768 -17.273,17.271 V 123.818 C 14.62,20.68 141.088,20.185 141.088,20.185 c 0,-9.503 -7.766,-17.271 -17.274,-17.271 z"
         id="path13589"
         style="fill:url(#linearGradient13958)"
         inkscape:connector-curvature="0" /><g
         id="g13591">
			
			<g
   id="g13593">
				<path
   d="M 106.773,105.689 H 37.235 L 59.588,65.21 c 3.046,2.036 7.244,3.292 11.878,3.292 5.035,0 9.55,-1.48 12.64,-3.837 l 22.667,41.024 z"
   id="path13595"
   inkscape:connector-curvature="0"
   style="fill:#ffffff" />
			</g>
		</g><g
         id="g13597">
			
			<g
   id="g13599">
				<path
   d="m 109.459,55.022 c -6.199,1.229 -13.639,2.12 -21.764,2.632 -1.176,0.075 -2.371,0.142 -3.578,0.206 -0.762,0.033 -1.523,0.076 -2.286,0.098 -3.514,0.143 -7.124,0.218 -10.789,0.218 -3.014,0 -5.994,-0.054 -8.908,-0.151 -1.109,-0.033 -2.22,-0.077 -3.307,-0.131 -1.208,-0.044 -2.404,-0.108 -3.579,-0.175 -8.452,-0.511 -16.196,-1.424 -22.624,-2.696 -4.71,-0.936 -8.473,-2.022 -11.215,-3.219 0.576,4.382 15.598,8.047 35.971,9.188 0.642,0.686 1.381,1.327 2.208,1.903 3.046,2.153 7.244,3.48 11.878,3.48 5.035,0 9.55,-1.565 12.64,-4.057 0.543,-0.425 1.033,-0.881 1.479,-1.37 19.928,-1.207 34.523,-4.828 35.102,-9.146 -2.744,1.198 -6.517,2.285 -11.228,3.22 z m -37.993,9.189 c -3.861,0 -7.342,-1.152 -9.801,-3.012 3.046,0.12 6.179,0.174 9.377,0.174 3.513,0 6.949,-0.065 10.256,-0.207 -2.458,1.871 -5.96,3.045 -9.832,3.045 z"
   id="path13601"
   inkscape:connector-curvature="0"
   style="fill:#ffffff" />
			</g>
		</g><g
         id="g13603">
			
			<g
   id="g13605">
				<path
   d="m 91.578,36.241 c -0.152,-8.189 -9.519,-14.79 -21.06,-14.79 -11.572,0 -20.959,6.645 -21.047,14.866 -19.165,1.522 -32.564,5.057 -32.564,9.45 0,1.533 1.62,2.99 4.546,4.307 7.331,3.317 22.886,5.752 41.55,6.296 2.621,0.077 5.309,0.12 8.039,0.12 3.393,0 6.711,-0.064 9.93,-0.174 4.667,-0.175 9.126,-0.468 13.292,-0.859 11.727,-1.098 21.135,-3.023 26.367,-5.383 2.926,-1.316 4.557,-2.773 4.557,-4.307 0,-4.48 -13.891,-8.057 -33.61,-9.526 z m -18.817,4.361 c -0.512,0.022 -1.023,0.033 -1.545,0.033 -0.229,0.011 -0.457,0.011 -0.697,0.011 -9.256,0 -16.75,-2.045 -16.75,-4.567 0,-6.591 7.494,-11.93 16.75,-11.93 9.268,0 16.763,5.339 16.763,11.93 -10e-4,2.316 -6.32,4.23 -14.521,4.523 z"
   id="path13607"
   inkscape:connector-curvature="0"
   style="fill:#ffffff" />
			</g>
		</g></g></g></g></g>
</svg>