<?xml version="1.0" encoding="utf-8"?>
<!-- Generator: Adobe Illustrator 16.0.3, SVG Export Plug-In . SVG Version: 6.00 Build 0)  -->
<!DOCTYPE svg PUBLIC "-//W3C//DTD SVG 1.1//EN" "http://www.w3.org/Graphics/SVG/1.1/DTD/svg11.dtd">
<svg version="1.1" id="idThreatActorLayer"
	 xmlns="http://www.w3.org/2000/svg" xmlns:xlink="http://www.w3.org/1999/xlink" x="0px" y="0px" width="100%" height="100%"
	 viewBox="0 0 144 144" enable-background="new 0 0 144 144" xml:space="preserve">
<switch>
	<g>
		<g>
			<g>
				<linearGradient id="idThreatActorBackgroundGradient" gradientUnits="userSpaceOnUse" x1="72.0005" y1="144" x2="72.0005" y2="0">
					<stop  offset="0" style="stop-color:#000000"/>
					<stop  offset="0.01" style="stop-color:#050101"/>
					<stop  offset="0.1202" style="stop-color:#3B0709"/>
					<stop  offset="0.2344" style="stop-color:#6B0D10"/>
					<stop  offset="0.3506" style="stop-color:#931116"/>
					<stop  offset="0.469" style="stop-color:#B3151B"/>
					<stop  offset="0.5905" style="stop-color:#CD181F"/>
					<stop  offset="0.7162" style="stop-color:#DF1A22"/>
					<stop  offset="0.8489" style="stop-color:#EA1C23"/>
					<stop  offset="1" style="stop-color:#ED1C24"/>
				</linearGradient>
				<path fill="url(#idThreatActorBackgroundGradient)" d="M126.004,0H17.997C8.094,0,0,8.098,0,17.999v108.005C0,135.908,8.094,144,17.997,144h108.007
					c9.9,0,17.996-8.092,17.996-17.996V17.999C144,8.098,135.904,0,126.004,0z"/>
			</g>
			<defs>
				<filter id="idThreatActorFilter" filterUnits="userSpaceOnUse" x="0" y="0" width="144" height="144">
					
						<feColorMatrix  type="matrix" values="-1 0 0 0 1  0 -1 0 0 1  0 0 -1 0 1  0 0 0 1 0" color-interpolation-filters="sRGB" result="source"/>
				</filter>
			</defs>
			<mask maskUnits="userSpaceOnUse" x="0" y="0" width="144" height="144" id="idThreatActorMask">
				<g filter="url(#idThreatActorFilter)">
					
				</g>
			</mask>
			<g opacity="0.6" mask="url(#idThreatActorMask)">
				<path d="M126.004,0H17.997C8.094,0,0,8.098,0,17.999v108.005C0,135.908,8.094,144,17.997,144h108.007
					c9.9,0,17.996-8.092,17.996-17.996V17.999C144,8.098,135.904,0,126.004,0z"/>
			</g>
		</g>
		<g>
			
			<g>
				<text transform="matrix(1 0 0 1 20.3877 127.4375)" fill="#FFFFFF" font-family="'Calibri-Bold'" font-size="20.6674">ThreatActor</text>
			</g>
		</g>
		<g>
			
			<g>
				<path fill-rule="evenodd" clip-rule="evenodd" fill="#FFFFFF" d="M94.604,68.356c-0.217,3.891-1.582,7.705-3.334,10.833
					c0.824,1.658,1.982,3.381,0.834,5.555c2.809,2.588,3.4,6.316,2.777,10.162L50.485,94.91c-0.982-3.879-0.509-7.721,3.291-10.166
					c-1.094-0.84-0.186-3.318,0.554-5c-1.467-3.264-3.841-8.689-4.033-11.81c-0.766,0-1.369-0.605-1.369-2.918
					c0-1.271-1.078-4.014-1.264-5.824c-0.138-1.35-0.865-1.648-0.953-2.84c-0.089-1.229,0.289-3.154,0.398-4.385
					c0.256-2.939-0.172-5.799,0-8.607c0.802-13.244,10.065-27.997,24.996-26.945C87.539,17.51,95.709,28.668,96.27,44.749
					c0.201,5.778,2.076,11.637,0.225,15.318C95.232,62.577,96.174,67.667,94.604,68.356z M54.886,52.803
					c3.373,2.043,11.583-4.341,16.109-7.778C64.517,41.327,49.753,43.493,54.886,52.803z M74.33,45.025
					c4.582,3.31,13.736,9.669,16.385,7.778C95.805,43.744,80.889,41.092,74.33,45.025z M65.168,67.524
					c0.093,3.016,5.344,4.035,8.127,3.961c3.207-0.084,7.063-1.375,7.135-3.961c0.088-3.178-4.193-3.891-6.738-3.967
					C69.451,63.432,65.076,64.45,65.168,67.524z"/>
			</g>
		</g>
		<linearGradient id="idThreatActorCurveOpacityGradient" gradientUnits="userSpaceOnUse" x1="71.9995" y1="123.8203" x2="71.9995" y2="2.9141">
			<stop  offset="0" style="stop-color:#FFFFFF;stop-opacity:0.1"/>
			<stop  offset="1" style="stop-color:#FFFFFF;stop-opacity:0.2"/>
		</linearGradient>
		<path fill="url(#idThreatActorCurveOpacityGradient)" d="M123.816,2.914H20.183c-9.501,0-17.271,7.767-17.271,17.271V123.82
			C14.615,20.681,141.088,20.184,141.088,20.184C141.088,10.68,133.322,2.914,123.816,2.914z"/>
	</g>
</switch>
</svg>
