<?xml version="1.0" encoding="UTF-8" standalone="no"?>
<!-- Generator: Adobe Illustrator 16.0.3, SVG Export Plug-In . SVG Version: 6.00 Build 0)  -->

<svg
   xmlns:dc="http://purl.org/dc/elements/1.1/"
   xmlns:cc="http://creativecommons.org/ns#"
   xmlns:rdf="http://www.w3.org/1999/02/22-rdf-syntax-ns#"
   xmlns:svg="http://www.w3.org/2000/svg"
   xmlns="http://www.w3.org/2000/svg"
   xmlns:xlink="http://www.w3.org/1999/xlink"
   xmlns:sodipodi="http://sodipodi.sourceforge.net/DTD/sodipodi-0.dtd"
   xmlns:inkscape="http://www.inkscape.org/namespaces/inkscape"
   version="1.1"
   id="idTtpLayer"
   x="0px"
   y="0px"
   width="100%"
   height="100%"
   viewBox="0 0 159.8644 158.0319"
   enable-background="new 0 0 144 144"
   xml:space="preserve"
   inkscape:version="0.48.2 r9819"
   sodipodi:docname="ttp.svg"><metadata
   id="metadata15178"><rdf:RDF><cc:Work
       rdf:about=""><dc:format>image/svg+xml</dc:format><dc:type
         rdf:resource="http://purl.org/dc/dcmitype/StillImage" /><dc:title></dc:title></cc:Work></rdf:RDF></metadata><defs
   id="defs15176"><linearGradient
     inkscape:collect="always"
     xlink:href="#idTtpBackgroundGradient"
     id="linearGradient15654"
     gradientUnits="userSpaceOnUse"
     x1="72.000504"
     y1="143.99899"
     x2="72.000504"
     y2="0.0015" /><linearGradient
     inkscape:collect="always"
     xlink:href="#idTtpCurveOpacityGradient"
     id="linearGradient15656"
     gradientUnits="userSpaceOnUse"
     x1="71.998497"
     y1="123.8291"
     x2="71.998497"
     y2="2.9116001" /><linearGradient
     inkscape:collect="always"
     xlink:href="#idTtpBackgroundGradient"
     id="linearGradient15658"
     gradientUnits="userSpaceOnUse"
     x1="72.000504"
     y1="143.99899"
     x2="72.000504"
     y2="0.0015" /><linearGradient
     inkscape:collect="always"
     xlink:href="#idTtpCurveOpacityGradient"
     id="linearGradient15660"
     gradientUnits="userSpaceOnUse"
     x1="71.998497"
     y1="123.8291"
     x2="71.998497"
     y2="2.9116001" /><linearGradient
     inkscape:collect="always"
     xlink:href="#idTtpBackgroundGradient"
     id="linearGradient15790"
     gradientUnits="userSpaceOnUse"
     x1="72.000504"
     y1="143.99899"
     x2="72.000504"
     y2="0.0015" /><linearGradient
     inkscape:collect="always"
     xlink:href="#idTtpCurveOpacityGradient"
     id="linearGradient15792"
     gradientUnits="userSpaceOnUse"
     x1="71.998497"
     y1="123.8291"
     x2="71.998497"
     y2="2.9116001" /><linearGradient
     inkscape:collect="always"
     xlink:href="#idTtpBackgroundGradient"
     id="linearGradient15794"
     gradientUnits="userSpaceOnUse"
     x1="72.000504"
     y1="143.99899"
     x2="72.000504"
     y2="0.0015" /><linearGradient
     inkscape:collect="always"
     xlink:href="#idTtpCurveOpacityGradient"
     id="linearGradient15796"
     gradientUnits="userSpaceOnUse"
     x1="71.998497"
     y1="123.8291"
     x2="71.998497"
     y2="2.9116001" /><linearGradient
     inkscape:collect="always"
     xlink:href="#idTtpBackgroundGradient"
     id="linearGradient15798"
     gradientUnits="userSpaceOnUse"
     x1="72.000504"
     y1="143.99899"
     x2="72.000504"
     y2="0.0015" /><linearGradient
     inkscape:collect="always"
     xlink:href="#idTtpCurveOpacityGradient"
     id="linearGradient15800"
     gradientUnits="userSpaceOnUse"
     x1="71.998497"
     y1="123.8291"
     x2="71.998497"
     y2="2.9116001" /><linearGradient
     inkscape:collect="always"
     xlink:href="#idTtpBackgroundGradient"
     id="linearGradient15802"
     gradientUnits="userSpaceOnUse"
     x1="72.000504"
     y1="143.99899"
     x2="72.000504"
     y2="0.0015" /><linearGradient
     inkscape:collect="always"
     xlink:href="#idTtpCurveOpacityGradient"
     id="linearGradient15804"
     gradientUnits="userSpaceOnUse"
     x1="71.998497"
     y1="123.8291"
     x2="71.998497"
     y2="2.9116001" /><linearGradient
     inkscape:collect="always"
     xlink:href="#idTtpBackgroundGradient"
     id="linearGradient16000"
     gradientUnits="userSpaceOnUse"
     x1="72.000504"
     y1="143.99899"
     x2="72.000504"
     y2="0.0015" /><linearGradient
     inkscape:collect="always"
     xlink:href="#idTtpCurveOpacityGradient"
     id="linearGradient16002"
     gradientUnits="userSpaceOnUse"
     x1="71.998497"
     y1="123.8291"
     x2="71.998497"
     y2="2.9116001" /><linearGradient
     inkscape:collect="always"
     xlink:href="#idTtpBackgroundGradient"
     id="linearGradient16004"
     gradientUnits="userSpaceOnUse"
     x1="72.000504"
     y1="143.99899"
     x2="72.000504"
     y2="0.0015" /><linearGradient
     inkscape:collect="always"
     xlink:href="#idTtpCurveOpacityGradient"
     id="linearGradient16006"
     gradientUnits="userSpaceOnUse"
     x1="71.998497"
     y1="123.8291"
     x2="71.998497"
     y2="2.9116001" /><linearGradient
     inkscape:collect="always"
     xlink:href="#idTtpBackgroundGradient"
     id="linearGradient16008"
     gradientUnits="userSpaceOnUse"
     x1="72.000504"
     y1="143.99899"
     x2="72.000504"
     y2="0.0015" /><linearGradient
     inkscape:collect="always"
     xlink:href="#idTtpCurveOpacityGradient"
     id="linearGradient16010"
     gradientUnits="userSpaceOnUse"
     x1="71.998497"
     y1="123.8291"
     x2="71.998497"
     y2="2.9116001" /><linearGradient
     inkscape:collect="always"
     xlink:href="#idTtpBackgroundGradient"
     id="linearGradient16012"
     gradientUnits="userSpaceOnUse"
     x1="72.000504"
     y1="143.99899"
     x2="72.000504"
     y2="0.0015" /><linearGradient
     inkscape:collect="always"
     xlink:href="#idTtpCurveOpacityGradient"
     id="linearGradient16014"
     gradientUnits="userSpaceOnUse"
     x1="71.998497"
     y1="123.8291"
     x2="71.998497"
     y2="2.9116001" /><linearGradient
     inkscape:collect="always"
     xlink:href="#idTtpBackgroundGradient"
     id="linearGradient16016"
     gradientUnits="userSpaceOnUse"
     x1="72.000504"
     y1="143.99899"
     x2="72.000504"
     y2="0.0015" /><linearGradient
     inkscape:collect="always"
     xlink:href="#idTtpCurveOpacityGradient"
     id="linearGradient16018"
     gradientUnits="userSpaceOnUse"
     x1="71.998497"
     y1="123.8291"
     x2="71.998497"
     y2="2.9116001" /><linearGradient
     inkscape:collect="always"
     xlink:href="#idTtpBackgroundGradient"
     id="linearGradient16020"
     gradientUnits="userSpaceOnUse"
     x1="72.000504"
     y1="143.99899"
     x2="72.000504"
     y2="0.0015" /><linearGradient
     inkscape:collect="always"
     xlink:href="#idTtpCurveOpacityGradient"
     id="linearGradient16022"
     gradientUnits="userSpaceOnUse"
     x1="71.998497"
     y1="123.8291"
     x2="71.998497"
     y2="2.9116001" /></defs><sodipodi:namedview
   pagecolor="#ffffff"
   bordercolor="#666666"
   borderopacity="1"
   objecttolerance="10"
   gridtolerance="10"
   guidetolerance="10"
   inkscape:pageopacity="0"
   inkscape:pageshadow="2"
   inkscape:window-width="1656"
   inkscape:window-height="1021"
   id="namedview15174"
   showgrid="false"
   fit-margin-top="0"
   fit-margin-left="0"
   fit-margin-right="0"
   fit-margin-bottom="0"
   inkscape:zoom="1.6388889"
   inkscape:cx="245.03001"
   inkscape:cy="77.489526"
   inkscape:window-x="420"
   inkscape:window-y="240"
   inkscape:window-maximized="0"
   inkscape:current-layer="idTtpLayer" />

<g
   id="g15806"
   transform="translate(352.67796,8.5423728)"><g
     transform="translate(3.0508475,-0.61016949)"
     id="g15461"><rect
       style="fill:#000000"
       id="rect15180"
       width="144.61017"
       height="140.94916"
       x="-340.47458"
       y="-7.9322033"
       ry="19.860003" /><switch
       id="switch15116"
       transform="matrix(0.96186441,0,0,0.97033837,-337.42372,-4.8813263)">
	<g
   id="g15118">
		<g
   id="g15120">
			<g
   id="g15122">
				<linearGradient
   id="idTtpBackgroundGradient"
   gradientUnits="userSpaceOnUse"
   x1="72.000504"
   y1="143.99899"
   x2="72.000504"
   y2="0.0015">
					<stop
   offset="0"
   style="stop-color:#000000"
   id="stop15125" />
					<stop
   offset="0.0489"
   style="stop-color:#0B050F"
   id="stop15127" />
					<stop
   offset="0.1915"
   style="stop-color:#271137"
   id="stop15129" />
					<stop
   offset="0.3389"
   style="stop-color:#3E1B57"
   id="stop15131" />
					<stop
   offset="0.49"
   style="stop-color:#4F2371"
   id="stop15133" />
					<stop
   offset="0.6465"
   style="stop-color:#5C2983"
   id="stop15135" />
					<stop
   offset="0.8117"
   style="stop-color:#642C8E"
   id="stop15137" />
					<stop
   offset="1"
   style="stop-color:#662D91"
   id="stop15139" />
				</linearGradient>
				<path
   d="M 126.002,0.001 H 17.997 C 8.094,0.001 0,8.093 0,17.989 V 126.01 c 0,9.896 8.094,17.988 17.997,17.988 h 108.005 c 9.906,0 17.998,-8.092 17.998,-17.988 V 17.989 C 144,8.093 135.908,0.001 126.002,0.001 z"
   id="path15141"
   style="fill:url(#linearGradient16000)"
   inkscape:connector-curvature="0" />
			</g>
			<defs
   id="defs15143">
				<filter
   id="idTtpFilter"
   filterUnits="userSpaceOnUse"
   x="0"
   y="0.001"
   width="144"
   height="143.998"
   color-interpolation-filters="sRGB">
					
						<feColorMatrix
   type="matrix"
   values="-1 0 0 0 1  0 -1 0 0 1  0 0 -1 0 1  0 0 0 1 0"
   color-interpolation-filters="sRGB"
   result="source"
   id="feColorMatrix15146" />
				</filter>
			</defs>
			<mask
   maskUnits="userSpaceOnUse"
   x="0"
   y="0.001"
   width="144"
   height="143.998"
   id="idTtpMask">
				<g
   id="g15149"
   style="filter:url(#idTtpFilter)">
					
				</g>
			</mask>
			<g
   mask="url(#idTtpMask)"
   id="g15151"
   style="opacity:0.6">
				<path
   d="M 126.002,0.001 H 17.997 C 8.094,0.001 0,8.093 0,17.989 V 126.01 c 0,9.896 8.094,17.988 17.997,17.988 h 108.005 c 9.906,0 17.998,-8.092 17.998,-17.988 V 17.989 C 144,8.093 135.908,0.001 126.002,0.001 z"
   id="path15153"
   inkscape:connector-curvature="0" />
			</g>
		</g>
		<g
   id="g15155">
			
			<g
   id="g15157">
				<path
   d="m 89.318,90.719 v 3.351 c 0,0.414 -0.332,0.744 -0.742,0.744 H 55.423 c -0.408,0 -0.742,-0.33 -0.742,-0.744 v -3.351 c 0,-0.413 0.334,-0.751 0.742,-0.751 h 2.297 c -3.635,-4.732 1.729,-7.516 3.886,-9.12 1.437,-1.067 0.241,-4.08 0.241,-5.173 0,-0.544 0.268,-1.097 0.546,-1.564 -4.337,-1.721 -7.191,-5.071 -7.191,-10.694 0,-1.552 0.218,-3.051 0.623,-4.469 0.004,-0.018 0.007,-0.032 0.013,-0.047 0.094,-0.321 0.191,-0.636 0.305,-0.946 0.014,-0.047 0.031,-0.089 0.049,-0.134 v -0.002 c 0.457,-1.237 1.082,-2.411 1.82,-3.544 2.82,-4.331 7.295,-7.99 10.44,-11.687 2.251,-2.637 0.581,-2.305 -2.246,-1.336 -1.702,0.585 -3.444,0.677 -4.538,2.288 -0.645,0.946 -1.404,2.906 -2.878,2.623 -1.407,-0.271 -0.657,-1.237 -0.993,-2.155 -1.025,0.1 -1.899,0.644 -2.438,-0.657 -0.285,-0.697 -0.551,-1.182 -0.605,-1.941 -0.103,-1.388 0.455,-2.485 0.227,-3.996 -0.266,-1.748 1.664,-1.665 2.836,-2.369 1.399,-0.84 2.45,-2.334 3.625,-3.454 2.582,-2.469 3.716,-3.354 4.535,-5.054 0.607,-1.261 6.825,-4.246 6.519,-4.945 -0.63,-1.429 0.74,-5.272 1.008,-5.313 1.08,-0.154 2.902,2.703 3.285,2.951 0.316,0.202 0.584,0.272 0.824,0.278 1.125,-0.116 4.688,-0.992 6.521,0.276 1.037,0.753 0.826,0.997 1.83,2.615 0.705,1.134 2.338,1.291 3.283,0.663 0.086,1.506 -0.963,2.758 -2.371,2.711 1.178,0.612 1.836,1.788 1.979,3.106 0.141,1.409 -0.713,2.641 -1.229,3.956 -0.99,2.492 0.506,3.64 1.637,3.816 -0.607,1.374 -3.07,2.016 -4.045,1.387 0,0 1.977,2.87 1.367,4.989 -0.609,2.12 -2.727,3.893 -2.537,5.352 0.141,1.035 1.514,2.706 2.502,2.305 -0.203,1.756 -3.332,1.958 -4.016,1.631 0.689,0.737 2.191,1.758 2.752,3.893 0.561,2.137 -1.783,3.278 -1.074,5.141 0.811,2.132 3.779,1.758 4.061,1.783 -0.26,3.527 -1.66,8.034 -6.82,10.546 0.35,0.539 0.818,1.275 0.818,1.998 0,1.093 -1.197,4.105 0.242,5.173 2.156,1.607 7.654,4.162 3.768,9.12 h 2.297 c 0.408,-10e-4 0.74,0.337 0.74,0.75 z"
   id="path15159"
   inkscape:connector-curvature="0"
   style="fill:#ffffff" />
			</g>
		</g>
		<g
   id="g15161">
			
			<g
   id="g15163">
				<text
   transform="matrix(1.0005,0,0,1,56.2705,127.7773)"
   font-size="20.6545"
   id="text15165"
   style="font-size:20.65449905px;fill:#ffffff;font-family:Calibri-Bold">TTP</text>

			</g>
		</g>
		<linearGradient
   id="idTtpCurveOpacityGradient"
   gradientUnits="userSpaceOnUse"
   x1="71.998497"
   y1="123.8291"
   x2="71.998497"
   y2="2.9116001">
			<stop
   offset="0"
   style="stop-color:#FFFFFF;stop-opacity:0.1"
   id="stop15168" />
			<stop
   offset="1"
   style="stop-color:#FFFFFF;stop-opacity:0.2"
   id="stop15170" />
		</linearGradient>
		<path
   d="M 123.816,2.911 H 20.183 c -9.504,0 -17.27,7.765 -17.27,17.26 V 123.829 C 14.615,20.666 141.084,20.171 141.084,20.171 c 0,-9.495 -7.764,-17.26 -17.268,-17.26 z"
   id="path15172"
   style="fill:url(#linearGradient16002)"
   inkscape:connector-curvature="0" />
	</g>
</switch><switch
       transform="matrix(0.96186441,0,0,0.97033837,-337.42372,-4.8813263)"
       id="switch15329">
	<g
   id="g15331">
		<g
   id="g15333">
			<g
   id="g15335">
				<linearGradient
   y2="0.0015"
   x2="72.000504"
   y1="143.99899"
   x1="72.000504"
   gradientUnits="userSpaceOnUse"
   id="linearGradient15337">
					<stop
   id="stop15339"
   style="stop-color:#000000"
   offset="0" />
					<stop
   id="stop15341"
   style="stop-color:#0B050F"
   offset="0.0489" />
					<stop
   id="stop15343"
   style="stop-color:#271137"
   offset="0.1915" />
					<stop
   id="stop15345"
   style="stop-color:#3E1B57"
   offset="0.3389" />
					<stop
   id="stop15347"
   style="stop-color:#4F2371"
   offset="0.49" />
					<stop
   id="stop15349"
   style="stop-color:#5C2983"
   offset="0.6465" />
					<stop
   id="stop15351"
   style="stop-color:#642C8E"
   offset="0.8117" />
					<stop
   id="stop15353"
   style="stop-color:#662D91"
   offset="1" />
				</linearGradient>
				<path
   inkscape:connector-curvature="0"
   style="fill:url(#linearGradient16004)"
   id="path15355"
   d="M 126.002,0.001 H 17.997 C 8.094,0.001 0,8.093 0,17.989 V 126.01 c 0,9.896 8.094,17.988 17.997,17.988 h 108.005 c 9.906,0 17.998,-8.092 17.998,-17.988 V 17.989 C 144,8.093 135.908,0.001 126.002,0.001 z" />
			</g>
			<defs
   id="defs15357">
				<filter
   color-interpolation-filters="sRGB"
   height="143.998"
   width="144"
   y="0.001"
   x="0"
   filterUnits="userSpaceOnUse"
   id="filter15359">
					
						<feColorMatrix
   id="feColorMatrix15361"
   result="source"
   color-interpolation-filters="sRGB"
   values="-1 0 0 0 1  0 -1 0 0 1  0 0 -1 0 1  0 0 0 1 0"
   type="matrix" />
				</filter>
			</defs>
			<mask
   id="mask15363"
   height="143.998"
   width="144"
   y="0.001"
   x="0"
   maskUnits="userSpaceOnUse">
				<g
   style="filter:url(#idTtpFilter)"
   id="g15365">
					
				</g>
			</mask>
			<g
   style="opacity:0.6"
   id="g15367"
   mask="url(#idTtpMask)">
				<path
   inkscape:connector-curvature="0"
   id="path15369"
   d="M 126.002,0.001 H 17.997 C 8.094,0.001 0,8.093 0,17.989 V 126.01 c 0,9.896 8.094,17.988 17.997,17.988 h 108.005 c 9.906,0 17.998,-8.092 17.998,-17.988 V 17.989 C 144,8.093 135.908,0.001 126.002,0.001 z" />
			</g>
		</g>
		<g
   id="g15371">
			
			<g
   id="g15373">
				<path
   style="fill:#ffffff"
   inkscape:connector-curvature="0"
   id="path15375"
   d="m 89.318,90.719 v 3.351 c 0,0.414 -0.332,0.744 -0.742,0.744 H 55.423 c -0.408,0 -0.742,-0.33 -0.742,-0.744 v -3.351 c 0,-0.413 0.334,-0.751 0.742,-0.751 h 2.297 c -3.635,-4.732 1.729,-7.516 3.886,-9.12 1.437,-1.067 0.241,-4.08 0.241,-5.173 0,-0.544 0.268,-1.097 0.546,-1.564 -4.337,-1.721 -7.191,-5.071 -7.191,-10.694 0,-1.552 0.218,-3.051 0.623,-4.469 0.004,-0.018 0.007,-0.032 0.013,-0.047 0.094,-0.321 0.191,-0.636 0.305,-0.946 0.014,-0.047 0.031,-0.089 0.049,-0.134 v -0.002 c 0.457,-1.237 1.082,-2.411 1.82,-3.544 2.82,-4.331 7.295,-7.99 10.44,-11.687 2.251,-2.637 0.581,-2.305 -2.246,-1.336 -1.702,0.585 -3.444,0.677 -4.538,2.288 -0.645,0.946 -1.404,2.906 -2.878,2.623 -1.407,-0.271 -0.657,-1.237 -0.993,-2.155 -1.025,0.1 -1.899,0.644 -2.438,-0.657 -0.285,-0.697 -0.551,-1.182 -0.605,-1.941 -0.103,-1.388 0.455,-2.485 0.227,-3.996 -0.266,-1.748 1.664,-1.665 2.836,-2.369 1.399,-0.84 2.45,-2.334 3.625,-3.454 2.582,-2.469 3.716,-3.354 4.535,-5.054 0.607,-1.261 6.825,-4.246 6.519,-4.945 -0.63,-1.429 0.74,-5.272 1.008,-5.313 1.08,-0.154 2.902,2.703 3.285,2.951 0.316,0.202 0.584,0.272 0.824,0.278 1.125,-0.116 4.688,-0.992 6.521,0.276 1.037,0.753 0.826,0.997 1.83,2.615 0.705,1.134 2.338,1.291 3.283,0.663 0.086,1.506 -0.963,2.758 -2.371,2.711 1.178,0.612 1.836,1.788 1.979,3.106 0.141,1.409 -0.713,2.641 -1.229,3.956 -0.99,2.492 0.506,3.64 1.637,3.816 -0.607,1.374 -3.07,2.016 -4.045,1.387 0,0 1.977,2.87 1.367,4.989 -0.609,2.12 -2.727,3.893 -2.537,5.352 0.141,1.035 1.514,2.706 2.502,2.305 -0.203,1.756 -3.332,1.958 -4.016,1.631 0.689,0.737 2.191,1.758 2.752,3.893 0.561,2.137 -1.783,3.278 -1.074,5.141 0.811,2.132 3.779,1.758 4.061,1.783 -0.26,3.527 -1.66,8.034 -6.82,10.546 0.35,0.539 0.818,1.275 0.818,1.998 0,1.093 -1.197,4.105 0.242,5.173 2.156,1.607 7.654,4.162 3.768,9.12 h 2.297 c 0.408,-10e-4 0.74,0.337 0.74,0.75 z" />
			</g>
		</g>
		<g
   id="g15377">
			
			<g
   id="g15379">
				<text
   style="font-size:20.65449905px;fill:#ffffff;font-family:Calibri-Bold"
   id="text15381"
   font-size="20.6545"
   transform="matrix(1.0005,0,0,1,56.2705,127.7773)">TTP</text>

			</g>
		</g>
		<linearGradient
   y2="2.9116001"
   x2="71.998497"
   y1="123.8291"
   x1="71.998497"
   gradientUnits="userSpaceOnUse"
   id="linearGradient15383">
			<stop
   id="stop15385"
   style="stop-color:#FFFFFF;stop-opacity:0.1"
   offset="0" />
			<stop
   id="stop15387"
   style="stop-color:#FFFFFF;stop-opacity:0.2"
   offset="1" />
		</linearGradient>
		<path
   inkscape:connector-curvature="0"
   style="fill:url(#linearGradient16006)"
   id="path15389"
   d="M 123.816,2.911 H 20.183 c -9.504,0 -17.27,7.765 -17.27,17.26 V 123.829 C 14.615,20.666 141.084,20.171 141.084,20.171 c 0,-9.495 -7.764,-17.26 -17.268,-17.26 z" />
	</g>
</switch></g><g
     id="g15662"
     transform="translate(-4.2711817,6.1016956)"><rect
       style="fill:#000000"
       id="rect15664"
       width="144.61017"
       height="140.94916"
       x="-340.47458"
       y="-7.9322033"
       ry="19.860003" /><switch
       id="switch15666"
       transform="matrix(0.96186441,0,0,0.97033837,-337.42372,-4.8813263)">
	<g
   id="g15668">
		<g
   id="g15670">
			<g
   id="g15672">
				<linearGradient
   id="linearGradient15674"
   gradientUnits="userSpaceOnUse"
   x1="72.000504"
   y1="143.99899"
   x2="72.000504"
   y2="0.0015">
					<stop
   offset="0"
   style="stop-color:#000000"
   id="stop15676" />
					<stop
   offset="0.0489"
   style="stop-color:#0B050F"
   id="stop15678" />
					<stop
   offset="0.1915"
   style="stop-color:#271137"
   id="stop15680" />
					<stop
   offset="0.3389"
   style="stop-color:#3E1B57"
   id="stop15682" />
					<stop
   offset="0.49"
   style="stop-color:#4F2371"
   id="stop15684" />
					<stop
   offset="0.6465"
   style="stop-color:#5C2983"
   id="stop15686" />
					<stop
   offset="0.8117"
   style="stop-color:#642C8E"
   id="stop15688" />
					<stop
   offset="1"
   style="stop-color:#662D91"
   id="stop15690" />
				</linearGradient>
				<path
   d="M 126.002,0.001 H 17.997 C 8.094,0.001 0,8.093 0,17.989 V 126.01 c 0,9.896 8.094,17.988 17.997,17.988 h 108.005 c 9.906,0 17.998,-8.092 17.998,-17.988 V 17.989 C 144,8.093 135.908,0.001 126.002,0.001 z"
   id="path15692"
   style="fill:url(#linearGradient16008)"
   inkscape:connector-curvature="0" />
			</g>
			<defs
   id="defs15694">
				<filter
   id="filter15696"
   filterUnits="userSpaceOnUse"
   x="0"
   y="0.001"
   width="144"
   height="143.998"
   color-interpolation-filters="sRGB">
					
						<feColorMatrix
   type="matrix"
   values="-1 0 0 0 1  0 -1 0 0 1  0 0 -1 0 1  0 0 0 1 0"
   color-interpolation-filters="sRGB"
   result="source"
   id="feColorMatrix15698" />
				</filter>
			</defs>
			<mask
   maskUnits="userSpaceOnUse"
   x="0"
   y="0.001"
   width="144"
   height="143.998"
   id="mask15700">
				<g
   id="g15702"
   style="filter:url(#idTtpFilter)">
					
				</g>
			</mask>
			<g
   mask="url(#idTtpMask)"
   id="g15704"
   style="opacity:0.6">
				<path
   d="M 126.002,0.001 H 17.997 C 8.094,0.001 0,8.093 0,17.989 V 126.01 c 0,9.896 8.094,17.988 17.997,17.988 h 108.005 c 9.906,0 17.998,-8.092 17.998,-17.988 V 17.989 C 144,8.093 135.908,0.001 126.002,0.001 z"
   id="path15706"
   inkscape:connector-curvature="0" />
			</g>
		</g>
		<g
   id="g15708">
			
			<g
   id="g15710">
				<path
   d="m 89.318,90.719 v 3.351 c 0,0.414 -0.332,0.744 -0.742,0.744 H 55.423 c -0.408,0 -0.742,-0.33 -0.742,-0.744 v -3.351 c 0,-0.413 0.334,-0.751 0.742,-0.751 h 2.297 c -3.635,-4.732 1.729,-7.516 3.886,-9.12 1.437,-1.067 0.241,-4.08 0.241,-5.173 0,-0.544 0.268,-1.097 0.546,-1.564 -4.337,-1.721 -7.191,-5.071 -7.191,-10.694 0,-1.552 0.218,-3.051 0.623,-4.469 0.004,-0.018 0.007,-0.032 0.013,-0.047 0.094,-0.321 0.191,-0.636 0.305,-0.946 0.014,-0.047 0.031,-0.089 0.049,-0.134 v -0.002 c 0.457,-1.237 1.082,-2.411 1.82,-3.544 2.82,-4.331 7.295,-7.99 10.44,-11.687 2.251,-2.637 0.581,-2.305 -2.246,-1.336 -1.702,0.585 -3.444,0.677 -4.538,2.288 -0.645,0.946 -1.404,2.906 -2.878,2.623 -1.407,-0.271 -0.657,-1.237 -0.993,-2.155 -1.025,0.1 -1.899,0.644 -2.438,-0.657 -0.285,-0.697 -0.551,-1.182 -0.605,-1.941 -0.103,-1.388 0.455,-2.485 0.227,-3.996 -0.266,-1.748 1.664,-1.665 2.836,-2.369 1.399,-0.84 2.45,-2.334 3.625,-3.454 2.582,-2.469 3.716,-3.354 4.535,-5.054 0.607,-1.261 6.825,-4.246 6.519,-4.945 -0.63,-1.429 0.74,-5.272 1.008,-5.313 1.08,-0.154 2.902,2.703 3.285,2.951 0.316,0.202 0.584,0.272 0.824,0.278 1.125,-0.116 4.688,-0.992 6.521,0.276 1.037,0.753 0.826,0.997 1.83,2.615 0.705,1.134 2.338,1.291 3.283,0.663 0.086,1.506 -0.963,2.758 -2.371,2.711 1.178,0.612 1.836,1.788 1.979,3.106 0.141,1.409 -0.713,2.641 -1.229,3.956 -0.99,2.492 0.506,3.64 1.637,3.816 -0.607,1.374 -3.07,2.016 -4.045,1.387 0,0 1.977,2.87 1.367,4.989 -0.609,2.12 -2.727,3.893 -2.537,5.352 0.141,1.035 1.514,2.706 2.502,2.305 -0.203,1.756 -3.332,1.958 -4.016,1.631 0.689,0.737 2.191,1.758 2.752,3.893 0.561,2.137 -1.783,3.278 -1.074,5.141 0.811,2.132 3.779,1.758 4.061,1.783 -0.26,3.527 -1.66,8.034 -6.82,10.546 0.35,0.539 0.818,1.275 0.818,1.998 0,1.093 -1.197,4.105 0.242,5.173 2.156,1.607 7.654,4.162 3.768,9.12 h 2.297 c 0.408,-10e-4 0.74,0.337 0.74,0.75 z"
   id="path15712"
   inkscape:connector-curvature="0"
   style="fill:#ffffff" />
			</g>
		</g>
		<g
   id="g15714">
			
			<g
   id="g15716">
				<text
   transform="matrix(1.0005,0,0,1,56.2705,127.7773)"
   font-size="20.6545"
   id="text15718"
   style="font-size:20.65449905px;fill:#ffffff;font-family:Calibri-Bold">TTP</text>

			</g>
		</g>
		<linearGradient
   id="linearGradient15720"
   gradientUnits="userSpaceOnUse"
   x1="71.998497"
   y1="123.8291"
   x2="71.998497"
   y2="2.9116001">
			<stop
   offset="0"
   style="stop-color:#FFFFFF;stop-opacity:0.1"
   id="stop15722" />
			<stop
   offset="1"
   style="stop-color:#FFFFFF;stop-opacity:0.2"
   id="stop15724" />
		</linearGradient>
		<path
   d="M 123.816,2.911 H 20.183 c -9.504,0 -17.27,7.765 -17.27,17.26 V 123.829 C 14.615,20.666 141.084,20.171 141.084,20.171 c 0,-9.495 -7.764,-17.26 -17.268,-17.26 z"
   id="path15726"
   style="fill:url(#linearGradient16010)"
   inkscape:connector-curvature="0" />
	</g>
</switch><switch
       transform="matrix(0.96186441,0,0,0.97033837,-337.42372,-4.8813263)"
       id="switch15728">
	<g
   id="g15730">
		<g
   id="g15732">
			<g
   id="g15734">
				<linearGradient
   y2="0.0015"
   x2="72.000504"
   y1="143.99899"
   x1="72.000504"
   gradientUnits="userSpaceOnUse"
   id="linearGradient15736">
					<stop
   id="stop15738"
   style="stop-color:#000000"
   offset="0" />
					<stop
   id="stop15740"
   style="stop-color:#0B050F"
   offset="0.0489" />
					<stop
   id="stop15742"
   style="stop-color:#271137"
   offset="0.1915" />
					<stop
   id="stop15744"
   style="stop-color:#3E1B57"
   offset="0.3389" />
					<stop
   id="stop15746"
   style="stop-color:#4F2371"
   offset="0.49" />
					<stop
   id="stop15748"
   style="stop-color:#5C2983"
   offset="0.6465" />
					<stop
   id="stop15750"
   style="stop-color:#642C8E"
   offset="0.8117" />
					<stop
   id="stop15752"
   style="stop-color:#662D91"
   offset="1" />
				</linearGradient>
				<path
   inkscape:connector-curvature="0"
   style="fill:url(#linearGradient16012)"
   id="path15754"
   d="M 126.002,0.001 H 17.997 C 8.094,0.001 0,8.093 0,17.989 V 126.01 c 0,9.896 8.094,17.988 17.997,17.988 h 108.005 c 9.906,0 17.998,-8.092 17.998,-17.988 V 17.989 C 144,8.093 135.908,0.001 126.002,0.001 z" />
			</g>
			<defs
   id="defs15756">
				<filter
   color-interpolation-filters="sRGB"
   height="143.998"
   width="144"
   y="0.001"
   x="0"
   filterUnits="userSpaceOnUse"
   id="filter15758">
					
						<feColorMatrix
   id="feColorMatrix15760"
   result="source"
   color-interpolation-filters="sRGB"
   values="-1 0 0 0 1  0 -1 0 0 1  0 0 -1 0 1  0 0 0 1 0"
   type="matrix" />
				</filter>
			</defs>
			<mask
   id="mask15762"
   height="143.998"
   width="144"
   y="0.001"
   x="0"
   maskUnits="userSpaceOnUse">
				<g
   style="filter:url(#idTtpFilter)"
   id="g15764">
					
				</g>
			</mask>
			<g
   style="opacity:0.6"
   id="g15766"
   mask="url(#idTtpMask)">
				<path
   inkscape:connector-curvature="0"
   id="path15768"
   d="M 126.002,0.001 H 17.997 C 8.094,0.001 0,8.093 0,17.989 V 126.01 c 0,9.896 8.094,17.988 17.997,17.988 h 108.005 c 9.906,0 17.998,-8.092 17.998,-17.988 V 17.989 C 144,8.093 135.908,0.001 126.002,0.001 z" />
			</g>
		</g>
		<g
   id="g15770">
			
			<g
   id="g15772">
				<path
   style="fill:#ffffff"
   inkscape:connector-curvature="0"
   id="path15774"
   d="m 89.318,90.719 v 3.351 c 0,0.414 -0.332,0.744 -0.742,0.744 H 55.423 c -0.408,0 -0.742,-0.33 -0.742,-0.744 v -3.351 c 0,-0.413 0.334,-0.751 0.742,-0.751 h 2.297 c -3.635,-4.732 1.729,-7.516 3.886,-9.12 1.437,-1.067 0.241,-4.08 0.241,-5.173 0,-0.544 0.268,-1.097 0.546,-1.564 -4.337,-1.721 -7.191,-5.071 -7.191,-10.694 0,-1.552 0.218,-3.051 0.623,-4.469 0.004,-0.018 0.007,-0.032 0.013,-0.047 0.094,-0.321 0.191,-0.636 0.305,-0.946 0.014,-0.047 0.031,-0.089 0.049,-0.134 v -0.002 c 0.457,-1.237 1.082,-2.411 1.82,-3.544 2.82,-4.331 7.295,-7.99 10.44,-11.687 2.251,-2.637 0.581,-2.305 -2.246,-1.336 -1.702,0.585 -3.444,0.677 -4.538,2.288 -0.645,0.946 -1.404,2.906 -2.878,2.623 -1.407,-0.271 -0.657,-1.237 -0.993,-2.155 -1.025,0.1 -1.899,0.644 -2.438,-0.657 -0.285,-0.697 -0.551,-1.182 -0.605,-1.941 -0.103,-1.388 0.455,-2.485 0.227,-3.996 -0.266,-1.748 1.664,-1.665 2.836,-2.369 1.399,-0.84 2.45,-2.334 3.625,-3.454 2.582,-2.469 3.716,-3.354 4.535,-5.054 0.607,-1.261 6.825,-4.246 6.519,-4.945 -0.63,-1.429 0.74,-5.272 1.008,-5.313 1.08,-0.154 2.902,2.703 3.285,2.951 0.316,0.202 0.584,0.272 0.824,0.278 1.125,-0.116 4.688,-0.992 6.521,0.276 1.037,0.753 0.826,0.997 1.83,2.615 0.705,1.134 2.338,1.291 3.283,0.663 0.086,1.506 -0.963,2.758 -2.371,2.711 1.178,0.612 1.836,1.788 1.979,3.106 0.141,1.409 -0.713,2.641 -1.229,3.956 -0.99,2.492 0.506,3.64 1.637,3.816 -0.607,1.374 -3.07,2.016 -4.045,1.387 0,0 1.977,2.87 1.367,4.989 -0.609,2.12 -2.727,3.893 -2.537,5.352 0.141,1.035 1.514,2.706 2.502,2.305 -0.203,1.756 -3.332,1.958 -4.016,1.631 0.689,0.737 2.191,1.758 2.752,3.893 0.561,2.137 -1.783,3.278 -1.074,5.141 0.811,2.132 3.779,1.758 4.061,1.783 -0.26,3.527 -1.66,8.034 -6.82,10.546 0.35,0.539 0.818,1.275 0.818,1.998 0,1.093 -1.197,4.105 0.242,5.173 2.156,1.607 7.654,4.162 3.768,9.12 h 2.297 c 0.408,-10e-4 0.74,0.337 0.74,0.75 z" />
			</g>
		</g>
		<g
   id="g15776">
			
			<g
   id="g15778">
				<text
   style="font-size:20.65449905px;fill:#ffffff;font-family:Calibri-Bold"
   id="text15780"
   font-size="20.6545"
   transform="matrix(1.0005,0,0,1,56.2705,127.7773)">TTP</text>

			</g>
		</g>
		<linearGradient
   y2="2.9116001"
   x2="71.998497"
   y1="123.8291"
   x1="71.998497"
   gradientUnits="userSpaceOnUse"
   id="linearGradient15782">
			<stop
   id="stop15784"
   style="stop-color:#FFFFFF;stop-opacity:0.1"
   offset="0" />
			<stop
   id="stop15786"
   style="stop-color:#FFFFFF;stop-opacity:0.2"
   offset="1" />
		</linearGradient>
		<path
   inkscape:connector-curvature="0"
   style="fill:url(#linearGradient16014)"
   id="path15788"
   d="M 123.816,2.911 H 20.183 c -9.504,0 -17.27,7.765 -17.27,17.26 V 123.829 C 14.615,20.666 141.084,20.171 141.084,20.171 c 0,-9.495 -7.764,-17.26 -17.268,-17.26 z" />
	</g>
</switch></g><g
     transform="translate(-12.203385,14.644068)"
     id="g15526"><rect
       ry="19.860003"
       y="-7.9322033"
       x="-340.47458"
       height="140.94916"
       width="144.61017"
       id="rect15528"
       style="fill:#000000" /><switch
       transform="matrix(0.96186441,0,0,0.97033837,-337.42372,-4.8813263)"
       id="switch15530">
	<g
   id="g15532">
		<g
   id="g15534">
			<g
   id="g15536">
				<linearGradient
   y2="0.0015"
   x2="72.000504"
   y1="143.99899"
   x1="72.000504"
   gradientUnits="userSpaceOnUse"
   id="linearGradient15538">
					<stop
   id="stop15540"
   style="stop-color:#000000"
   offset="0" />
					<stop
   id="stop15542"
   style="stop-color:#0B050F"
   offset="0.0489" />
					<stop
   id="stop15544"
   style="stop-color:#271137"
   offset="0.1915" />
					<stop
   id="stop15546"
   style="stop-color:#3E1B57"
   offset="0.3389" />
					<stop
   id="stop15548"
   style="stop-color:#4F2371"
   offset="0.49" />
					<stop
   id="stop15550"
   style="stop-color:#5C2983"
   offset="0.6465" />
					<stop
   id="stop15552"
   style="stop-color:#642C8E"
   offset="0.8117" />
					<stop
   id="stop15554"
   style="stop-color:#662D91"
   offset="1" />
				</linearGradient>
				<path
   inkscape:connector-curvature="0"
   style="fill:url(#linearGradient16016)"
   id="path15556"
   d="M 126.002,0.001 H 17.997 C 8.094,0.001 0,8.093 0,17.989 V 126.01 c 0,9.896 8.094,17.988 17.997,17.988 h 108.005 c 9.906,0 17.998,-8.092 17.998,-17.988 V 17.989 C 144,8.093 135.908,0.001 126.002,0.001 z" />
			</g>
			<defs
   id="defs15558">
				<filter
   color-interpolation-filters="sRGB"
   height="143.998"
   width="144"
   y="0.001"
   x="0"
   filterUnits="userSpaceOnUse"
   id="filter15560">
					
						<feColorMatrix
   id="feColorMatrix15562"
   result="source"
   color-interpolation-filters="sRGB"
   values="-1 0 0 0 1  0 -1 0 0 1  0 0 -1 0 1  0 0 0 1 0"
   type="matrix" />
				</filter>
			</defs>
			<mask
   id="mask15564"
   height="143.998"
   width="144"
   y="0.001"
   x="0"
   maskUnits="userSpaceOnUse">
				<g
   style="filter:url(#idTtpFilter)"
   id="g15566">
					
				</g>
			</mask>
			<g
   style="opacity:0.6"
   id="g15568"
   mask="url(#idTtpMask)">
				<path
   inkscape:connector-curvature="0"
   id="path15570"
   d="M 126.002,0.001 H 17.997 C 8.094,0.001 0,8.093 0,17.989 V 126.01 c 0,9.896 8.094,17.988 17.997,17.988 h 108.005 c 9.906,0 17.998,-8.092 17.998,-17.988 V 17.989 C 144,8.093 135.908,0.001 126.002,0.001 z" />
			</g>
		</g>
		<g
   id="g15572">
			
			<g
   id="g15574">
				<path
   style="fill:#ffffff"
   inkscape:connector-curvature="0"
   id="path15576"
   d="m 89.318,90.719 v 3.351 c 0,0.414 -0.332,0.744 -0.742,0.744 H 55.423 c -0.408,0 -0.742,-0.33 -0.742,-0.744 v -3.351 c 0,-0.413 0.334,-0.751 0.742,-0.751 h 2.297 c -3.635,-4.732 1.729,-7.516 3.886,-9.12 1.437,-1.067 0.241,-4.08 0.241,-5.173 0,-0.544 0.268,-1.097 0.546,-1.564 -4.337,-1.721 -7.191,-5.071 -7.191,-10.694 0,-1.552 0.218,-3.051 0.623,-4.469 0.004,-0.018 0.007,-0.032 0.013,-0.047 0.094,-0.321 0.191,-0.636 0.305,-0.946 0.014,-0.047 0.031,-0.089 0.049,-0.134 v -0.002 c 0.457,-1.237 1.082,-2.411 1.82,-3.544 2.82,-4.331 7.295,-7.99 10.44,-11.687 2.251,-2.637 0.581,-2.305 -2.246,-1.336 -1.702,0.585 -3.444,0.677 -4.538,2.288 -0.645,0.946 -1.404,2.906 -2.878,2.623 -1.407,-0.271 -0.657,-1.237 -0.993,-2.155 -1.025,0.1 -1.899,0.644 -2.438,-0.657 -0.285,-0.697 -0.551,-1.182 -0.605,-1.941 -0.103,-1.388 0.455,-2.485 0.227,-3.996 -0.266,-1.748 1.664,-1.665 2.836,-2.369 1.399,-0.84 2.45,-2.334 3.625,-3.454 2.582,-2.469 3.716,-3.354 4.535,-5.054 0.607,-1.261 6.825,-4.246 6.519,-4.945 -0.63,-1.429 0.74,-5.272 1.008,-5.313 1.08,-0.154 2.902,2.703 3.285,2.951 0.316,0.202 0.584,0.272 0.824,0.278 1.125,-0.116 4.688,-0.992 6.521,0.276 1.037,0.753 0.826,0.997 1.83,2.615 0.705,1.134 2.338,1.291 3.283,0.663 0.086,1.506 -0.963,2.758 -2.371,2.711 1.178,0.612 1.836,1.788 1.979,3.106 0.141,1.409 -0.713,2.641 -1.229,3.956 -0.99,2.492 0.506,3.64 1.637,3.816 -0.607,1.374 -3.07,2.016 -4.045,1.387 0,0 1.977,2.87 1.367,4.989 -0.609,2.12 -2.727,3.893 -2.537,5.352 0.141,1.035 1.514,2.706 2.502,2.305 -0.203,1.756 -3.332,1.958 -4.016,1.631 0.689,0.737 2.191,1.758 2.752,3.893 0.561,2.137 -1.783,3.278 -1.074,5.141 0.811,2.132 3.779,1.758 4.061,1.783 -0.26,3.527 -1.66,8.034 -6.82,10.546 0.35,0.539 0.818,1.275 0.818,1.998 0,1.093 -1.197,4.105 0.242,5.173 2.156,1.607 7.654,4.162 3.768,9.12 h 2.297 c 0.408,-10e-4 0.74,0.337 0.74,0.75 z" />
			</g>
		</g>
		<g
   id="g15578">
			
			<g
   id="g15580">
				<text
   style="font-size:20.65449905px;fill:#ffffff;font-family:Calibri-Bold"
   id="text15582"
   font-size="20.6545"
   transform="matrix(1.0005,0,0,1,56.2705,127.7773)">TTP</text>

			</g>
		</g>
		<linearGradient
   y2="2.9116001"
   x2="71.998497"
   y1="123.8291"
   x1="71.998497"
   gradientUnits="userSpaceOnUse"
   id="linearGradient15584">
			<stop
   id="stop15586"
   style="stop-color:#FFFFFF;stop-opacity:0.1"
   offset="0" />
			<stop
   id="stop15588"
   style="stop-color:#FFFFFF;stop-opacity:0.2"
   offset="1" />
		</linearGradient>
		<path
   inkscape:connector-curvature="0"
   style="fill:url(#linearGradient16018)"
   id="path15590"
   d="M 123.816,2.911 H 20.183 c -9.504,0 -17.27,7.765 -17.27,17.26 V 123.829 C 14.615,20.666 141.084,20.171 141.084,20.171 c 0,-9.495 -7.764,-17.26 -17.268,-17.26 z" />
	</g>
</switch><switch
       id="switch15592"
       transform="matrix(0.96186441,0,0,0.97033837,-337.42372,-4.8813263)">
	<g
   id="g15594">
		<g
   id="g15596">
			<g
   id="g15598">
				<linearGradient
   id="linearGradient15600"
   gradientUnits="userSpaceOnUse"
   x1="72.000504"
   y1="143.99899"
   x2="72.000504"
   y2="0.0015">
					<stop
   offset="0"
   style="stop-color:#000000"
   id="stop15602" />
					<stop
   offset="0.0489"
   style="stop-color:#0B050F"
   id="stop15604" />
					<stop
   offset="0.1915"
   style="stop-color:#271137"
   id="stop15606" />
					<stop
   offset="0.3389"
   style="stop-color:#3E1B57"
   id="stop15608" />
					<stop
   offset="0.49"
   style="stop-color:#4F2371"
   id="stop15610" />
					<stop
   offset="0.6465"
   style="stop-color:#5C2983"
   id="stop15612" />
					<stop
   offset="0.8117"
   style="stop-color:#642C8E"
   id="stop15614" />
					<stop
   offset="1"
   style="stop-color:#662D91"
   id="stop15616" />
				</linearGradient>
				<path
   d="M 126.002,0.001 H 17.997 C 8.094,0.001 0,8.093 0,17.989 V 126.01 c 0,9.896 8.094,17.988 17.997,17.988 h 108.005 c 9.906,0 17.998,-8.092 17.998,-17.988 V 17.989 C 144,8.093 135.908,0.001 126.002,0.001 z"
   id="path15618"
   style="fill:url(#linearGradient16020)"
   inkscape:connector-curvature="0" />
			</g>
			<defs
   id="defs15620">
				<filter
   id="filter15622"
   filterUnits="userSpaceOnUse"
   x="0"
   y="0.001"
   width="144"
   height="143.998"
   color-interpolation-filters="sRGB">
					
						<feColorMatrix
   type="matrix"
   values="-1 0 0 0 1  0 -1 0 0 1  0 0 -1 0 1  0 0 0 1 0"
   color-interpolation-filters="sRGB"
   result="source"
   id="feColorMatrix15624" />
				</filter>
			</defs>
			<mask
   maskUnits="userSpaceOnUse"
   x="0"
   y="0.001"
   width="144"
   height="143.998"
   id="mask15626">
				<g
   id="g15628"
   style="filter:url(#idTtpFilter)">
					
				</g>
			</mask>
			<g
   mask="url(#idTtpMask)"
   id="g15630"
   style="opacity:0.6">
				<path
   d="M 126.002,0.001 H 17.997 C 8.094,0.001 0,8.093 0,17.989 V 126.01 c 0,9.896 8.094,17.988 17.997,17.988 h 108.005 c 9.906,0 17.998,-8.092 17.998,-17.988 V 17.989 C 144,8.093 135.908,0.001 126.002,0.001 z"
   id="path15632"
   inkscape:connector-curvature="0" />
			</g>
		</g>
		<g
   id="g15634">
			
			<g
   id="g15636">
				<path
   d="m 89.318,90.719 v 3.351 c 0,0.414 -0.332,0.744 -0.742,0.744 H 55.423 c -0.408,0 -0.742,-0.33 -0.742,-0.744 v -3.351 c 0,-0.413 0.334,-0.751 0.742,-0.751 h 2.297 c -3.635,-4.732 1.729,-7.516 3.886,-9.12 1.437,-1.067 0.241,-4.08 0.241,-5.173 0,-0.544 0.268,-1.097 0.546,-1.564 -4.337,-1.721 -7.191,-5.071 -7.191,-10.694 0,-1.552 0.218,-3.051 0.623,-4.469 0.004,-0.018 0.007,-0.032 0.013,-0.047 0.094,-0.321 0.191,-0.636 0.305,-0.946 0.014,-0.047 0.031,-0.089 0.049,-0.134 v -0.002 c 0.457,-1.237 1.082,-2.411 1.82,-3.544 2.82,-4.331 7.295,-7.99 10.44,-11.687 2.251,-2.637 0.581,-2.305 -2.246,-1.336 -1.702,0.585 -3.444,0.677 -4.538,2.288 -0.645,0.946 -1.404,2.906 -2.878,2.623 -1.407,-0.271 -0.657,-1.237 -0.993,-2.155 -1.025,0.1 -1.899,0.644 -2.438,-0.657 -0.285,-0.697 -0.551,-1.182 -0.605,-1.941 -0.103,-1.388 0.455,-2.485 0.227,-3.996 -0.266,-1.748 1.664,-1.665 2.836,-2.369 1.399,-0.84 2.45,-2.334 3.625,-3.454 2.582,-2.469 3.716,-3.354 4.535,-5.054 0.607,-1.261 6.825,-4.246 6.519,-4.945 -0.63,-1.429 0.74,-5.272 1.008,-5.313 1.08,-0.154 2.902,2.703 3.285,2.951 0.316,0.202 0.584,0.272 0.824,0.278 1.125,-0.116 4.688,-0.992 6.521,0.276 1.037,0.753 0.826,0.997 1.83,2.615 0.705,1.134 2.338,1.291 3.283,0.663 0.086,1.506 -0.963,2.758 -2.371,2.711 1.178,0.612 1.836,1.788 1.979,3.106 0.141,1.409 -0.713,2.641 -1.229,3.956 -0.99,2.492 0.506,3.64 1.637,3.816 -0.607,1.374 -3.07,2.016 -4.045,1.387 0,0 1.977,2.87 1.367,4.989 -0.609,2.12 -2.727,3.893 -2.537,5.352 0.141,1.035 1.514,2.706 2.502,2.305 -0.203,1.756 -3.332,1.958 -4.016,1.631 0.689,0.737 2.191,1.758 2.752,3.893 0.561,2.137 -1.783,3.278 -1.074,5.141 0.811,2.132 3.779,1.758 4.061,1.783 -0.26,3.527 -1.66,8.034 -6.82,10.546 0.35,0.539 0.818,1.275 0.818,1.998 0,1.093 -1.197,4.105 0.242,5.173 2.156,1.607 7.654,4.162 3.768,9.12 h 2.297 c 0.408,-10e-4 0.74,0.337 0.74,0.75 z"
   id="path15638"
   inkscape:connector-curvature="0"
   style="fill:#ffffff" />
			</g>
		</g>
		<g
   id="g15640">
			
			<g
   id="g15642">
				<text
   transform="matrix(1.0005,0,0,1,56.2705,127.7773)"
   font-size="20.6545"
   id="text15644"
   style="font-size:20.65449905px;fill:#ffffff;font-family:Calibri-Bold">TTP</text>

			</g>
		</g>
		<linearGradient
   id="linearGradient15646"
   gradientUnits="userSpaceOnUse"
   x1="71.998497"
   y1="123.8291"
   x2="71.998497"
   y2="2.9116001">
			<stop
   offset="0"
   style="stop-color:#FFFFFF;stop-opacity:0.1"
   id="stop15648" />
			<stop
   offset="1"
   style="stop-color:#FFFFFF;stop-opacity:0.2"
   id="stop15650" />
		</linearGradient>
		<path
   d="M 123.816,2.911 H 20.183 c -9.504,0 -17.27,7.765 -17.27,17.26 V 123.829 C 14.615,20.666 141.084,20.171 141.084,20.171 c 0,-9.495 -7.764,-17.26 -17.268,-17.26 z"
   id="path15652"
   style="fill:url(#linearGradient16022)"
   inkscape:connector-curvature="0" />
	</g>
</switch></g></g></svg>