<?xml version="1.0" encoding="utf-8"?>
<!-- Generator: Adobe Illustrator 16.0.3, SVG Export Plug-In . SVG Version: 6.00 Build 0)  -->
<!DOCTYPE svg PUBLIC "-//W3C//DTD SVG 1.1//EN" "http://www.w3.org/Graphics/SVG/1.1/DTD/svg11.dtd">
<svg version="1.1" id="idTtpLayer"
	 xmlns="http://www.w3.org/2000/svg" xmlns:xlink="http://www.w3.org/1999/xlink" x="0px" y="0px" width="100%" height="100%"
	 viewBox="0 0 144 144" enable-background="new 0 0 144 144" xml:space="preserve">
<switch>
	<g>
		<g>
			<g>
				<linearGradient id="idTtpBackgroundGradient" gradientUnits="userSpaceOnUse" x1="72.0005" y1="143.999" x2="72.0005" y2="0.0015">
					<stop  offset="0" style="stop-color:#000000"/>
					<stop  offset="0.0489" style="stop-color:#0B050F"/>
					<stop  offset="0.1915" style="stop-color:#271137"/>
					<stop  offset="0.3389" style="stop-color:#3E1B57"/>
					<stop  offset="0.49" style="stop-color:#4F2371"/>
					<stop  offset="0.6465" style="stop-color:#5C2983"/>
					<stop  offset="0.8117" style="stop-color:#642C8E"/>
					<stop  offset="1" style="stop-color:#662D91"/>
				</linearGradient>
				<path fill="url(#idTtpBackgroundGradient)" d="M126.002,0.001H17.997C8.094,0.001,0,8.093,0,17.989v108.021c0,9.896,8.094,17.988,17.997,17.988
					h108.005c9.906,0,17.998-8.092,17.998-17.988V17.989C144,8.093,135.908,0.001,126.002,0.001z"/>
			</g>
			<defs>
				<filter id="idTtpFilter" filterUnits="userSpaceOnUse" x="0" y="0.001" width="144" height="143.998">
					
						<feColorMatrix  type="matrix" values="-1 0 0 0 1  0 -1 0 0 1  0 0 -1 0 1  0 0 0 1 0" color-interpolation-filters="sRGB" result="source"/>
				</filter>
			</defs>
			<mask maskUnits="userSpaceOnUse" x="0" y="0.001" width="144" height="143.998" id="idTtpMask">
				<g filter="url(#idTtpFilter)">
					
				</g>
			</mask>
			<g opacity="0.6" mask="url(#idTtpMask)">
				<path d="M126.002,0.001H17.997C8.094,0.001,0,8.093,0,17.989v108.021c0,9.896,8.094,17.988,17.997,17.988h108.005
					c9.906,0,17.998-8.092,17.998-17.988V17.989C144,8.093,135.908,0.001,126.002,0.001z"/>
			</g>
		</g>
		<g>
			
			<g>
				<path fill="#FFFFFF" d="M89.318,90.719v3.351c0,0.414-0.332,0.744-0.742,0.744H55.423c-0.408,0-0.742-0.33-0.742-0.744v-3.351
					c0-0.413,0.334-0.751,0.742-0.751h2.297c-3.635-4.732,1.729-7.516,3.886-9.12c1.437-1.067,0.241-4.08,0.241-5.173
					c0-0.544,0.268-1.097,0.546-1.564c-4.337-1.721-7.191-5.071-7.191-10.694c0-1.552,0.218-3.051,0.623-4.469
					c0.004-0.018,0.007-0.032,0.013-0.047c0.094-0.321,0.191-0.636,0.305-0.946c0.014-0.047,0.031-0.089,0.049-0.134v-0.002
					c0.457-1.237,1.082-2.411,1.82-3.544c2.82-4.331,7.295-7.99,10.44-11.687c2.251-2.637,0.581-2.305-2.246-1.336
					c-1.702,0.585-3.444,0.677-4.538,2.288c-0.645,0.946-1.404,2.906-2.878,2.623c-1.407-0.271-0.657-1.237-0.993-2.155
					c-1.025,0.1-1.899,0.644-2.438-0.657c-0.285-0.697-0.551-1.182-0.605-1.941c-0.103-1.388,0.455-2.485,0.227-3.996
					c-0.266-1.748,1.664-1.665,2.836-2.369c1.399-0.84,2.45-2.334,3.625-3.454c2.582-2.469,3.716-3.354,4.535-5.054
					c0.607-1.261,6.825-4.246,6.519-4.945c-0.63-1.429,0.74-5.272,1.008-5.313c1.08-0.154,2.902,2.703,3.285,2.951
					c0.316,0.202,0.584,0.272,0.824,0.278c1.125-0.116,4.688-0.992,6.521,0.276c1.037,0.753,0.826,0.997,1.83,2.615
					c0.705,1.134,2.338,1.291,3.283,0.663c0.086,1.506-0.963,2.758-2.371,2.711c1.178,0.612,1.836,1.788,1.979,3.106
					c0.141,1.409-0.713,2.641-1.229,3.956c-0.99,2.492,0.506,3.64,1.637,3.816c-0.607,1.374-3.07,2.016-4.045,1.387
					c0,0,1.977,2.87,1.367,4.989c-0.609,2.12-2.727,3.893-2.537,5.352c0.141,1.035,1.514,2.706,2.502,2.305
					c-0.203,1.756-3.332,1.958-4.016,1.631c0.689,0.737,2.191,1.758,2.752,3.893c0.561,2.137-1.783,3.278-1.074,5.141
					c0.811,2.132,3.779,1.758,4.061,1.783c-0.26,3.527-1.66,8.034-6.82,10.546c0.35,0.539,0.818,1.275,0.818,1.998
					c0,1.093-1.197,4.105,0.242,5.173c2.156,1.607,7.654,4.162,3.768,9.12h2.297C88.986,89.968,89.318,90.306,89.318,90.719z"/>
			</g>
		</g>
		<g>
			
			<g>
				<text transform="matrix(1.0005 0 0 1 56.2705 127.7773)" fill="#FFFFFF" font-family="'Calibri-Bold'" font-size="20.6545">TTP</text>
			</g>
		</g>
		<linearGradient id="idTtpCurveOpacityGradient" gradientUnits="userSpaceOnUse" x1="71.9985" y1="123.8291" x2="71.9985" y2="2.9116">
			<stop  offset="0" style="stop-color:#FFFFFF;stop-opacity:0.1"/>
			<stop  offset="1" style="stop-color:#FFFFFF;stop-opacity:0.2"/>
		</linearGradient>
		<path fill="url(#idTtpCurveOpacityGradient)" d="M123.816,2.911H20.183c-9.504,0-17.27,7.765-17.27,17.26v103.658
			C14.615,20.666,141.084,20.171,141.084,20.171C141.084,10.676,133.32,2.911,123.816,2.911z"/>
	</g>
</switch>
</svg>
