<?xml version="1.0" encoding="UTF-8" standalone="no"?>
<!-- Generator: Adobe Illustrator 16.0.3, SVG Export Plug-In . SVG Version: 6.00 Build 0)  -->

<svg
   xmlns:dc="http://purl.org/dc/elements/1.1/"
   xmlns:cc="http://creativecommons.org/ns#"
   xmlns:rdf="http://www.w3.org/1999/02/22-rdf-syntax-ns#"
   xmlns:svg="http://www.w3.org/2000/svg"
   xmlns="http://www.w3.org/2000/svg"
   xmlns:xlink="http://www.w3.org/1999/xlink"
   xmlns:sodipodi="http://sodipodi.sourceforge.net/DTD/sodipodi-0.dtd"
   xmlns:inkscape="http://www.inkscape.org/namespaces/inkscape"
   version="1.1"
   id="idVictimTargetingLayer"
   x="0px"
   y="0px"
   width="100%"
   height="100%"
   viewBox="0 0 159.25424 159.86441"
   enable-background="new 0 0 144 144"
   xml:space="preserve"
   inkscape:version="0.48.2 r9819"
   sodipodi:docname="victim_targeting.svg"><metadata
   id="metadata16255"><rdf:RDF><cc:Work
       rdf:about=""><dc:format>image/svg+xml</dc:format><dc:type
         rdf:resource="http://purl.org/dc/dcmitype/StillImage" /><dc:title></dc:title></cc:Work></rdf:RDF></metadata><defs
   id="defs16253"><linearGradient
     inkscape:collect="always"
     xlink:href="#idVictimTargetingBackgroundGradient"
     id="linearGradient16285"
     gradientUnits="userSpaceOnUse"
     x1="72.000504"
     y1="144"
     x2="72.000504"
     y2="0.00048828131" /><linearGradient
     inkscape:collect="always"
     xlink:href="#idVictimTargetingCurveOpacityGradient"
     id="linearGradient16287"
     gradientUnits="userSpaceOnUse"
     x1="72.001503"
     y1="123.8184"
     x2="72.001503"
     y2="2.9145999" /><linearGradient
     inkscape:collect="always"
     xlink:href="#idVictimTargetingBackgroundGradient"
     id="linearGradient16321"
     gradientUnits="userSpaceOnUse"
     x1="72.000504"
     y1="144"
     x2="72.000504"
     y2="0.00048828131" /><linearGradient
     inkscape:collect="always"
     xlink:href="#idVictimTargetingCurveOpacityGradient"
     id="linearGradient16323"
     gradientUnits="userSpaceOnUse"
     x1="72.001503"
     y1="123.8184"
     x2="72.001503"
     y2="2.9145999" /><linearGradient
     inkscape:collect="always"
     xlink:href="#idVictimTargetingBackgroundGradient"
     id="linearGradient16383"
     gradientUnits="userSpaceOnUse"
     x1="72.000504"
     y1="144"
     x2="72.000504"
     y2="0.00048828131" /><linearGradient
     inkscape:collect="always"
     xlink:href="#idVictimTargetingCurveOpacityGradient"
     id="linearGradient16385"
     gradientUnits="userSpaceOnUse"
     x1="72.001503"
     y1="123.8184"
     x2="72.001503"
     y2="2.9145999" /><linearGradient
     inkscape:collect="always"
     xlink:href="#idVictimTargetingBackgroundGradient"
     id="linearGradient16445"
     gradientUnits="userSpaceOnUse"
     x1="72.000504"
     y1="144"
     x2="72.000504"
     y2="0.00048828131" /><linearGradient
     inkscape:collect="always"
     xlink:href="#idVictimTargetingCurveOpacityGradient"
     id="linearGradient16447"
     gradientUnits="userSpaceOnUse"
     x1="72.001503"
     y1="123.8184"
     x2="72.001503"
     y2="2.9145999" /><linearGradient
     inkscape:collect="always"
     xlink:href="#idVictimTargetingBackgroundGradient"
     id="linearGradient16538"
     gradientUnits="userSpaceOnUse"
     x1="72.000504"
     y1="144"
     x2="72.000504"
     y2="0.00048828131" /><linearGradient
     inkscape:collect="always"
     xlink:href="#idVictimTargetingCurveOpacityGradient"
     id="linearGradient16540"
     gradientUnits="userSpaceOnUse"
     x1="72.001503"
     y1="123.8184"
     x2="72.001503"
     y2="2.9145999" /><linearGradient
     inkscape:collect="always"
     xlink:href="#idVictimTargetingBackgroundGradient"
     id="linearGradient16542"
     gradientUnits="userSpaceOnUse"
     x1="72.000504"
     y1="144"
     x2="72.000504"
     y2="0.00048828131" /><linearGradient
     inkscape:collect="always"
     xlink:href="#idVictimTargetingCurveOpacityGradient"
     id="linearGradient16544"
     gradientUnits="userSpaceOnUse"
     x1="72.001503"
     y1="123.8184"
     x2="72.001503"
     y2="2.9145999" /><linearGradient
     inkscape:collect="always"
     xlink:href="#idVictimTargetingBackgroundGradient"
     id="linearGradient16546"
     gradientUnits="userSpaceOnUse"
     x1="72.000504"
     y1="144"
     x2="72.000504"
     y2="0.00048828131" /><linearGradient
     inkscape:collect="always"
     xlink:href="#idVictimTargetingCurveOpacityGradient"
     id="linearGradient16548"
     gradientUnits="userSpaceOnUse"
     x1="72.001503"
     y1="123.8184"
     x2="72.001503"
     y2="2.9145999" /></defs><sodipodi:namedview
   pagecolor="#ffffff"
   bordercolor="#666666"
   borderopacity="1"
   objecttolerance="10"
   gridtolerance="10"
   guidetolerance="10"
   inkscape:pageopacity="0"
   inkscape:pageshadow="2"
   inkscape:window-width="1379"
   inkscape:window-height="949"
   id="namedview16251"
   showgrid="false"
   fit-margin-top="0"
   fit-margin-left="0"
   fit-margin-right="0"
   fit-margin-bottom="0"
   inkscape:zoom="1.6388889"
   inkscape:cx="28.677971"
   inkscape:cy="69.559325"
   inkscape:window-x="294"
   inkscape:window-y="174"
   inkscape:window-maximized="0"
   inkscape:current-layer="g16195" />
<switch
   id="switch16193"
   transform="translate(-262.98305,14.644068)">
	<g
   id="g16195">
		
		
		<linearGradient
   id="idVictimTargetingCurveOpacityGradient"
   gradientUnits="userSpaceOnUse"
   x1="72.001503"
   y1="123.8184"
   x2="72.001503"
   y2="2.9145999">
			<stop
   offset="0"
   style="stop-color:#FFFFFF;stop-opacity:0.1"
   id="stop16239" />
			<stop
   offset="1"
   style="stop-color:#FFFFFF;stop-opacity:0.2"
   id="stop16241" />
		</linearGradient>
		
		
	<g
   id="g16449"
   transform="translate(250.16949,-4.2711864)"><g
     transform="translate(-192.20339,-13.423729)"
     id="g16291"><rect
       style="fill:#000000"
       id="rect16289"
       width="144"
       height="140.94916"
       x="0.61016947"
       y="-0.61016947"
       transform="translate(219.66102,3.6610169)"
       ry="19.860003" /><g
       id="g16257"
       transform="matrix(0.97033898,0,0,0.96186441,222.71187,6.1016949)"><g
         id="g16197">
			<g
   id="g16199">
				<linearGradient
   y2="0.00048828131"
   x2="72.000504"
   y1="144"
   x1="72.000504"
   gradientUnits="userSpaceOnUse"
   id="idVictimTargetingBackgroundGradient">
					<stop
   id="stop16202"
   style="stop-color:#000000"
   offset="0" />
					<stop
   id="stop16204"
   style="stop-color:#1C0011"
   offset="0.0846" />
					<stop
   id="stop16206"
   style="stop-color:#440028"
   offset="0.2219" />
					<stop
   id="stop16208"
   style="stop-color:#64003B"
   offset="0.3637" />
					<stop
   id="stop16210"
   style="stop-color:#7E004A"
   offset="0.5092" />
					<stop
   id="stop16212"
   style="stop-color:#900055"
   offset="0.6599" />
					<stop
   id="stop16214"
   style="stop-color:#9B005B"
   offset="0.8188" />
					<stop
   id="stop16216"
   style="stop-color:#9E005D"
   offset="1" />
				</linearGradient>
				<path
   inkscape:connector-curvature="0"
   style="fill:url(#linearGradient16538)"
   id="path16218"
   d="M 126,0 H 18 C 8.096,0 0,8.098 0,17.998 V 126.002 C 0,135.906 8.096,144 18,144 h 108 c 9.906,0 18,-8.094 18,-17.998 V 17.998 C 144,8.098 135.906,0 126,0 z" />
			</g>
			<defs
   id="defs16220">
				<filter
   color-interpolation-filters="sRGB"
   height="144"
   width="144"
   y="0"
   x="0"
   filterUnits="userSpaceOnUse"
   id="idVictimTargetingFilter">
					
						<feColorMatrix
   id="feColorMatrix16223"
   result="source"
   color-interpolation-filters="sRGB"
   values="-1 0 0 0 1  0 -1 0 0 1  0 0 -1 0 1  0 0 0 1 0"
   type="matrix" />
				</filter>
			</defs>
			<mask
   id="idVictimTargetingMask"
   height="144"
   width="144"
   y="0"
   x="0"
   maskUnits="userSpaceOnUse">
				<g
   style="filter:url(#idVictimTargetingFilter)"
   id="g16226">
					
				</g>
			</mask>
			<g
   style="opacity:0.6"
   id="g16228"
   mask="url(#idVictimTargetingMask)">
				<path
   inkscape:connector-curvature="0"
   id="path16230"
   d="M 126,0 H 18 C 8.096,0 0,8.098 0,17.998 V 126.002 C 0,135.906 8.096,144 18,144 h 108 c 9.906,0 18,-8.094 18,-17.998 V 17.998 C 144,8.098 135.906,0 126,0 z" />
			</g>
		</g><g
         transform="translate(-10.983051,0)"
         id="g16232">
			
			<g
   id="g16234">
				<text
   style="font-size:17.39999962px;fill:#ffffff;font-family:Calibri-Bold"
   id="text16236"
   font-size="17.4"
   transform="matrix(1.0002,0,0,1,14.8237,127.502)">VictimTargeting</text>

			</g>
		</g><path
         inkscape:connector-curvature="0"
         style="fill:url(#linearGradient16540)"
         id="path16243"
         d="M 123.814,2.914 H 20.186 c -9.502,0 -17.271,7.768 -17.271,17.271 V 123.818 C 14.619,20.68 141.088,20.186 141.088,20.186 c 0,-9.504 -7.768,-17.272 -17.274,-17.272 z" /><g
         id="g16245">
			
			<g
   id="g16247">
				<path
   style="fill:none;stroke:#ffffff;stroke-width:1.63139999;stroke-miterlimit:10"
   inkscape:connector-curvature="0"
   id="path16249"
   d="m 34.518,36.947 c -3.373,-0.025 -10.385,7.098 -11.594,8.877 -1.055,1.551 -2.002,4.156 -1.268,5.814 1.074,2.414 2.652,2.955 4.717,1.24 1.783,-1.48 2.789,-4.537 5.506,-2.576 1.549,1.121 9.424,10.84 12.791,13.139 1.945,1.326 2.941,2.832 5.217,3.777 2.607,1.082 4.637,0.371 6.939,-1.09 1.512,-0.955 4.957,-3.295 6.877,-2.539 1.908,0.75 -0.033,4.936 -0.529,6.344 -1.58,4.508 -1.633,9.158 -5.674,12.396 -1.92,1.543 -10.807,4.684 -12.967,5.65 -1.957,0.875 -4.045,2.121 -3.637,4.645 0.33,2.061 2.178,4.162 3.246,5.922 0.963,1.588 2.16,4.643 4.336,4.793 2.838,0.199 2.314,-3.4 3.137,-5.076 1.07,-2.189 9.5,-7.209 11.814,-8.314 2.098,-1 4.301,-2.373 6.229,-3.764 2.221,-1.605 4.037,-11.338 4.76,-13.859 0.908,-3.152 16.508,-10.627 19.281,-4.932 1.131,2.324 6.453,9.332 8.357,10.537 1.76,1.111 4.561,1.209 6.482,0.357 2.549,-1.133 12.23,-15.148 13.711,-20.48 0.67,-2.41 0.627,-5.174 -2.293,-5.637 -1.879,-0.299 -5.59,0.689 -6.797,2.131 -1.361,1.627 -7.83,12.646 -8.852,12.668 -1.58,0.035 -2.816,-7.213 -3.379,-9.725 -0.496,-2.217 -1.297,-4.48 -2.295,-6.594 -0.592,-1.254 -1.383,-2.039 0.039,-2.961 0.818,-0.529 2.107,-0.541 3.098,-0.596 1.279,-0.07 1.938,0.361 2.992,0.67 1.283,0.375 2.396,0.111 3.633,-0.211 2.348,-0.613 4.295,-1.232 5.076,-3.693 1.783,-5.619 -1.852,-9.361 -7.332,-9.766 -2.797,-0.207 -4.051,1.924 -5.811,3.697 -2.096,2.111 -3.695,1.615 -5.744,-0.006 -1.799,-1.42 -3.83,-3.27 -5.191,-5.068 -0.85,-1.121 -4.855,-4.367 -5.85,-5.186 -1.805,-1.48 -3.309,-2.936 -5.459,-4.014 -1.938,-0.969 -19.826,3.611 -22.244,4.438 -1.566,0.533 -3.914,2.658 -4.584,4.197 -1.154,2.656 1.402,4.109 3.457,5.184 3.018,1.578 3.438,0.674 5.773,-1.34 1.764,-1.518 10.701,-4.588 13.086,-3.453 1.664,0.793 8.762,8.084 6.904,9.723 -0.883,0.777 -16.246,8.566 -18.182,9.654 -2.33,1.309 -4.818,2.689 -7.326,3.498 -2.699,0.871 -4.123,0.697 -6.104,-1.416 -1.645,-1.752 -7.703,-8.717 -9.238,-10.887 -1.49,-2.107 -2.824,-5.699 -4.559,-6.072 l -0.549,-0.096 z"
   stroke-miterlimit="10" />
			</g>
		</g></g></g><g
     transform="translate(-200.1356,-4.8813539)"
     id="g16387"><rect
       style="fill:#000000"
       id="rect16389"
       width="144"
       height="140.94916"
       x="0.61016947"
       y="-0.61016947"
       transform="translate(219.66102,3.6610169)"
       ry="19.860003" /><g
       id="g16391"
       transform="matrix(0.97033898,0,0,0.96186441,222.71187,6.1016949)"><g
         id="g16393">
			<g
   id="g16395">
				<linearGradient
   y2="0.00048828131"
   x2="72.000504"
   y1="144"
   x1="72.000504"
   gradientUnits="userSpaceOnUse"
   id="linearGradient16397">
					<stop
   id="stop16399"
   style="stop-color:#000000"
   offset="0" />
					<stop
   id="stop16401"
   style="stop-color:#1C0011"
   offset="0.0846" />
					<stop
   id="stop16403"
   style="stop-color:#440028"
   offset="0.2219" />
					<stop
   id="stop16405"
   style="stop-color:#64003B"
   offset="0.3637" />
					<stop
   id="stop16407"
   style="stop-color:#7E004A"
   offset="0.5092" />
					<stop
   id="stop16409"
   style="stop-color:#900055"
   offset="0.6599" />
					<stop
   id="stop16411"
   style="stop-color:#9B005B"
   offset="0.8188" />
					<stop
   id="stop16413"
   style="stop-color:#9E005D"
   offset="1" />
				</linearGradient>
				<path
   inkscape:connector-curvature="0"
   style="fill:url(#linearGradient16542)"
   id="path16415"
   d="M 126,0 H 18 C 8.096,0 0,8.098 0,17.998 V 126.002 C 0,135.906 8.096,144 18,144 h 108 c 9.906,0 18,-8.094 18,-17.998 V 17.998 C 144,8.098 135.906,0 126,0 z" />
			</g>
			<defs
   id="defs16417">
				<filter
   color-interpolation-filters="sRGB"
   height="144"
   width="144"
   y="0"
   x="0"
   filterUnits="userSpaceOnUse"
   id="filter16419">
					
						<feColorMatrix
   id="feColorMatrix16421"
   result="source"
   color-interpolation-filters="sRGB"
   values="-1 0 0 0 1  0 -1 0 0 1  0 0 -1 0 1  0 0 0 1 0"
   type="matrix" />
				</filter>
			</defs>
			<mask
   id="mask16423"
   height="144"
   width="144"
   y="0"
   x="0"
   maskUnits="userSpaceOnUse">
				<g
   style="filter:url(#idVictimTargetingFilter)"
   id="g16425">
					
				</g>
			</mask>
			<g
   style="opacity:0.6"
   id="g16427"
   mask="url(#idVictimTargetingMask)">
				<path
   inkscape:connector-curvature="0"
   id="path16429"
   d="M 126,0 H 18 C 8.096,0 0,8.098 0,17.998 V 126.002 C 0,135.906 8.096,144 18,144 h 108 c 9.906,0 18,-8.094 18,-17.998 V 17.998 C 144,8.098 135.906,0 126,0 z" />
			</g>
		</g><g
         transform="translate(-10.983051,0)"
         id="g16431">
			
			<g
   id="g16433">
				<text
   style="font-size:17.39999962px;fill:#ffffff;font-family:Calibri-Bold"
   id="text16435"
   font-size="17.4"
   transform="matrix(1.0002,0,0,1,14.8237,127.502)">VictimTargeting</text>

			</g>
		</g><path
         inkscape:connector-curvature="0"
         style="fill:url(#linearGradient16544)"
         id="path16437"
         d="M 123.814,2.914 H 20.186 c -9.502,0 -17.271,7.768 -17.271,17.271 V 123.818 C 14.619,20.68 141.088,20.186 141.088,20.186 c 0,-9.504 -7.768,-17.272 -17.274,-17.272 z" /><g
         id="g16439">
			
			<g
   id="g16441">
				<path
   style="fill:none;stroke:#ffffff;stroke-width:1.63139999;stroke-miterlimit:10"
   inkscape:connector-curvature="0"
   id="path16443"
   d="m 34.518,36.947 c -3.373,-0.025 -10.385,7.098 -11.594,8.877 -1.055,1.551 -2.002,4.156 -1.268,5.814 1.074,2.414 2.652,2.955 4.717,1.24 1.783,-1.48 2.789,-4.537 5.506,-2.576 1.549,1.121 9.424,10.84 12.791,13.139 1.945,1.326 2.941,2.832 5.217,3.777 2.607,1.082 4.637,0.371 6.939,-1.09 1.512,-0.955 4.957,-3.295 6.877,-2.539 1.908,0.75 -0.033,4.936 -0.529,6.344 -1.58,4.508 -1.633,9.158 -5.674,12.396 -1.92,1.543 -10.807,4.684 -12.967,5.65 -1.957,0.875 -4.045,2.121 -3.637,4.645 0.33,2.061 2.178,4.162 3.246,5.922 0.963,1.588 2.16,4.643 4.336,4.793 2.838,0.199 2.314,-3.4 3.137,-5.076 1.07,-2.189 9.5,-7.209 11.814,-8.314 2.098,-1 4.301,-2.373 6.229,-3.764 2.221,-1.605 4.037,-11.338 4.76,-13.859 0.908,-3.152 16.508,-10.627 19.281,-4.932 1.131,2.324 6.453,9.332 8.357,10.537 1.76,1.111 4.561,1.209 6.482,0.357 2.549,-1.133 12.23,-15.148 13.711,-20.48 0.67,-2.41 0.627,-5.174 -2.293,-5.637 -1.879,-0.299 -5.59,0.689 -6.797,2.131 -1.361,1.627 -7.83,12.646 -8.852,12.668 -1.58,0.035 -2.816,-7.213 -3.379,-9.725 -0.496,-2.217 -1.297,-4.48 -2.295,-6.594 -0.592,-1.254 -1.383,-2.039 0.039,-2.961 0.818,-0.529 2.107,-0.541 3.098,-0.596 1.279,-0.07 1.938,0.361 2.992,0.67 1.283,0.375 2.396,0.111 3.633,-0.211 2.348,-0.613 4.295,-1.232 5.076,-3.693 1.783,-5.619 -1.852,-9.361 -7.332,-9.766 -2.797,-0.207 -4.051,1.924 -5.811,3.697 -2.096,2.111 -3.695,1.615 -5.744,-0.006 -1.799,-1.42 -3.83,-3.27 -5.191,-5.068 -0.85,-1.121 -4.855,-4.367 -5.85,-5.186 -1.805,-1.48 -3.309,-2.936 -5.459,-4.014 -1.938,-0.969 -19.826,3.611 -22.244,4.438 -1.566,0.533 -3.914,2.658 -4.584,4.197 -1.154,2.656 1.402,4.109 3.457,5.184 3.018,1.578 3.438,0.674 5.773,-1.34 1.764,-1.518 10.701,-4.588 13.086,-3.453 1.664,0.793 8.762,8.084 6.904,9.723 -0.883,0.777 -16.246,8.566 -18.182,9.654 -2.33,1.309 -4.818,2.689 -7.326,3.498 -2.699,0.871 -4.123,0.697 -6.104,-1.416 -1.645,-1.752 -7.703,-8.717 -9.238,-10.887 -1.49,-2.107 -2.824,-5.699 -4.559,-6.072 l -0.549,-0.096 z"
   stroke-miterlimit="10" />
			</g>
		</g></g></g><g
     id="g16325"
     transform="translate(-207.45763,4.881358)"><rect
       ry="19.860003"
       transform="translate(219.66102,3.6610169)"
       y="-0.61016947"
       x="0.61016947"
       height="140.94916"
       width="144"
       id="rect16327"
       style="fill:#000000" /><g
       transform="matrix(0.97033898,0,0,0.96186441,222.71187,6.1016949)"
       id="g16329"><g
         id="g16331">
			<g
   id="g16333">
				<linearGradient
   id="linearGradient16335"
   gradientUnits="userSpaceOnUse"
   x1="72.000504"
   y1="144"
   x2="72.000504"
   y2="0.00048828131">
					<stop
   offset="0"
   style="stop-color:#000000"
   id="stop16337" />
					<stop
   offset="0.0846"
   style="stop-color:#1C0011"
   id="stop16339" />
					<stop
   offset="0.2219"
   style="stop-color:#440028"
   id="stop16341" />
					<stop
   offset="0.3637"
   style="stop-color:#64003B"
   id="stop16343" />
					<stop
   offset="0.5092"
   style="stop-color:#7E004A"
   id="stop16345" />
					<stop
   offset="0.6599"
   style="stop-color:#900055"
   id="stop16347" />
					<stop
   offset="0.8188"
   style="stop-color:#9B005B"
   id="stop16349" />
					<stop
   offset="1"
   style="stop-color:#9E005D"
   id="stop16351" />
				</linearGradient>
				<path
   d="M 126,0 H 18 C 8.096,0 0,8.098 0,17.998 V 126.002 C 0,135.906 8.096,144 18,144 h 108 c 9.906,0 18,-8.094 18,-17.998 V 17.998 C 144,8.098 135.906,0 126,0 z"
   id="path16353"
   style="fill:url(#linearGradient16546)"
   inkscape:connector-curvature="0" />
			</g>
			<defs
   id="defs16355">
				<filter
   id="filter16357"
   filterUnits="userSpaceOnUse"
   x="0"
   y="0"
   width="144"
   height="144"
   color-interpolation-filters="sRGB">
					
						<feColorMatrix
   type="matrix"
   values="-1 0 0 0 1  0 -1 0 0 1  0 0 -1 0 1  0 0 0 1 0"
   color-interpolation-filters="sRGB"
   result="source"
   id="feColorMatrix16359" />
				</filter>
			</defs>
			<mask
   maskUnits="userSpaceOnUse"
   x="0"
   y="0"
   width="144"
   height="144"
   id="mask16361">
				<g
   id="g16363"
   style="filter:url(#idVictimTargetingFilter)">
					
				</g>
			</mask>
			<g
   mask="url(#idVictimTargetingMask)"
   id="g16365"
   style="opacity:0.6">
				<path
   d="M 126,0 H 18 C 8.096,0 0,8.098 0,17.998 V 126.002 C 0,135.906 8.096,144 18,144 h 108 c 9.906,0 18,-8.094 18,-17.998 V 17.998 C 144,8.098 135.906,0 126,0 z"
   id="path16367"
   inkscape:connector-curvature="0" />
			</g>
		</g><g
         id="g16369"
         transform="translate(-10.983051,0)">
			
			<g
   id="g16371">
				<text
   transform="matrix(1.0002,0,0,1,14.8237,127.502)"
   font-size="17.4"
   id="text16373"
   style="font-size:17.39999962px;fill:#ffffff;font-family:Calibri-Bold">VictimTargeting</text>

			</g>
		</g><path
         d="M 123.814,2.914 H 20.186 c -9.502,0 -17.271,7.768 -17.271,17.271 V 123.818 C 14.619,20.68 141.088,20.186 141.088,20.186 c 0,-9.504 -7.768,-17.272 -17.274,-17.272 z"
         id="path16375"
         style="fill:url(#linearGradient16548)"
         inkscape:connector-curvature="0" /><g
         id="g16377">
			
			<g
   id="g16379">
				<path
   stroke-miterlimit="10"
   d="m 34.518,36.947 c -3.373,-0.025 -10.385,7.098 -11.594,8.877 -1.055,1.551 -2.002,4.156 -1.268,5.814 1.074,2.414 2.652,2.955 4.717,1.24 1.783,-1.48 2.789,-4.537 5.506,-2.576 1.549,1.121 9.424,10.84 12.791,13.139 1.945,1.326 2.941,2.832 5.217,3.777 2.607,1.082 4.637,0.371 6.939,-1.09 1.512,-0.955 4.957,-3.295 6.877,-2.539 1.908,0.75 -0.033,4.936 -0.529,6.344 -1.58,4.508 -1.633,9.158 -5.674,12.396 -1.92,1.543 -10.807,4.684 -12.967,5.65 -1.957,0.875 -4.045,2.121 -3.637,4.645 0.33,2.061 2.178,4.162 3.246,5.922 0.963,1.588 2.16,4.643 4.336,4.793 2.838,0.199 2.314,-3.4 3.137,-5.076 1.07,-2.189 9.5,-7.209 11.814,-8.314 2.098,-1 4.301,-2.373 6.229,-3.764 2.221,-1.605 4.037,-11.338 4.76,-13.859 0.908,-3.152 16.508,-10.627 19.281,-4.932 1.131,2.324 6.453,9.332 8.357,10.537 1.76,1.111 4.561,1.209 6.482,0.357 2.549,-1.133 12.23,-15.148 13.711,-20.48 0.67,-2.41 0.627,-5.174 -2.293,-5.637 -1.879,-0.299 -5.59,0.689 -6.797,2.131 -1.361,1.627 -7.83,12.646 -8.852,12.668 -1.58,0.035 -2.816,-7.213 -3.379,-9.725 -0.496,-2.217 -1.297,-4.48 -2.295,-6.594 -0.592,-1.254 -1.383,-2.039 0.039,-2.961 0.818,-0.529 2.107,-0.541 3.098,-0.596 1.279,-0.07 1.938,0.361 2.992,0.67 1.283,0.375 2.396,0.111 3.633,-0.211 2.348,-0.613 4.295,-1.232 5.076,-3.693 1.783,-5.619 -1.852,-9.361 -7.332,-9.766 -2.797,-0.207 -4.051,1.924 -5.811,3.697 -2.096,2.111 -3.695,1.615 -5.744,-0.006 -1.799,-1.42 -3.83,-3.27 -5.191,-5.068 -0.85,-1.121 -4.855,-4.367 -5.85,-5.186 -1.805,-1.48 -3.309,-2.936 -5.459,-4.014 -1.938,-0.969 -19.826,3.611 -22.244,4.438 -1.566,0.533 -3.914,2.658 -4.584,4.197 -1.154,2.656 1.402,4.109 3.457,5.184 3.018,1.578 3.438,0.674 5.773,-1.34 1.764,-1.518 10.701,-4.588 13.086,-3.453 1.664,0.793 8.762,8.084 6.904,9.723 -0.883,0.777 -16.246,8.566 -18.182,9.654 -2.33,1.309 -4.818,2.689 -7.326,3.498 -2.699,0.871 -4.123,0.697 -6.104,-1.416 -1.645,-1.752 -7.703,-8.717 -9.238,-10.887 -1.49,-2.107 -2.824,-5.699 -4.559,-6.072 l -0.549,-0.096 z"
   id="path16381"
   inkscape:connector-curvature="0"
   style="fill:none;stroke:#ffffff;stroke-width:1.63139999;stroke-miterlimit:10" />
			</g>
		</g></g></g></g></g>
</switch>
</svg>